<?xml version="1.0" encoding="UTF-8" standalone="no"?>
<!-- Created with Inkscape (http://www.inkscape.org/) -->

<svg
   xmlns:dc="http://purl.org/dc/elements/1.1/"
   xmlns:cc="http://creativecommons.org/ns#"
   xmlns:rdf="http://www.w3.org/1999/02/22-rdf-syntax-ns#"
   xmlns:svg="http://www.w3.org/2000/svg"
   xmlns="http://www.w3.org/2000/svg"
   xmlns:xlink="http://www.w3.org/1999/xlink"
   xmlns:sodipodi="http://sodipodi.sourceforge.net/DTD/sodipodi-0.dtd"
   xmlns:inkscape="http://www.inkscape.org/namespaces/inkscape"
   width="297mm"
   height="210mm"
   viewBox="0 0 297 210"
   version="1.1"
   id="svg8"
   inkscape:version="0.92.2 (5c3e80d, 2017-08-06)"
   sodipodi:docname="bbs.svg">
  <defs
     id="defs2">
    <filter
       style="color-interpolation-filters:sRGB;"
       inkscape:label="Drop Shadow"
       id="filter4593">
      <feFlood
         flood-opacity="0.498039"
         flood-color="rgb(0,0,0)"
         result="flood"
         id="feFlood4583" />
      <feComposite
         in="flood"
         in2="SourceGraphic"
         operator="in"
         result="composite1"
         id="feComposite4585" />
      <feGaussianBlur
         in="composite1"
         stdDeviation="3"
         result="blur"
         id="feGaussianBlur4587" />
      <feOffset
         dx="6"
         dy="6"
         result="offset"
         id="feOffset4589" />
      <feComposite
         in="SourceGraphic"
         in2="offset"
         operator="over"
         result="composite2"
         id="feComposite4591" />
    </filter>
    <filter
       style="color-interpolation-filters:sRGB;"
       inkscape:label="Drop Shadow"
       id="filter4633">
      <feFlood
         flood-opacity="0.498039"
         flood-color="rgb(0,0,0)"
         result="flood"
         id="feFlood4623" />
      <feComposite
         in="flood"
         in2="SourceGraphic"
         operator="in"
         result="composite1"
         id="feComposite4625" />
      <feGaussianBlur
         in="composite1"
         stdDeviation="3"
         result="blur"
         id="feGaussianBlur4627" />
      <feOffset
         dx="6"
         dy="6"
         result="offset"
         id="feOffset4629" />
      <feComposite
         in="SourceGraphic"
         in2="offset"
         operator="over"
         result="composite2"
         id="feComposite4631" />
    </filter>
    <filter
       style="color-interpolation-filters:sRGB;"
       inkscape:label="Drop Shadow"
       id="filter4661">
      <feFlood
         flood-opacity="0.498039"
         flood-color="rgb(0,0,0)"
         result="flood"
         id="feFlood4651" />
      <feComposite
         in="flood"
         in2="SourceGraphic"
         operator="in"
         result="composite1"
         id="feComposite4653" />
      <feGaussianBlur
         in="composite1"
         stdDeviation="3"
         result="blur"
         id="feGaussianBlur4655" />
      <feOffset
         dx="6"
         dy="6"
         result="offset"
         id="feOffset4657" />
      <feComposite
         in="SourceGraphic"
         in2="offset"
         operator="over"
         result="composite2"
         id="feComposite4659" />
    </filter>
    <filter
       style="color-interpolation-filters:sRGB;"
       inkscape:menu-tooltip="Fades hue progressively to white"
       inkscape:menu="Color"
       inkscape:label="Hue to White"
       id="filter2157">
      <feColorMatrix
         values="1 0 0 0 0 1 0 0 0 0 1 0 0 0 0 0 0 0 0 1 "
         type="matrix"
         result="r"
         in="SourceGraphic"
         id="feColorMatrix2129" />
      <feColorMatrix
         values="0 1 0 0 0 0 1 0 0 0 0 1 0 0 0 0 0 0 0 1 "
         type="matrix"
         result="g"
         in="SourceGraphic"
         id="feColorMatrix2131" />
      <feColorMatrix
         values="0 0 1 0 0 0 0 1 0 0 0 0 1 0 0 0 0 0 0 1 "
         type="matrix"
         result="b"
         in="SourceGraphic"
         id="feColorMatrix2133" />
      <feBlend
         result="minrg"
         in="r"
         mode="darken"
         in2="g"
         id="feBlend2135" />
      <feBlend
         result="p"
         in="minrg"
         mode="darken"
         in2="b"
         id="feBlend2137" />
      <feBlend
         result="maxrg"
         in="r"
         mode="lighten"
         in2="g"
         id="feBlend2139" />
      <feBlend
         result="q"
         in="maxrg"
         mode="lighten"
         in2="b"
         id="feBlend2141" />
      <feComponentTransfer
         result="q2"
         in="q"
         id="feComponentTransfer2145">
        <feFuncR
           slope="0"
           type="linear"
           id="feFuncR2143" />
      </feComponentTransfer>
      <feBlend
         result="pq"
         in="p"
         mode="lighten"
         in2="q2"
         id="feBlend2147" />
      <feColorMatrix
         values="-1 1 0 0 0 -1 1 0 0 0 -1 1 0 0 0 0 0 0 0 1 "
         type="matrix"
         result="qminp"
         in="pq"
         id="feColorMatrix2149" />
      <feComposite
         k3="1"
         operator="arithmetic"
         result="qminpc"
         in="qminp"
         in2="qminp"
         id="feComposite2151" />
      <feBlend
         result="result2"
         in2="SourceGraphic"
         mode="screen"
         id="feBlend2153" />
      <feComposite
         operator="in"
         in="result2"
         in2="SourceGraphic"
         result="result1"
         id="feComposite2155" />
    </filter>
  </defs>
  <sodipodi:namedview
     id="base"
     pagecolor="#ffffff"
     bordercolor="#666666"
     borderopacity="1.0"
     inkscape:pageopacity="0.0"
     inkscape:pageshadow="2"
     inkscape:zoom="0.7"
     inkscape:cx="512.92868"
     inkscape:cy="688.99884"
     inkscape:document-units="mm"
     inkscape:current-layer="layer1"
     showgrid="false"
     inkscape:window-width="1366"
     inkscape:window-height="705"
     inkscape:window-x="1912"
     inkscape:window-y="304"
     inkscape:window-maximized="1">
    <inkscape:grid
       type="xygrid"
       id="grid3709" />
  </sodipodi:namedview>
  <metadata
     id="metadata5">
    <rdf:RDF>
      <cc:Work
         rdf:about="">
        <dc:format>image/svg+xml</dc:format>
        <dc:type
           rdf:resource="http://purl.org/dc/dcmitype/StillImage" />
        <dc:title></dc:title>
      </cc:Work>
    </rdf:RDF>
  </metadata>
  <g
     inkscape:label="レイヤー 1"
     inkscape:groupmode="layer"
     id="layer1"
     transform="translate(0,-87)">
    <g
       id="g2127"
       style="filter:url(#filter2157)">
      <g
         id="g4533" />
      <g
         transform="rotate(10,150.44235,114.80762)"
         style="opacity:1;fill:#feeeef;fill-opacity:0.99545456;stroke:#feeeed;stroke-width:1;stroke-miterlimit:4;stroke-dasharray:none;stroke-opacity:1;filter:url(#filter4593)"
         id="g4541">
        <path
           sodipodi:nodetypes="ccccc"
           inkscape:connector-curvature="0"
           id="path3711"
           d="M 95.249996,180.58334 C 52.916663,159.41667 79.374996,117.08334 84.666663,106.5 L 95.249996,111.79167 105.83333,106.5 c 5.29166,10.58334 31.75,52.91667 -10.583334,74.08334 z"
           style="fill:#feeeef;fill-opacity:0.99545456;stroke:#feeeed;stroke-width:1;stroke-linecap:butt;stroke-linejoin:miter;stroke-miterlimit:4;stroke-dasharray:none;stroke-opacity:1" />
        <path
           sodipodi:nodetypes="ccccc"
           inkscape:connector-curvature="0"
           id="use3717"
           d="M 95.25,180.58333 C 62.037581,214.30386 29.952266,176.05877 21.522127,167.75567 l 8.303107,-8.43013 -1.762247,-11.70057 C 39.763554,145.86274 88.20102,133.78108 95.25,180.58333 Z"
           style="fill:#feeeef;fill-opacity:0.99545456;stroke:#feeeed;stroke-width:1;stroke-linecap:butt;stroke-linejoin:miter;stroke-miterlimit:4;stroke-dasharray:none;stroke-opacity:1" />
        <use
           style="fill:#feeeef;fill-opacity:0.99545456;stroke:#feeeed;stroke-width:1;stroke-miterlimit:4;stroke-dasharray:none;stroke-opacity:1"
           x="0"
           y="0"
           xlink:href="#use3717"
           id="use3721"
           width="100%"
           height="100%"
           transform="rotate(-72,95.250006,180.58333)" />
        <use
           style="fill:#feeeef;fill-opacity:0.99545456;stroke:#feeeed;stroke-width:1;stroke-miterlimit:4;stroke-dasharray:none;stroke-opacity:1"
           x="0"
           y="0"
           xlink:href="#use3721"
           id="use3723"
           transform="rotate(-72,95.250004,180.58334)"
           width="100%"
           height="100%" />
        <use
           style="fill:#feeeef;fill-opacity:0.99545456;stroke:#feeeed;stroke-width:1;stroke-miterlimit:4;stroke-dasharray:none;stroke-opacity:1"
           x="0"
           y="0"
           xlink:href="#use3723"
           id="use3725"
           transform="rotate(-72,95.25,180.58334)"
           width="100%"
           height="100%" />
      </g>
      <flowRoot
         transform="matrix(0.26458333,0,0,0.26458333,0,87)"
         style="font-style:normal;font-weight:normal;font-size:192.00000242px;line-height:1.25;font-family:'Rounded M+ 1p';letter-spacing:0px;word-spacing:0px;fill:#000000;fill-opacity:1;stroke:none;-inkscape-font-specification:'Rounded M+ 1p';font-stretch:normal;font-variant:normal;"
         id="flowRoot4595"
         xml:space="preserve"><flowRegion
           style="-inkscape-font-specification:'Rounded M+ 1p';font-family:'Rounded M+ 1p';font-weight:normal;font-style:normal;font-stretch:normal;font-variant:normal;font-size:192.00000242px;"
           id="flowRegion4597"><rect
             style="-inkscape-font-specification:'Rounded M+ 1p';font-family:'Rounded M+ 1p';font-weight:normal;font-style:normal;font-stretch:normal;font-variant:normal;font-size:192.00000242px;"
             y="233.70081"
             x="280"
             height="260"
             width="520"
             id="rect4599" /></flowRegion><flowPara
           id="flowPara4601" /></flowRoot>      <g
         id="text4605"
         style="font-style:normal;font-variant:normal;font-weight:normal;font-stretch:normal;font-size:96.03546143px;line-height:1.25;font-family:uzura_font;-inkscape-font-specification:uzura_font;letter-spacing:0px;word-spacing:0px;fill:#fa58f4;fill-opacity:1;stroke:#ffffff;stroke-width:3;stroke-miterlimit:4;stroke-dasharray:none;stroke-opacity:1;filter:url(#filter4633)"
         transform="matrix(1.1494743,0,0,1.1494743,-19.41131,-25.834655)"
         aria-label="君咲">
        <path
           id="path856"
           style="font-style:normal;font-variant:normal;font-weight:normal;font-stretch:normal;font-size:96.03546143px;font-family:uzura_font;-inkscape-font-specification:uzura_font;fill:#fa58f4;fill-opacity:1;stroke:#ffffff;stroke-width:3;stroke-miterlimit:4;stroke-dasharray:none;stroke-opacity:1"
           d="m 74.141947,207.73171 -1.875693,-0.93785 q -0.187569,-0.37513 -0.468923,-0.65649 -0.281354,-0.28135 -0.281354,-0.75027 0,-0.46893 -0.187569,-0.84407 -0.187569,-0.37514 -0.187569,-0.75027 0.375138,-3.00111 0.562707,-6.18979 0.18757,-3.18868 0.750277,-6.18978 0.562708,-3.00111 0.750277,-6.18979 0.18757,-3.18868 0.937847,-6.00222 h -0.375139 q -1.312985,2.81354 -2.719754,5.72087 -1.406769,2.90732 -2.719754,5.81464 -1.312985,2.90733 -2.438401,5.90843 -1.125415,3.00111 -2.4384,5.81465 -0.375139,0.18757 -0.750277,0.46892 -0.375139,0.28136 -0.844062,0.37514 -0.468923,0.0938 -0.937846,0.0938 -0.468923,0 -1.031631,0 l -1.875693,-0.93785 q -0.187569,-0.37514 -0.468923,-0.75028 -0.281354,-0.37513 -0.375138,-0.84406 -0.09379,-0.46892 -0.09379,-0.93784 0,-0.46893 0,-1.03163 1.688123,-3.93896 3.282462,-7.9717 1.594339,-4.03274 3.470031,-7.97169 1.875693,-3.93896 3.751386,-7.78413 1.875692,-3.84517 3.376246,-8.15926 h -5.06437 l -2.250831,0.18757 q -0.375138,-0.18757 -0.656492,-0.28135 -0.281354,-0.0938 -0.656493,-0.18757 -0.375138,-0.0938 -0.656492,-0.28136 -0.281354,-0.18757 -0.656492,-0.37514 -0.18757,-0.37513 -0.468924,-0.75027 -0.281353,-0.37514 -0.375138,-0.84406 -0.09378,-0.46893 -0.09378,-0.84407 0,-0.37513 0,-0.93784 l 0.937847,-1.87569 q 0.937846,-0.93785 2.250831,-0.93785 1.312985,0 2.532185,-0.0938 1.2192,-0.0938 2.532185,-0.0938 1.312985,0 2.625969,0 l 3.001109,0.18757 2.250831,-6.18979 -12.567141,-0.37513 q -0.750277,0.18756 -1.688123,0.28135 -0.937846,0.0938 -1.875693,0.0938 -0.937846,0 -1.875692,0.0938 -0.937847,0.0938 -1.875693,0.0938 l -1.875693,-0.93784 q -0.187569,-0.37514 -0.468923,-0.75028 -0.281354,-0.37514 -0.375138,-0.84406 -0.09379,-0.46893 -0.09379,-0.84406 0,-0.37514 0,-0.93785 l 0.937846,-1.87569 q 1.312985,-1.12542 2.907324,-1.2192 1.594339,-0.0938 3.282462,-0.0938 1.688123,0 3.376247,-0.28135 1.688123,-0.28136 3.376246,-0.0938 1.500554,0.18757 3.001109,0.28136 1.500554,0.0938 3.001108,0.0938 1.500554,0 3.094893,0 1.594338,0 3.094892,0 0.375139,-1.12541 0.937847,-2.15704 0.562707,-1.03163 1.031631,-2.15705 0.468923,-1.12542 0.937846,-2.25083 0.468923,-1.12542 0.656492,-2.25083 l -10.691448,-0.18757 -6.564924,0.75028 -1.875692,-0.93785 q -0.18757,-0.37514 -0.468923,-0.75028 -0.281354,-0.37514 -0.375139,-0.84406 -0.09378,-0.46892 -0.09378,-0.93785 0,-0.46892 0,-1.03163 l 1.125416,-2.25083 q 1.875693,-1.12541 4.220308,-1.03163 2.344616,0.0938 4.595447,-0.18757 2.250831,-0.28135 4.595447,-0.18757 2.344616,0.0938 4.595447,0.0938 3.938954,0.5627 8.159263,0.65649 4.220308,0.0938 8.253047,0.37514 4.032735,0.28135 8.159265,0.46892 4.12652,0.18757 7.87791,1.31299 1.12541,1.31298 1.12541,3.18867 0,1.8757 0,3.6576 0,1.78191 0,3.6576 0,1.8757 0.18757,3.56382 1.31299,0 2.53219,0 1.2192,0 2.4384,0.18757 1.2192,0.18757 2.53218,0.18757 1.31299,0 2.25083,0.93785 0.18757,0.37513 0.46893,0.75027 0.28135,0.37514 0.37514,0.84406 0.0938,0.46893 0.0938,0.93785 0,0.46892 0,1.03163 l -0.93785,1.87569 q -0.5627,0.37514 -1.12541,0.6565 -0.56271,0.28135 -1.12542,0.28135 -0.56271,0 -1.31298,0 -0.75028,0 -1.31299,0 l -4.68923,-0.37514 v 3.93896 l 0.37514,7.12763 -0.93785,1.87569 q -0.37514,0.18757 -0.75027,0.46892 -0.37514,0.28136 -0.84407,0.37514 -0.46892,0.0938 -0.84406,0.0938 -0.37514,0 -0.93784,0 l -0.75028,-0.18757 -2.81354,0.56271 q -3.18868,-0.75028 -6.56492,-0.56271 -3.37625,0.18757 -6.564927,-0.0938 -3.188678,-0.28135 -6.658709,-0.37514 -3.470032,-0.0938 -6.846278,-0.0938 l -3.376247,0.18757 q -0.375138,1.68812 -1.031631,3.00111 -0.656492,1.31298 -1.125415,2.71975 -0.468924,1.40677 -1.219201,2.71976 -0.750277,1.31298 -1.125415,2.81353 h 0.187569 l 0.562708,-0.93784 q 2.250831,-1.12542 4.970585,-1.12542 2.719755,0 5.439509,-0.0938 2.719754,-0.0938 5.439508,-0.28136 2.719755,-0.18756 5.533294,0 2.063261,0.18757 4.22031,0.18757 2.15704,0 4.22031,0.18757 2.06326,0.18757 4.12652,0.18757 2.06326,0 3.75139,1.12542 1.50055,2.62597 1.68812,5.90843 0.18757,3.28246 0.65649,6.47114 0.46892,3.18868 0.84406,6.37735 0.37514,3.18868 0.37514,6.37736 l -0.93785,1.87569 -1.50055,1.50056 q -0.37514,0.18756 -0.84406,0.46892 -0.46892,0.28135 -0.93785,0.37514 -0.46892,0.0938 -0.93784,0.0938 -0.46893,0 -1.03163,0 -0.93785,-0.37514 -2.06327,-0.37514 -1.12541,0 -2.34461,0 -1.2192,0 -2.34462,0 -1.12541,0 -2.25083,0 l -2.813538,0.18757 -5.439508,-0.18757 -14.817972,0.56271 -1.500554,-0.18757 z m 34.512743,-7.87791 v -0.75028 l -1.68812,-14.81797 -18.006652,-0.5627 q -0.937846,0.37513 -1.969477,0.37513 -1.031631,0 -2.157046,0 -1.125416,0 -2.157047,0 -1.031631,0 -2.157046,0 -0.18757,2.06327 -0.281354,4.12653 -0.09378,2.06326 -0.468923,3.93895 -0.375139,1.87569 -0.656493,3.84517 -0.281354,1.96948 -0.09378,4.22031 h 7.690339 l 11.254156,-0.37514 2.813537,0.18757 z m 0.37514,-38.82684 V 158.401 l -0.18757,-4.12653 -24.196435,-0.37514 q -0.562707,0.75028 -0.937846,1.50056 -0.375138,0.75027 -0.750277,1.50055 -0.375138,0.75028 -0.656492,1.50056 -0.281354,0.75027 -0.468924,1.68812 3.376247,0 6.846278,0.0938 3.470032,0.0938 6.846279,0.37514 3.376246,0.28136 6.752497,0.0938 3.37624,-0.18757 6.75249,0.37513 z m -0.37514,-14.06769 v -0.93785 l -0.18757,-6.94006 q -2.06326,-0.18757 -4.22031,-0.28135 -2.15704,-0.0938 -4.31409,-0.28136 -2.157046,-0.18757 -4.314093,-0.18757 -2.157046,0 -4.220308,-0.37513 l -3.751385,8.81575 z" />
        <path
           id="path858"
           style="font-style:normal;font-variant:normal;font-weight:normal;font-stretch:normal;font-size:96.03546143px;font-family:uzura_font;-inkscape-font-specification:uzura_font;fill:#fa58f4;fill-opacity:1;stroke:#ffffff;stroke-width:3;stroke-miterlimit:4;stroke-dasharray:none;stroke-opacity:1"
           d="m 215.00646,209.23226 q -0.37514,-0.18756 -0.65649,-0.28135 -0.28135,-0.0938 -0.65649,-0.18757 -0.37514,-0.0938 -0.6565,-0.28135 -0.28135,-0.18757 -0.65649,-0.37514 -1.68812,-3.93896 -4.31409,-7.40899 -2.62597,-3.47003 -4.8768,-7.12763 -2.25083,-3.6576 -4.22031,-7.40898 -1.96948,-3.75139 -4.40788,-7.31521 h -0.56271 q -1.12541,3.75139 -2.34461,7.40899 -1.2192,3.6576 -2.90732,7.22142 -1.68813,3.56381 -3.18868,7.12763 -1.50056,3.56381 -3.18868,6.94006 -0.37514,0.18757 -0.75028,0.46892 -0.37514,0.28136 -0.84406,0.37514 -0.46892,0.0938 -0.84406,0.0938 -0.37514,0 -0.93785,0 l -1.87569,-0.93785 q -0.18757,-0.37514 -0.46892,-0.65649 -0.28136,-0.28135 -0.28136,-0.75028 0,-0.46892 -0.18757,-0.84406 -0.18756,-0.37514 -0.18756,-0.75028 1.31298,-3.56381 2.81353,-7.22141 1.50056,-3.6576 3.18868,-7.22142 1.68812,-3.56382 3.00111,-7.22142 1.31298,-3.6576 2.4384,-7.40898 -1.50055,0 -3.09489,0 -1.59434,0 -3.0949,0 -1.50055,0 -2.90732,-0.18757 -1.40677,-0.18757 -2.90732,-0.18757 -0.37514,0.37514 -0.84406,0.46892 -0.46893,0.0938 -0.93785,0.28136 -0.46892,0.18757 -0.93785,0.18757 -0.46892,0 -1.03163,0 v 4.12652 l 0.56271,8.06548 -0.93785,1.87569 -0.93784,0.37514 v 0.37514 q -0.56271,0.56271 -1.31299,0.75027 -0.75027,0.18757 -1.68812,0.18757 -0.93785,0 -1.68812,0 -0.75028,0 -1.68813,0 -0.93784,-0.37513 -1.96947,-0.46892 -1.03164,-0.0938 -2.15705,-0.0938 -1.12542,0 -2.15705,0 -1.03163,0 -2.15704,0 -1.12542,0.18757 -2.34462,0.18757 -1.2192,0 -2.34462,0 -1.12541,0 -2.15704,0.46892 -1.03163,0.46892 -2.34462,0.28135 l -1.87569,-0.93784 q -0.18757,-0.37514 -0.46892,-0.75028 -0.28136,-0.37514 -0.37514,-0.75028 -0.0938,-0.37514 -0.18757,-0.84406 -0.0938,-0.46892 -0.0938,-0.84406 0.75028,-5.43951 1.31299,-10.9728 0.56271,-5.5333 0.84406,-11.16037 0.28135,-5.62708 1.12542,-11.06659 0.84406,-5.43951 2.34461,-10.69145 0.56271,-0.37514 1.12542,-0.75028 0.56271,-0.37513 1.12541,-0.65649 0.56271,-0.28135 1.31299,-0.28135 0.75027,0 1.50055,0 1.87569,0.18757 3.84517,0.18757 1.96948,0 3.93896,0.0938 1.96947,0.0938 3.75138,0.46893 1.78191,0.37513 3.28246,1.31298 1.31299,2.62597 1.2192,5.81465 -0.0938,3.18867 0.18757,6.18978 0.28136,3.00111 0.46893,6.096 0.18757,3.0949 0.37513,6.096 h 0.37514 q 0.56271,-0.37513 1.31299,-0.5627 0.75027,-0.18757 1.40677,-0.37514 0.65649,-0.18757 1.50055,-0.18757 0.84406,0 1.59434,0 1.31298,0.18757 2.62597,0.28135 1.31298,0.0938 2.62597,0.0938 1.31298,0 2.81354,0 1.50055,0 2.81354,0 l 1.68812,-0.18757 q 0.37514,-1.50056 0.65649,-3.09489 0.28136,-1.59434 0.56271,-3.18868 0.28135,-1.59434 0.75028,-3.00111 0.46892,-1.40677 1.03163,-2.90732 h -1.50056 l -1.87569,0.18757 q -1.68812,-0.37514 -3.56381,-0.46893 -1.8757,-0.0938 -3.6576,-0.18757 -1.78191,-0.0938 -3.65761,0 -1.87569,0.0938 -3.18867,-1.03163 -0.18757,-0.37514 -0.46893,-0.75027 -0.28135,-0.37514 -0.37513,-0.84407 -0.0938,-0.46892 -0.0938,-0.84406 0,-0.37514 0,-0.93784 l 1.12542,-2.06327 q 0.37514,-0.18757 0.84406,-0.5627 0.46892,-0.37514 0.93784,-0.46893 0.46893,-0.0938 0.93785,-0.0938 0.46892,0 1.03163,0 l 11.81687,0.93784 q 1.12541,-0.18756 2.34461,-0.28135 1.2192,-0.0938 2.53219,-0.0938 1.31298,0 2.53218,0 1.2192,0 2.53219,0 1.87569,0.37513 3.93895,0.5627 2.06326,0.18757 3.93896,0.46893 1.87569,0.28135 3.93895,0.37514 2.06326,0.0938 3.75138,1.03163 0.18757,0.37513 0.46893,0.75027 0.28135,0.37514 0.37514,0.84407 0.0938,0.46892 0.0938,0.84406 0,0.37514 0,0.93784 l -0.93785,1.8757 q -0.5627,0.37513 -1.31298,0.65649 -0.75028,0.28135 -1.40677,0.37514 -0.65649,0.0938 -1.50055,0.0938 -0.84407,0 -1.59434,0 -1.12542,-0.37514 -2.4384,-0.56271 -1.31299,-0.18757 -2.53219,-0.37514 -1.2192,-0.18756 -2.53218,-0.18756 -1.31299,0 -2.62597,-0.37514 -0.18757,1.68812 -0.93785,3.09489 -0.75028,1.40677 -1.2192,3.00111 -0.46892,1.59434 -0.75028,3.18868 -0.28135,1.59433 -0.46892,3.28246 l 13.88013,0.56271 4.12652,-0.18757 q 1.31298,0.18757 2.62597,0.18757 1.31298,0 2.62597,0.28135 1.31298,0.28135 2.62597,0.28135 1.31298,0 2.25083,0.93785 0.18757,0.37514 0.46892,0.75028 0.28136,0.37513 0.37514,0.84406 0.0938,0.46892 0.0938,0.84406 0,0.37514 0,0.93785 l -0.93785,1.87569 q -0.56271,0.37514 -1.03163,0.65649 -0.46892,0.28136 -1.12542,0.37514 -0.65649,0.0938 -1.2192,0.0938 -0.5627,0 -1.31298,0 -0.93785,-0.37513 -2.15705,-0.37513 -1.2192,0 -2.4384,-0.0938 -1.2192,-0.0938 -2.34461,-0.0938 -1.12542,0 -2.4384,0 l -1.31299,0.18757 -8.81575,-0.37514 v 0.56271 q 2.62597,3.56381 4.68923,7.40898 2.06326,3.84517 4.31409,7.50277 2.25083,3.6576 4.97059,7.22142 2.71975,3.56381 3.47003,7.87791 l -0.93785,1.87569 q -0.37514,0.18757 -0.65649,0.37514 -0.28136,0.18757 -0.65649,0.37514 -0.37514,0.18757 -0.75028,0.18757 -0.37514,0 -0.75028,0.18756 z M 164.7379,184.47312 v -0.56271 q -0.18757,-4.12652 -0.46892,-8.34683 -0.28136,-4.22031 -0.56271,-8.5344 -0.28136,-4.31409 -0.56271,-8.44062 -0.28135,-4.12652 -0.46892,-8.44061 l -7.50277,-0.18757 -0.56271,0.18757 q -0.18757,4.31409 -1.03163,8.44061 -0.84406,4.12653 -0.84406,8.53441 0,4.40787 -0.56271,8.5344 -0.56271,4.12652 -0.93785,8.44061 h 4.12653 l 6.75249,-0.18757 z m 40.13982,-37.13871 -1.87569,-0.93785 q -0.18757,-0.37514 -0.46892,-0.84406 -0.28136,-0.46892 -0.37514,-0.93785 -0.0938,-0.46892 -0.0938,-0.93784 0,-0.46892 0,-1.03163 0.56271,-1.8757 1.50056,-3.6576 0.93784,-1.78191 1.68812,-3.6576 0.75028,-1.8757 1.50055,-3.75139 0.75028,-1.87569 1.8757,-3.56381 0.37514,-0.18757 0.75027,-0.46893 0.37514,-0.28135 0.84407,-0.37514 0.46892,-0.0938 0.84406,-0.0938 0.37514,0 0.93784,0 l 1.8757,0.93785 q 0.18757,0.37513 0.46892,0.75027 0.28135,0.37514 0.37514,0.84406 0.0938,0.46893 0.0938,0.93785 0,0.46892 0,1.03163 -0.75027,1.87569 -1.59434,3.6576 -0.84406,1.78191 -1.59434,3.6576 -0.75027,1.87569 -1.59433,3.6576 -0.84407,1.78191 -1.59434,3.6576 -0.37514,0.18757 -0.75028,0.46893 -0.37514,0.28135 -0.84406,0.46892 -0.46892,0.18757 -0.93785,0.18757 -0.46892,0 -1.03163,0 z m -18.75692,-1.50056 -2.06327,-0.93784 q -0.93784,-1.87569 -1.96947,-3.75139 -1.03163,-1.87569 -1.78191,-3.84517 -0.75028,-1.96947 -1.31299,-3.93895 -0.5627,-1.96948 -0.75027,-4.22031 l 0.93784,-1.87569 q 0.37514,-0.18757 0.75028,-0.46893 0.37514,-0.28135 0.84406,-0.37513 0.46892,-0.0938 0.84406,-0.0938 0.37514,0 0.93785,0 l 1.87569,0.93785 q 1.50056,1.68812 1.78191,3.84517 0.28135,2.15704 1.2192,4.03274 0.93785,1.87569 1.96948,3.75138 1.03163,1.87569 1.03163,4.12653 l -0.93785,1.87569 q -0.37514,0.18757 -0.75027,0.46892 -0.37514,0.28136 -0.84407,0.37514 -0.46892,0.0938 -0.84406,0.0938 -0.37514,0 -0.93784,0 z" />
      </g>
      <g
         id="text4649"
         style="font-style:normal;font-variant:normal;font-weight:normal;font-stretch:normal;font-size:50.79999924px;line-height:14.25;font-family:uzura_font;-inkscape-font-specification:uzura_font;letter-spacing:0px;word-spacing:0px;fill:#fa58f4;fill-opacity:1;stroke:#ffffff;stroke-width:1.5;stroke-miterlimit:4;stroke-dasharray:none;stroke-dashoffset:0;stroke-opacity:1;filter:url(#filter4661)"
         transform="matrix(0.970299,0,0,0.970299,5.0199009,10.408326)"
         aria-label="ふぁんねっと">
        <path
           id="path861"
           style="font-style:normal;font-variant:normal;font-weight:normal;font-stretch:normal;font-size:50.79999924px;line-height:14.25;font-family:uzura_font;-inkscape-font-specification:uzura_font;fill:#fa58f4;fill-opacity:1;stroke:#ffffff;stroke-width:1.5;stroke-miterlimit:4;stroke-dasharray:none;stroke-dashoffset:0;stroke-opacity:1"
           d="m 15.421429,254.60524 q -0.79375,-0.0992 -1.5875,-0.14883 -0.79375,-0.0496 -1.53789,-0.34727 -0.744141,-0.29765 -1.438672,-0.64492 -0.694531,-0.34726 -1.2898438,-0.84336 -0.099219,-0.19844 -0.2976562,-0.44648 -0.1984375,-0.24805 -0.2480469,-0.4961 -0.049609,-0.24804 -0.049609,-0.49609 0,-0.24805 0,-0.5457 l 0.4960938,-0.99219 q 0.1984375,-0.0992 0.396875,-0.24805 0.1984375,-0.14883 0.4464845,-0.19843 0.248047,-0.0496 0.496094,-0.0496 0.248046,0 0.545703,0 l 0.992187,0.49609 0.694531,0.59531 q 0.396875,0.0992 0.744141,0.24805 0.347266,0.14883 0.744141,0.14883 0.396875,0 0.79375,0.0496 0.396875,0.0496 0.79375,0.0496 0.496093,-0.29766 0.942578,-0.59532 0.446484,-0.29765 0.843359,-0.74414 0.396875,-0.44648 0.892969,-0.84336 0.496094,-0.39687 0.694531,-0.89297 l 0.198438,-1.19062 q -0.09922,-1.78594 -0.644922,-3.42305 -0.545703,-1.63711 -1.736328,-2.97656 -1.190625,-1.33945 -2.331641,-2.72852 -1.141016,-1.38906 -1.240234,-3.27421 0.694531,-1.28985 1.686718,-2.48047 0.992188,-1.19063 1.736328,-2.48047 0.744141,-1.28985 1.5875,-2.57969 0.84336,-1.28984 1.240235,-2.67891 -1.091406,0 -2.083594,-0.44648 -0.992187,-0.44648 -2.083594,-0.5457 -1.091406,-0.0992 -2.133203,-0.34727 -1.041797,-0.24805 -2.133203,-0.24805 l -0.992187,0.0992 -0.9921878,-0.49609 q -0.099219,-0.19844 -0.2480468,-0.39688 -0.1488282,-0.19843 -0.1984375,-0.44648 -0.049609,-0.24805 -0.049609,-0.44648 0,-0.19844 0,-0.4961 l 0.4960937,-0.99219 q 0.2976563,-0.29765 0.6945308,-0.44648 0.396875,-0.14883 0.84336,-0.19844 0.446484,-0.0496 0.892969,-0.0496 0.446484,0 0.942578,0 1.289843,0.39688 2.728515,0.4961 1.438672,0.0992 2.728516,0.59531 1.289844,0.49609 2.678906,0.74414 1.389063,0.24805 2.480469,1.14102 v 0.19843 h 0.198437 q 0.09922,0.29766 0.248047,0.54571 0.148828,0.24804 0.198438,0.5457 0.04961,0.29766 0.04961,0.59531 0,0.29766 0,0.59531 -0.496094,1.48829 -1.141016,2.92696 -0.644921,1.43867 -1.53789,2.77812 -0.892969,1.33946 -1.736328,2.6293 -0.84336,1.28984 -1.835547,2.67891 1.190625,1.48828 2.38125,2.77812 1.190625,1.28984 1.934765,2.87734 0.744141,1.5875 0.942579,3.32383 0.198437,1.73633 0.297656,3.52227 -0.09922,0.49609 -0.248047,0.94258 -0.148828,0.44648 -0.297656,0.94257 -0.148828,0.4961 -0.446485,0.89297 -0.297656,0.39688 -0.595312,0.79375 l -1.785938,1.78594 q -0.595312,0.29766 -1.141015,0.74414 -0.545703,0.44649 -1.091407,0.69453 -0.545703,0.24805 -1.190624,0.34727 -0.644922,0.0992 -1.339454,0.0992 z M 2.1261171,252.12477 q -0.1984375,-0.0992 -0.3472656,-0.14883 -0.1488281,-0.0496 -0.3472656,-0.0992 -0.1984375,-0.0496 -0.3472657,-0.14883 -0.14882809,-0.0992 -0.34726558,-0.19843 -0.0992188,-0.19844 -0.24804688,-0.39688 -0.14882812,-0.19844 -0.19843749,-0.44648 -0.0496094,-0.24805 -0.0496094,-0.4961 0,-0.24804 0,-0.5457 0.49609375,-1.48828 0.74414062,-3.12539 0.24804691,-1.63711 0.59531251,-3.22461 0.3472656,-1.5875 0.5953125,-3.22461 0.2480468,-1.63711 1.0417968,-3.02617 0.1984375,-0.0992 0.396875,-0.24805 0.1984375,-0.14883 0.4464844,-0.19844 0.2480469,-0.0496 0.4464844,-0.0496 0.1984375,0 0.4960937,0 l 0.9921875,0.4961 q 0.099219,0.19844 0.2480469,0.39687 0.1488281,0.19844 0.1984375,0.44649 0.049609,0.24804 0.049609,0.49609 0,0.24805 0,0.5457 -0.4960937,1.48829 -0.79375,3.07579 -0.2976562,1.5875 -0.6449218,3.22461 -0.3472656,1.6371 -0.5457031,3.2246 -0.1984375,1.5875 -0.8929688,3.07579 -0.1984375,0.0992 -0.3472656,0.19843 -0.1488281,0.0992 -0.3472656,0.19844 -0.1984375,0.0992 -0.396875,0.0992 -0.1984375,0 -0.396875,0.0992 z m 33.2382809,-0.79375 -0.992188,-0.4961 q -0.694531,-1.5875 -1.190625,-3.12539 -0.496093,-1.53789 -0.942578,-3.12539 -0.446484,-1.5875 -1.041797,-3.12539 -0.595312,-1.53789 -0.892968,-3.22461 l 0.496093,-0.99218 q 0.198438,-0.0992 0.396875,-0.24805 0.198438,-0.14883 0.446485,-0.19844 0.248047,-0.0496 0.446484,-0.0496 0.198438,0 0.496094,0 l 0.992187,0.4961 q 0.892969,1.48828 1.389063,3.07578 0.496094,1.5875 0.942578,3.12539 0.446484,1.53789 1.041797,3.12539 0.595312,1.5875 0.694531,3.27422 l -0.496094,0.99218 q -0.198437,0.0992 -0.396875,0.24805 -0.198437,0.14883 -0.446484,0.19844 -0.248047,0.0496 -0.446484,0.0496 -0.198438,0 -0.496094,0 z" />
        <path
           id="path863"
           style="font-style:normal;font-variant:normal;font-weight:normal;font-stretch:normal;font-size:50.79999924px;line-height:14.25;font-family:uzura_font;-inkscape-font-specification:uzura_font;fill:#fa58f4;fill-opacity:1;stroke:#ffffff;stroke-width:1.5;stroke-miterlimit:4;stroke-dasharray:none;stroke-dashoffset:0;stroke-opacity:1"
           d="m 67.312835,254.20836 -0.992188,-0.49609 q -0.09922,-0.19844 -0.248046,-0.39688 -0.148829,-0.19843 -0.198438,-0.44648 -0.04961,-0.24805 -0.09922,-0.44649 -0.04961,-0.19843 -0.04961,-0.49609 h -0.198438 q -0.496093,0.0992 -0.942578,0.19844 -0.446484,0.0992 -0.942578,0.14883 -0.496094,0.0496 -1.041797,0.0496 -0.545703,0 -1.041797,0 -0.496093,-0.0992 -0.942578,-0.24805 -0.446484,-0.14883 -0.843359,-0.4961 -0.396875,-0.34726 -0.79375,-0.64492 -0.396875,-0.29765 -0.79375,-0.69453 -0.396875,-0.49609 -0.79375,-1.04179 -0.396875,-0.54571 -0.545703,-1.19063 -0.148828,-0.64492 -0.248047,-1.33945 -0.09922,-0.69453 -0.09922,-1.38907 0.198438,-0.69453 0.297657,-1.38906 0.09922,-0.69453 0.496093,-1.28984 0.396875,-0.59531 0.79375,-1.19063 0.396875,-0.59531 0.992188,-1.0914 0.694531,-0.59532 1.5875,-0.99219 0.892968,-0.39688 1.785937,-0.64492 0.892969,-0.24805 1.785938,-0.4961 0.892968,-0.24804 1.885156,-0.24804 l 0.09922,-4.16719 q -1.091407,0 -2.133203,-0.0496 -1.041797,-0.0496 -2.083594,-0.0992 -1.041797,-0.0496 -2.083594,-0.14883 -1.041797,-0.0992 -1.934765,-0.59531 -0.09922,-0.19844 -0.248047,-0.39687 -0.148828,-0.19844 -0.198438,-0.44649 -0.04961,-0.24805 -0.04961,-0.44648 0,-0.19844 0,-0.4961 l 0.496094,-0.99218 q 0.297656,-0.19844 0.644921,-0.34727 0.347266,-0.14883 0.744141,-0.14883 0.396875,0 0.79375,0 0.396875,0 0.79375,0 0.595312,0.19844 1.289844,0.19844 0.694531,0 1.389062,0.0496 0.694531,0.0496 1.389063,0.0496 0.694531,0 1.389062,0 0,-0.69453 0,-1.38906 0,-0.69454 0,-1.38907 0,-0.69453 0.198438,-1.28984 0.198437,-0.59531 0.595312,-1.09141 0.198438,-0.0992 0.396875,-0.24804 0.198438,-0.14883 0.446484,-0.19844 0.248047,-0.0496 0.446485,-0.0496 0.198437,0 0.496094,0 l 1.091406,0.49609 q 0.09922,0.19844 0.248047,0.39688 0.148828,0.19844 0.198437,0.44648 0.04961,0.24805 0.04961,0.4961 0,0.24804 0,0.5457 -0.198438,0.39687 -0.198438,0.84336 0,0.44648 0,0.94258 0,0.49609 0,0.94258 0,0.44648 0,0.94257 1.091406,0.19844 2.282031,0.29766 1.190625,0.0992 2.282032,0.34727 1.091406,0.24804 2.33164,0.19843 1.240234,-0.0496 2.133203,0.64492 0.09922,0.19844 0.248047,0.39688 0.148828,0.19844 0.248047,0.44648 0.09922,0.24805 0.09922,0.4961 0,0.24804 0,0.5457 l -0.496094,0.99219 q -0.198438,0.0992 -0.396875,0.24805 -0.198438,0.14882 -0.446484,0.19843 -0.248047,0.0496 -0.446485,0.0496 -0.198437,0 -0.496094,0 -0.992187,-0.0992 -1.934765,-0.24804 -0.942578,-0.14883 -1.835547,-0.29766 -0.892969,-0.14883 -1.885156,-0.19844 -0.992188,-0.0496 -1.984375,-0.14883 v 3.77032 l 3.373437,0.69453 q 0.09922,-0.39688 0.248047,-0.69453 0.148828,-0.29766 0.198438,-0.69454 0.04961,-0.39687 0.248047,-0.69453 0.198437,-0.29765 0.396875,-0.59531 0.198437,-0.0992 0.396875,-0.29766 0.198437,-0.19843 0.446484,-0.24804 0.248047,-0.0496 0.446484,-0.0496 0.198438,0 0.496094,0 l 0.992187,0.59531 q 0.09922,0.19844 0.248047,0.39688 0.148828,0.19843 0.198438,0.44648 0.04961,0.24805 0.04961,0.49609 0,0.24805 0,0.54571 l -0.892969,3.175 1.686719,1.88515 q 0.297656,0.59532 0.446485,1.19063 0.148828,0.59531 0.248046,1.24023 0.09922,0.64492 0.09922,1.28985 0,0.64492 0,1.33945 -0.198437,0.59531 -0.248047,1.19062 -0.04961,0.59532 -0.297656,1.14102 -0.248047,0.5457 -0.446484,1.09141 -0.198438,0.5457 -0.496094,1.04179 -0.198438,0.0992 -0.396875,0.24805 -0.198438,0.14883 -0.446484,0.24805 -0.248047,0.0992 -0.496094,0.0992 -0.248047,0 -0.545703,0 l -0.992188,-0.4961 q -0.09922,-0.19844 -0.248047,-0.34726 -0.148828,-0.14883 -0.148828,-0.39688 0,-0.24805 -0.09922,-0.44648 -0.09922,-0.19844 -0.09922,-0.39688 0.09922,-0.59531 0.396875,-1.19062 0.297656,-0.59532 0.496093,-1.24024 0.198438,-0.64492 0.198438,-1.33945 0,-0.69453 0,-1.38906 l -0.694531,-1.09141 q -0.396875,0.79375 -0.992188,1.53789 -0.595312,0.74414 -1.289843,1.48828 -0.694532,0.74414 -1.438672,1.33946 -0.744141,0.59531 -1.438672,1.28984 0,0.39687 0,0.84336 0,0.44648 0,0.89297 0,0.44648 -0.09922,0.84336 -0.09922,0.39687 -0.496094,0.69453 -0.198437,0.0992 -0.396875,0.24804 -0.198437,0.14883 -0.446484,0.19844 -0.248047,0.0496 -0.446484,0.0496 -0.198438,0 -0.496094,0 z m -1.686719,-6.35 v -1.68672 l 0.198438,-4.36562 h -0.396875 q -0.496094,0.19844 -1.041797,0.39687 -0.545703,0.19844 -1.091406,0.29766 -0.545704,0.0992 -1.091407,0.39687 -0.545703,0.29766 -0.942578,0.69454 -0.198437,0.29765 -0.446484,0.59531 -0.248047,0.29765 -0.347266,0.69453 -0.09922,0.39687 -0.09922,0.79375 0,0.39687 0,0.79375 0.198438,0.19844 0.248047,0.44648 0.04961,0.24805 0.198438,0.44649 0.148828,0.19844 0.347265,0.39687 0.198438,0.19844 0.396875,0.39688 0.198438,0.19844 0.446485,0.24805 0.248047,0.0496 0.545703,0.0496 0.297656,0 0.545703,0 0.248047,0 0.545703,0 z m 4.266406,-2.77812 q 0.297657,-0.29766 0.545703,-0.59532 0.248047,-0.29765 0.446485,-0.64492 0.198437,-0.34726 0.496094,-0.69453 0.297656,-0.34726 0.297656,-0.74414 l -1.885156,-0.49609 -0.09922,3.175 0.09922,0.0992 z" />
        <path
           id="path865"
           style="font-style:normal;font-variant:normal;font-weight:normal;font-stretch:normal;font-size:50.79999924px;line-height:14.25;font-family:uzura_font;-inkscape-font-specification:uzura_font;fill:#fa58f4;fill-opacity:1;stroke:#ffffff;stroke-width:1.5;stroke-miterlimit:4;stroke-dasharray:none;stroke-dashoffset:0;stroke-opacity:1"
           d="m 130.51518,254.4068 q -0.69453,-0.19844 -1.33946,-0.34727 -0.64492,-0.14882 -1.19062,-0.49609 -0.5457,-0.34727 -1.09141,-0.84336 -0.5457,-0.49609 -1.04179,-0.99219 -0.89297,-1.19062 -1.43868,-2.48047 -0.5457,-1.28984 -0.74414,-2.77812 -0.19843,-1.48828 -0.64492,-2.87734 -0.44648,-1.38907 -1.43867,-2.48047 -0.49609,-0.39688 -1.0418,-0.74414 -0.5457,-0.34727 -1.0914,-0.54571 -0.54571,-0.19843 -1.14102,-0.29765 -0.59531,-0.0992 -1.28984,0 -0.59531,0.19843 -1.19063,0.19843 -0.59531,0 -1.0914,0.29766 -0.4961,0.29766 -0.99219,0.64492 -0.49609,0.34727 -0.99219,0.74414 -0.49609,1.48828 -0.99219,3.02618 -0.49609,1.53789 -1.0914,2.97656 -0.59531,1.43867 -0.99219,3.02617 -0.39687,1.5875 -1.09141,2.97656 -0.19843,0.0992 -0.39687,0.24805 -0.19844,0.14883 -0.44649,0.19844 -0.24804,0.0496 -0.49609,0.0496 -0.24805,0 -0.5457,0 l -0.99219,-0.4961 q -0.0992,-0.19844 -0.24805,-0.39687 -0.14882,-0.19844 -0.19843,-0.44649 -0.0496,-0.24804 -0.0496,-0.44648 0,-0.19844 0,-0.4961 1.28984,-3.96875 2.62929,-7.88789 1.33946,-3.91914 2.57969,-7.9375 1.24024,-4.01836 2.77813,-7.88789 1.53789,-3.86953 2.92695,-7.73906 0.19844,-0.0992 0.39687,-0.24805 0.19844,-0.14882 0.44649,-0.19843 0.24805,-0.0496 0.44648,-0.0496 0.19844,0 0.4961,0 l 0.99218,0.49609 q 0.0992,0.19844 0.24805,0.44649 0.14883,0.24804 0.19844,0.5457 0.0496,0.29765 0.0496,0.59531 0,0.29766 0,0.59531 -0.39688,1.78594 -1.09141,3.42305 -0.69453,1.63711 -1.38906,3.27422 -0.69453,1.63711 -1.24024,3.27422 -0.5457,1.63711 -1.04179,3.52226 h 1.48828 q 0.29766,-0.0992 0.64492,-0.19843 0.34727,-0.0992 0.69453,-0.0992 0.34727,0 0.64492,0 0.29766,0 0.69454,0 0.59531,0.29765 1.28984,0.39687 0.69453,0.0992 1.24023,0.39688 0.54571,0.29765 1.09141,0.64492 0.5457,0.34726 1.0418,0.64492 v 0.19844 l 0.89297,0.49609 v 0.19844 h 0.19843 q 0.99219,1.28984 1.68672,2.6293 0.69453,1.33945 0.89297,2.92695 0.19844,1.5875 0.64492,3.07578 0.44649,1.48828 1.63711,2.67891 0.29766,0.19843 0.59531,0.34726 0.29766,0.14883 0.59532,0.24805 0.29765,0.0992 0.59531,0.0992 0.29766,0 0.69453,0 0.19844,-0.19844 0.49609,-0.19844 0.29766,0 0.54571,-0.14883 0.24804,-0.14883 0.49609,-0.29765 0.24805,-0.14883 0.44649,-0.34727 l 1.19062,-2.08359 q 0.19844,-0.0992 0.39688,-0.24805 0.19843,-0.14883 0.44648,-0.24805 0.24805,-0.0992 0.49609,-0.0992 0.24805,0 0.54571,0 l 0.99218,0.4961 q 0.0992,0.19844 0.24805,0.39687 0.14883,0.19844 0.19844,0.44649 0.0496,0.24804 0.0496,0.49609 0,0.24805 0,0.5457 -0.19844,0.39688 -0.39688,0.84336 -0.19843,0.44649 -0.44648,0.84336 -0.24805,0.39688 -0.5457,0.79375 -0.29766,0.39688 -0.4961,0.79375 h -0.19844 v 0.19844 q -0.69453,0.39688 -1.33945,0.74414 -0.64492,0.34727 -1.38906,0.59531 -0.74414,0.24805 -1.48828,0.34727 -0.74414,0.0992 -1.63711,0 z" />
        <path
           id="path867"
           style="font-style:normal;font-variant:normal;font-weight:normal;font-stretch:normal;font-size:50.79999924px;line-height:14.25;font-family:uzura_font;-inkscape-font-specification:uzura_font;fill:#fa58f4;fill-opacity:1;stroke:#ffffff;stroke-width:1.5;stroke-miterlimit:4;stroke-dasharray:none;stroke-dashoffset:0;stroke-opacity:1"
           d="m 161.96752,255.69664 -0.99219,-0.49609 q -0.69453,-1.28984 -0.59531,-2.87734 0.0992,-1.5875 -0.0496,-3.07579 -0.14883,-1.48828 -0.14883,-3.02617 0,-1.53789 0,-3.12539 h -0.19844 l -1.88515,3.27422 q -0.19844,0.0992 -0.39688,0.24805 -0.19844,0.14883 -0.44648,0.19844 -0.24805,0.0496 -0.44649,0.0496 -0.19844,0 -0.49609,0 l -0.99219,-0.49609 q -0.0992,-0.19844 -0.24805,-0.39687 -0.14882,-0.19844 -0.19843,-0.44649 -0.0496,-0.24805 -0.0496,-0.49609 0,-0.24805 0,-0.54571 0.59531,-1.38906 1.43867,-2.6789 0.84336,-1.28985 1.68672,-2.6293 0.84336,-1.33945 1.73633,-2.6293 0.89296,-1.28984 0.49609,-3.07578 -0.0992,-0.59531 -0.14883,-1.14101 -0.0496,-0.54571 -0.0496,-1.14102 0,-0.59531 0,-1.19062 0,-0.59532 0,-1.19063 h -1.0914 l -3.96875,0.39688 -0.99219,-0.4961 q -0.0992,-0.19843 -0.24805,-0.39687 -0.14883,-0.19844 -0.19844,-0.44649 -0.0496,-0.24804 -0.0496,-0.44648 0,-0.19844 0,-0.49609 l 0.4961,-0.99219 q 0.59531,-0.4961 1.43867,-0.5457 0.84336,-0.0496 1.63711,-0.14883 0.79375,-0.0992 1.5875,-0.19844 0.79375,-0.0992 1.5875,-0.19844 v -0.29765 l -0.0992,-0.79375 0.19844,-4.46485 -0.0992,-1.28984 q 0.0992,-0.19844 0.14883,-0.34727 0.0496,-0.14883 0.0992,-0.34726 0.0496,-0.19844 0.14882,-0.34727 0.0992,-0.14883 0.19844,-0.34726 0.19844,-0.0992 0.39688,-0.24805 0.19843,-0.14883 0.44648,-0.19844 0.24805,-0.0496 0.44649,-0.0496 0.19843,0 0.49609,0 l 0.99219,0.4961 q 0.39687,0.39687 0.44648,0.94257 0.0496,0.54571 0.0496,1.09141 0,0.5457 0.0992,1.0418 0.0992,0.49609 0,1.0914 l -0.19844,3.6711 q 0.29766,0.19843 0.79375,0.19843 0.4961,0 0.94258,0 0.44648,0 0.84336,0.0992 0.39687,0.0992 0.69453,0.39688 0.0992,0.19844 0.24805,0.39687 0.14883,0.19844 0.19844,0.44649 0.0496,0.24804 0.0496,0.44648 0,0.19844 0,0.4961 l -0.49609,0.99218 q -0.29766,0.29766 -0.74414,0.39688 -0.44648,0.0992 -0.84336,0.14883 -0.39687,0.0496 -0.84336,0.0496 -0.44648,0 -0.94258,0 v 3.67109 l 0.39688,0.0992 q 1.48828,-0.99219 3.12539,-1.68672 1.63711,-0.69453 3.42305,-1.19063 1.78593,-0.49609 3.57187,-0.74414 1.78594,-0.24804 3.67109,-0.24804 1.28985,0.0992 2.53008,0.34726 1.24024,0.24805 2.28203,0.84336 1.0418,0.59531 2.0836,1.38906 1.04179,0.79375 1.93476,1.78594 l 0.4961,0.4961 q 0.49609,0.69453 0.79375,1.48828 0.29765,0.79375 0.49609,1.68672 0.19844,0.89296 0.34727,1.73632 0.14882,0.84336 0.24804,1.73633 0.4961,0.19844 1.09141,0.29766 0.59531,0.0992 1.09141,0.29765 0.49609,0.19844 0.99218,0.4961 0.4961,0.29765 0.99219,0.59531 0.0992,0.19844 0.24805,0.39688 0.14883,0.19843 0.24804,0.44648 0.0992,0.24805 0.0992,0.49609 0,0.24805 0,0.54571 l -0.49609,0.99218 q -0.19844,0.0992 -0.39688,0.24805 -0.19843,0.14883 -0.44648,0.19844 -0.24805,0.0496 -0.49609,0.0496 -0.24805,0 -0.54571,0 l -2.28203,-0.99219 q 0.0992,1.28984 -0.19844,2.38125 -0.29765,1.09141 -0.74414,2.1332 -0.44648,1.0418 -1.04179,2.03399 -0.59532,0.99219 -1.5875,1.78594 -0.79375,0.59531 -1.63711,0.89296 -0.84336,0.29766 -1.73633,0.4961 -0.89297,0.19844 -1.88516,0.29765 -0.99218,0.0992 -1.98437,0.0992 -0.59531,-0.19843 -1.24024,-0.34726 -0.64492,-0.14883 -1.19062,-0.44649 -0.5457,-0.29765 -1.09141,-0.59531 -0.5457,-0.29766 -1.04179,-0.89297 -0.39688,-0.49609 -0.69454,-1.0914 -0.29765,-0.59532 -0.49609,-1.19063 -0.19844,-0.59531 -0.29766,-1.24023 -0.0992,-0.64493 -0.0992,-1.33946 0.19843,-0.59531 0.29765,-1.19062 0.0992,-0.59531 0.24805,-1.19063 0.14883,-0.59531 0.49609,-1.14101 0.34727,-0.54571 0.74414,-1.0418 1.19063,-0.99219 2.43086,-1.68672 1.24024,-0.69453 2.67891,-0.94258 1.43867,-0.24804 2.92695,-0.39687 1.48828,-0.14883 3.07578,-0.0496 v -0.39688 q -0.0992,-0.69453 -0.29765,-1.33945 -0.19844,-0.64492 -0.44649,-1.33945 -0.24804,-0.69453 -0.79375,-1.19063 -0.5457,-0.49609 -1.04179,-0.99218 -0.79375,-0.39688 -1.48829,-0.89297 -0.69453,-0.4961 -1.5875,-0.64492 -0.89296,-0.14883 -1.83554,-0.19844 -0.94258,-0.0496 -1.83555,-0.0496 -1.68672,0.0992 -3.175,0.5457 -1.48828,0.44649 -3.07578,1.0418 -1.5875,0.59531 -2.97656,1.43867 -1.38907,0.84336 -2.57969,2.03398 l -0.0992,0.0992 v 10.21953 l 0.19844,6.54844 -0.4961,0.99219 q -0.19843,0.0992 -0.39687,0.24805 -0.19844,0.14882 -0.44648,0.19843 -0.24805,0.0496 -0.44649,0.0496 -0.19844,0 -0.49609,0 z m 21.43125,-6.44922 q 0.59531,-0.59531 0.94257,-1.33945 0.34727,-0.74414 0.69454,-1.43867 0.34726,-0.69453 0.39687,-1.53789 0.0496,-0.84336 0.14883,-1.73633 h -3.27422 q -0.69453,0.0992 -1.43867,0.24805 -0.74414,0.14883 -1.43867,0.29765 -0.69453,0.14883 -1.28985,0.54571 -0.59531,0.39687 -1.19062,0.89297 -0.19844,0.29765 -0.34727,0.64492 -0.14883,0.34726 -0.19843,0.69453 -0.0496,0.34726 -0.0992,0.69453 -0.0496,0.34727 -0.0496,0.74414 l 0.59531,1.38906 q 0.39687,0.0992 0.74414,0.34727 0.34727,0.24805 0.74414,0.39687 0.39688,0.14883 0.84336,0.14883 0.44648,0 0.94258,0 0.39687,-0.0992 0.84336,-0.14883 0.44648,-0.0496 0.84336,-0.19843 0.39687,-0.14883 0.79375,-0.29766 0.39687,-0.14883 0.79375,-0.34727 z" />
        <path
           id="path869"
           style="font-style:normal;font-variant:normal;font-weight:normal;font-stretch:normal;font-size:50.79999924px;line-height:14.25;font-family:uzura_font;-inkscape-font-specification:uzura_font;fill:#fa58f4;fill-opacity:1;stroke:#ffffff;stroke-width:1.5;stroke-miterlimit:4;stroke-dasharray:none;stroke-dashoffset:0;stroke-opacity:1"
           d="m 228.34486,253.51383 -0.99218,-0.49609 q -0.0992,-0.19844 -0.24805,-0.39688 -0.14883,-0.19844 -0.19844,-0.44648 -0.0496,-0.24805 -0.0496,-0.4961 0,-0.24804 0,-0.5457 l 0.4961,-0.99219 0.69453,-0.69453 2.38125,-2.28203 q 0.0992,-0.59531 0.29765,-1.19062 0.19844,-0.59532 0.19844,-1.28985 0,-0.69453 0,-1.33945 0,-0.64492 0,-1.33945 -0.19844,-0.29766 -0.24805,-0.59532 -0.0496,-0.29765 -0.24804,-0.5457 -0.19844,-0.24805 -0.34727,-0.49609 -0.14883,-0.24805 -0.44648,-0.44649 -1.09141,-0.69453 -2.33164,-1.14101 -1.24024,-0.44649 -2.6293,-0.4961 -1.38906,-0.0496 -2.82773,-0.0496 -1.43868,0 -2.82774,0 -1.0914,0 -2.18281,0.14883 -1.09141,0.14883 -2.1332,0.39688 -1.0418,0.24804 -2.0836,0.44648 -1.04179,0.19844 -2.1332,0.29766 l -0.99219,-0.4961 q -0.0992,-0.19843 -0.24805,-0.39687 -0.14882,-0.19844 -0.19843,-0.44649 -0.0496,-0.24804 -0.0496,-0.44648 0,-0.19844 0,-0.49609 l 0.49609,-0.99219 q 1.68672,-0.79375 3.52227,-1.19063 1.83554,-0.39687 3.67109,-0.59531 1.83555,-0.19844 3.81992,-0.19844 1.98438,0 3.96875,0 1.09141,0.0992 2.23242,0.29766 1.14102,0.19844 2.13321,0.5457 0.99218,0.34727 1.93476,0.94258 0.94258,0.59531 1.83555,1.38906 0.69453,0.79375 1.24023,1.63711 0.54571,0.84336 0.74414,1.83555 0.19844,0.99219 0.19844,2.03398 0,1.0418 0,2.13321 -0.19844,0.89297 -0.34726,1.78593 -0.14883,0.89297 -0.39688,1.73633 -0.24805,0.84336 -0.94258,1.48828 -0.69453,0.64493 -1.38906,1.33946 l -1.09141,1.0914 -0.49609,0.4961 q -0.19844,0.0992 -0.39687,0.24804 -0.19844,0.14883 -0.44649,0.19844 -0.24805,0.0496 -0.44648,0.0496 -0.19844,0 -0.4961,0 z" />
        <path
           id="path871"
           style="font-style:normal;font-variant:normal;font-weight:normal;font-stretch:normal;font-size:50.79999924px;line-height:14.25;font-family:uzura_font;-inkscape-font-specification:uzura_font;fill:#fa58f4;fill-opacity:1;stroke:#ffffff;stroke-width:1.5;stroke-miterlimit:4;stroke-dasharray:none;stroke-dashoffset:0;stroke-opacity:1"
           d="m 273.29096,254.70446 q -1.09141,-0.19844 -2.23242,-0.29766 -1.14102,-0.0992 -2.08359,-0.49609 -0.94258,-0.39688 -1.83555,-0.99219 -0.89297,-0.59531 -1.68672,-1.38906 -0.79375,-0.89297 -1.28984,-1.88516 -0.4961,-0.99219 -0.74414,-2.08359 -0.24805,-1.09141 -0.44649,-2.23243 -0.19844,-1.14101 -0.19844,-2.33164 0.0992,-1.0914 0.4961,-2.03398 0.39687,-0.94258 0.99218,-1.78594 0.59532,-0.84336 1.24024,-1.68672 0.64492,-0.84336 1.14101,-1.73633 -1.19062,-1.88515 -2.1332,-3.86953 -0.94258,-1.98437 -1.73633,-3.96875 -0.79375,-1.98437 -1.5875,-3.96875 -0.79375,-1.98437 -1.19062,-4.16718 l 0.49609,-0.99219 q 0.19844,-0.0992 0.39688,-0.24805 0.19843,-0.14883 0.44648,-0.19844 0.24805,-0.0496 0.44649,-0.0496 0.19843,0 0.49609,0 l 0.99219,0.4961 q 0.89297,1.68672 1.53789,3.52226 0.64492,1.83555 1.38906,3.62149 0.74414,1.78594 1.53789,3.52226 0.79375,1.73633 1.68672,3.52227 l 0.39687,0.0992 q 1.48829,-1.09141 3.12539,-1.98438 1.63711,-0.89297 3.37344,-1.53789 1.73633,-0.64492 3.47266,-1.24023 1.73633,-0.59531 3.7207,-0.39688 l 0.99219,0.4961 q 0.0992,0.19843 0.24805,0.39687 0.14882,0.19844 0.19843,0.44649 0.0496,0.24804 0.0496,0.44648 0,0.19844 0,0.49609 l -0.49609,0.99219 q -1.78594,0.39688 -3.62149,0.94258 -1.83554,0.5457 -3.57187,1.24023 -1.73633,0.69454 -3.37344,1.73633 -1.63711,1.0418 -3.22461,2.13321 l -0.0992,0.19843 q -0.59531,0.4961 -1.0914,1.14102 -0.4961,0.64492 -0.99219,1.28984 -0.49609,0.64492 -0.89297,1.28985 -0.39687,0.64492 -0.79375,1.33945 l -0.19844,1.5875 q 0.0992,0.69453 0.19844,1.38906 0.0992,0.69453 0.34727,1.33946 0.24804,0.64492 0.5457,1.28984 0.29766,0.64492 0.89297,1.14101 0.89297,0.79375 1.98437,1.14102 1.09141,0.34727 2.38125,0.39687 1.28985,0.0496 2.53008,0.0496 1.24024,0 2.43086,0 0.89297,-0.39687 1.88516,-0.34726 0.99219,0.0496 1.93476,-0.14883 0.94258,-0.19844 1.73633,-0.74414 0.79375,-0.5457 1.88516,-0.44648 l 0.99219,0.49609 q 0.0992,0.19844 0.24804,0.39687 0.14883,0.19844 0.19844,0.44649 0.0496,0.24805 0.0496,0.49609 0,0.24805 0,0.54571 l -0.49609,0.99218 q -1.38907,0.99219 -2.97657,1.38907 -1.5875,0.39687 -3.27422,0.49609 -1.68671,0.0992 -3.37343,0.24805 -1.68672,0.14882 -3.47266,0.0496 z" />
      </g>
      <g
         id="text4677"
         style="font-style:normal;font-variant:normal;font-weight:normal;font-stretch:normal;font-size:25.39999962px;line-height:1.25;font-family:Jiyucho;-inkscape-font-specification:Jiyucho;letter-spacing:0px;word-spacing:0px;fill:#fa58f4;fill-opacity:1;stroke:#ffffff;stroke-width:1.39999998;stroke-miterlimit:4;stroke-dasharray:none;stroke-opacity:1"
         aria-label="kimisaki-fan.net">
        <path
           id="path874"
           style="font-style:normal;font-variant:normal;font-weight:normal;font-stretch:normal;font-size:25.39999962px;font-family:Jiyucho;-inkscape-font-specification:Jiyucho;fill:#fa58f4;fill-opacity:1;stroke:#ffffff;stroke-width:1.39999998;stroke-miterlimit:4;stroke-dasharray:none;stroke-opacity:1"
           d="m 60.223417,289.05779 -1.016992,-0.49609 -2.480469,-6.47402 -0.297656,-0.0992 -0.595313,0.69453 v 5.38262 l -0.297656,0.59531 q -0.892969,0.49609 -1.984375,0.39687 l -0.917774,-0.39687 -0.297656,-0.59531 v -20.53828 l 0.297656,-0.59532 q 0.917774,-0.49609 2.00918,-0.39687 l 0.892969,0.39687 0.297656,0.59532 v 10.0707 h 0.198438 l 0.992187,-1.09141 h 0.198438 l 1.785937,-2.30683 q 0.917774,-0.4961 2.00918,-0.39688 l 0.892968,0.39688 q 0.396875,0.71933 0.297657,1.6123 l -1.488282,2.08359 -1.215429,1.19063 v 0.39687 q 0.818555,2.00918 1.711523,4.192 0.892969,2.18281 1.289844,4.39043 l -0.297656,0.59531 q -0.892969,0.49609 -1.984375,0.39687 z" />
        <path
           id="path876"
           style="font-style:normal;font-variant:normal;font-weight:normal;font-stretch:normal;font-size:25.39999962px;font-family:Jiyucho;-inkscape-font-specification:Jiyucho;fill:#fa58f4;fill-opacity:1;stroke:#ffffff;stroke-width:1.39999998;stroke-miterlimit:4;stroke-dasharray:none;stroke-opacity:1"
           d="m 69.425956,289.05779 -0.892969,-0.39687 q -0.595313,-2.00918 -0.496094,-4.29121 v -9.54981 l 0.297656,-0.59531 q 0.892969,-0.5209 1.984375,-0.42168 l 0.892969,0.42168 0.297656,0.59531 v 8.65684 l 0.198438,4.58887 -0.297656,0.59531 q -0.892969,0.49609 -1.984375,0.39687 z m -0.272852,-17.14003 -0.892969,-0.39688 q -0.396875,-0.69453 -0.297656,-1.5875 l 0.297656,-0.59531 q 0.892969,-0.4961 2.00918,-0.39688 l 0.892969,0.39688 q 0.396875,0.69453 0.297656,1.5875 l -0.297656,0.59531 q -0.892969,0.49609 -2.00918,0.39688 z" />
        <path
           id="path878"
           style="font-style:normal;font-variant:normal;font-weight:normal;font-stretch:normal;font-size:25.39999962px;font-family:Jiyucho;-inkscape-font-specification:Jiyucho;fill:#fa58f4;fill-opacity:1;stroke:#ffffff;stroke-width:1.39999998;stroke-miterlimit:4;stroke-dasharray:none;stroke-opacity:1"
           d="m 78.033182,289.05779 q -0.694531,-0.29765 -0.992187,-0.99218 l -0.198438,-1.31465 v -3.86953 l -0.09922,-0.0992 v -7.56543 l 0.595313,-1.11621 q 0.496094,-0.39688 1.289844,-0.29766 l 1.116211,0.69453 2.282031,-0.69453 1.190625,0.62012 q 1.289843,-0.91777 3.100586,-0.62012 0.992187,0.4961 1.389062,1.51309 0.396875,0.89297 0.496094,1.88515 v 10.86446 q -0.297656,0.69453 -0.992188,0.99218 h -0.79375 q -0.694531,-0.29765 -1.016992,-0.99218 l -0.09922,-0.39688 v -10.0707 q 0,-0.59531 -0.396875,-0.79375 l -0.297656,0.0992 -0.595312,0.89297 v 10.26914 q -0.297657,0.69453 -0.992188,0.99218 h -0.79375 q -0.79375,-0.39687 -1.091406,-1.19062 V 276.9035 h -0.297656 l -1.190625,0.99218 v 4.48965 l 0.09922,0.0992 v 3.77031 l 0.09922,1.81075 q -0.297656,0.69453 -1.016992,0.99218 z" />
        <path
           id="path880"
           style="font-style:normal;font-variant:normal;font-weight:normal;font-stretch:normal;font-size:25.39999962px;font-family:Jiyucho;-inkscape-font-specification:Jiyucho;fill:#fa58f4;fill-opacity:1;stroke:#ffffff;stroke-width:1.39999998;stroke-miterlimit:4;stroke-dasharray:none;stroke-opacity:1"
           d="m 94.825954,289.05779 -0.892968,-0.39687 q -0.595313,-2.00918 -0.496094,-4.29121 v -9.54981 l 0.297656,-0.59531 q 0.892969,-0.5209 1.984375,-0.42168 l 0.892969,0.42168 0.297656,0.59531 v 8.65684 l 0.198438,4.58887 -0.297657,0.59531 q -0.892968,0.49609 -1.984375,0.39687 z m -0.272851,-17.14003 -0.892969,-0.39688 q -0.396875,-0.69453 -0.297656,-1.5875 l 0.297656,-0.59531 q 0.892969,-0.4961 2.00918,-0.39688 l 0.892968,0.39688 q 0.396875,0.69453 0.297657,1.5875 l -0.297657,0.59531 q -0.892968,0.49609 -2.009179,0.39688 z" />
        <path
           id="path882"
           style="font-style:normal;font-variant:normal;font-weight:normal;font-stretch:normal;font-size:25.39999962px;font-family:Jiyucho;-inkscape-font-specification:Jiyucho;fill:#fa58f4;fill-opacity:1;stroke:#ffffff;stroke-width:1.39999998;stroke-miterlimit:4;stroke-dasharray:none;stroke-opacity:1"
           d="m 106.93064,288.95858 q -2.28203,-0.29766 -4.09277,-1.90997 -0.89297,-0.89296 -0.69453,-2.18281 l 0.29765,-0.59531 q 0.89297,-0.49609 2.00918,-0.39688 l 0.99219,0.4961 q 0.4961,0.89297 1.38906,1.38906 l 1.38907,0.29766 1.28984,-0.59532 q 0.39688,-0.49609 0.29766,-1.19062 l -0.79375,-1.38906 q -1.28985,-0.69453 -2.72852,-0.99219 -1.43867,-0.29766 -2.6541,-1.31465 -1.19063,-1.48828 -0.79375,-3.57187 l 1.09141,-1.88516 q 2.00918,-1.6123 4.7873,-1.21543 2.30684,0.39688 4.19199,2.00918 0.39688,0.59531 0.29766,1.48828 l -0.29766,0.59531 q -0.99219,0.59532 -2.18281,0.39688 -1.51309,-1.09141 -3.29902,-1.48828 -0.89297,0.39687 -1.09141,1.28984 1.38906,0.99219 2.97656,1.28984 1.61231,0.29766 2.90215,1.51309 0.79375,0.99219 0.99219,2.28203 0.19844,1.28985 0.0992,2.67891 l -0.89297,1.71152 q -1.09141,0.89297 -2.50527,1.14102 -1.38907,0.24804 -2.97657,0.14883 z" />
        <path
           id="path884"
           style="font-style:normal;font-variant:normal;font-weight:normal;font-stretch:normal;font-size:25.39999962px;font-family:Jiyucho;-inkscape-font-specification:Jiyucho;fill:#fa58f4;fill-opacity:1;stroke:#ffffff;stroke-width:1.39999998;stroke-miterlimit:4;stroke-dasharray:none;stroke-opacity:1"
           d="m 118.63846,289.05779 q -1.61231,-0.29765 -2.90215,-1.38906 -1.19063,-1.6123 -0.89297,-3.79512 0.0992,-2.18281 1.68672,-4.09277 1.21543,-0.89297 2.75332,-0.89297 1.53789,0 3.12539,0 v -0.49609 l -0.4961,-1.28985 -1.48828,-0.39687 q -2.18281,0.49609 -4.48965,0.59531 l -0.89296,-0.39687 q -0.39688,-0.59532 -0.29766,-1.48828 l 0.29766,-0.59532 q 1.68671,-0.62011 3.47265,-0.86816 1.81074,-0.24805 3.79512,-0.14883 1.6123,0.39688 2.90215,1.61231 0.69453,1.19062 0.69453,2.72851 0,1.53789 0,3.05098 l -0.0992,0.0992 v 3.86953 q 0.49609,1.38906 0.69453,2.90215 l -0.29765,0.59531 q -0.89297,0.49609 -2.0836,0.39687 l -0.91777,-0.39687 q -2.0836,0.59531 -4.56406,0.39687 z m 3.27421,-3.29902 0.39688,-0.29766 v -3.37343 q -1.19063,-0.4961 -2.57969,-0.29766 -0.69453,0.39688 -0.99219,1.19063 -0.39687,0.79375 -0.29765,2.18281 l 0.99219,0.89297 1.19062,0.0992 z" />
        <path
           id="path886"
           style="font-style:normal;font-variant:normal;font-weight:normal;font-stretch:normal;font-size:25.39999962px;font-family:Jiyucho;-inkscape-font-specification:Jiyucho;fill:#fa58f4;fill-opacity:1;stroke:#ffffff;stroke-width:1.39999998;stroke-miterlimit:4;stroke-dasharray:none;stroke-opacity:1"
           d="m 136.42341,289.05779 -1.01699,-0.49609 -2.48047,-6.47402 -0.29765,-0.0992 -0.59532,0.69453 v 5.38262 l -0.29765,0.59531 q -0.89297,0.49609 -1.98438,0.39687 l -0.91777,-0.39687 -0.29766,-0.59531 v -20.53828 l 0.29766,-0.59532 q 0.91777,-0.49609 2.00918,-0.39687 l 0.89297,0.39687 0.29765,0.59532 v 10.0707 h 0.19844 l 0.99219,-1.09141 h 0.19844 l 1.78593,-2.30683 q 0.91778,-0.4961 2.00918,-0.39688 l 0.89297,0.39688 q 0.39688,0.71933 0.29766,1.6123 l -1.48828,2.08359 -1.21543,1.19063 v 0.39687 q 0.81855,2.00918 1.71152,4.192 0.89297,2.18281 1.28984,4.39043 l -0.29765,0.59531 q -0.89297,0.49609 -1.98438,0.39687 z" />
        <path
           id="path888"
           style="font-style:normal;font-variant:normal;font-weight:normal;font-stretch:normal;font-size:25.39999962px;font-family:Jiyucho;-inkscape-font-specification:Jiyucho;fill:#fa58f4;fill-opacity:1;stroke:#ffffff;stroke-width:1.39999998;stroke-miterlimit:4;stroke-dasharray:none;stroke-opacity:1"
           d="m 145.62596,289.05779 -0.89297,-0.39687 q -0.59531,-2.00918 -0.4961,-4.29121 v -9.54981 l 0.29766,-0.59531 q 0.89297,-0.5209 1.98438,-0.42168 l 0.89296,0.42168 0.29766,0.59531 v 8.65684 l 0.19844,4.58887 -0.29766,0.59531 q -0.89297,0.49609 -1.98437,0.39687 z m -0.27285,-17.14003 -0.89297,-0.39688 q -0.39688,-0.69453 -0.29766,-1.5875 l 0.29766,-0.59531 q 0.89297,-0.4961 2.00918,-0.39688 l 0.89297,0.39688 q 0.39687,0.69453 0.29765,1.5875 l -0.29765,0.59531 q -0.89297,0.49609 -2.00918,0.39688 z" />
        <path
           id="path890"
           style="font-style:normal;font-variant:normal;font-weight:normal;font-stretch:normal;font-size:25.39999962px;font-family:Jiyucho;-inkscape-font-specification:Jiyucho;fill:#fa58f4;fill-opacity:1;stroke:#ffffff;stroke-width:1.39999998;stroke-miterlimit:4;stroke-dasharray:none;stroke-opacity:1"
           d="m 154.03474,279.18553 -0.89297,-0.39688 q -0.39687,-0.59531 -0.29765,-1.48828 l 0.29765,-0.59531 0.89297,-0.39688 h 7.56543 1.61231 l 0.89297,0.39688 q 0.39687,0.59531 0.29765,1.48828 l -0.39687,0.69453 -1.19063,0.29766 z" />
        <path
           id="path892"
           style="font-style:normal;font-variant:normal;font-weight:normal;font-stretch:normal;font-size:25.39999962px;font-family:Jiyucho;-inkscape-font-specification:Jiyucho;fill:#fa58f4;fill-opacity:1;stroke:#ffffff;stroke-width:1.39999998;stroke-miterlimit:4;stroke-dasharray:none;stroke-opacity:1"
           d="m 170.7283,289.05779 -0.89297,-0.39687 -0.29766,-0.59531 V 276.9035 h -0.89297 l -2.20762,0.0992 -0.89296,-0.39688 q -0.39688,-0.59531 -0.29766,-1.48828 l 0.29766,-0.59531 q 1.78593,-0.59531 3.89433,-0.4961 v -3.69589 q 0.19844,-1.38907 1.09141,-2.50528 1.78594,-1.28984 4.19199,-0.99219 0.99219,0.19844 1.68672,0.99219 0.99219,1.11621 0.79375,2.80293 l -0.29766,0.59531 q -0.89297,0.4961 -1.98437,0.39688 l -0.91778,-0.39688 -0.39687,-1.19062 h -0.19844 q -0.49609,1.09141 -0.49609,2.08359 0,0.99219 0,1.90996 2.20761,-0.22324 4.09277,0.39688 0.39688,0.59531 0.29766,1.48828 l -0.29766,0.59531 q -1.78594,0.59531 -3.99355,0.39688 v 9.74824 l 0.0992,1.21543 -0.39688,0.79375 q -0.89297,0.49609 -1.98437,0.39687 z" />
        <path
           id="path894"
           style="font-style:normal;font-variant:normal;font-weight:normal;font-stretch:normal;font-size:25.39999962px;font-family:Jiyucho;-inkscape-font-specification:Jiyucho;fill:#fa58f4;fill-opacity:1;stroke:#ffffff;stroke-width:1.39999998;stroke-miterlimit:4;stroke-dasharray:none;stroke-opacity:1"
           d="m 182.13846,289.05779 q -1.61231,-0.29765 -2.90215,-1.38906 -1.19063,-1.6123 -0.89297,-3.79512 0.0992,-2.18281 1.68672,-4.09277 1.21543,-0.89297 2.75332,-0.89297 1.53789,0 3.12539,0 v -0.49609 l -0.4961,-1.28985 -1.48828,-0.39687 q -2.18281,0.49609 -4.48965,0.59531 l -0.89296,-0.39687 q -0.39688,-0.59532 -0.29766,-1.48828 l 0.29766,-0.59532 q 1.68671,-0.62011 3.47265,-0.86816 1.81074,-0.24805 3.79512,-0.14883 1.6123,0.39688 2.90215,1.61231 0.69453,1.19062 0.69453,2.72851 0,1.53789 0,3.05098 l -0.0992,0.0992 v 3.86953 q 0.49609,1.38906 0.69453,2.90215 l -0.29765,0.59531 q -0.89297,0.49609 -2.0836,0.39687 l -0.91777,-0.39687 q -2.0836,0.59531 -4.56406,0.39687 z m 3.27421,-3.29902 0.39688,-0.29766 v -3.37343 q -1.19063,-0.4961 -2.57969,-0.29766 -0.69453,0.39688 -0.99219,1.19063 -0.39687,0.79375 -0.29765,2.18281 l 0.99219,0.89297 1.19062,0.0992 z" />
        <path
           id="path896"
           style="font-style:normal;font-variant:normal;font-weight:normal;font-stretch:normal;font-size:25.39999962px;font-family:Jiyucho;-inkscape-font-specification:Jiyucho;fill:#fa58f4;fill-opacity:1;stroke:#ffffff;stroke-width:1.39999998;stroke-miterlimit:4;stroke-dasharray:none;stroke-opacity:1"
           d="m 192.33318,289.05779 -0.89297,-0.39687 -0.29766,-0.59531 v -8.58243 l 0.0992,-0.0992 v -4.58887 l 0.29766,-0.59531 q 0.89297,-0.4961 2.00918,-0.39688 l 0.89297,0.39688 0.0992,0.29765 h 0.19843 q 1.19063,-0.49609 2.53008,-0.64492 1.33946,-0.14883 2.85254,-0.0496 l 1.28984,0.69453 q 0.59532,1.01699 0.89297,2.20762 v 5.87871 l -0.0992,4.06797 0.0992,1.31465 -0.39687,0.69453 q -0.89297,0.49609 -1.98438,0.39687 l -0.91777,-0.39687 -0.29766,-0.59531 v -6.27559 l 0.0992,-0.0992 v -4.09277 l -0.19843,-0.79375 h -0.79375 l -3.07579,0.99219 -0.0992,2.57968 v 7.68946 l -0.29766,0.59531 q -0.89297,0.49609 -2.00918,0.39687 z" />
        <path
           id="path898"
           style="font-style:normal;font-variant:normal;font-weight:normal;font-stretch:normal;font-size:25.39999962px;font-family:Jiyucho;-inkscape-font-specification:Jiyucho;fill:#fa58f4;fill-opacity:1;stroke:#ffffff;stroke-width:1.39999998;stroke-miterlimit:4;stroke-dasharray:none;stroke-opacity:1"
           d="m 205.82693,288.76014 -1.19063,-0.59531 q -0.59531,-0.91778 -0.39687,-2.1084 l 0.39687,-0.69453 q 0.99219,-0.59532 2.30684,-0.39688 l 1.5875,0.59531 q 0.39687,0.79375 0.29765,1.78594 l -0.59531,1.01699 q -0.99219,0.59532 -2.40605,0.39688 z" />
        <path
           id="path900"
           style="font-style:normal;font-variant:normal;font-weight:normal;font-stretch:normal;font-size:25.39999962px;font-family:Jiyucho;-inkscape-font-specification:Jiyucho;fill:#fa58f4;fill-opacity:1;stroke:#ffffff;stroke-width:1.39999998;stroke-miterlimit:4;stroke-dasharray:none;stroke-opacity:1"
           d="m 217.73317,289.05779 -0.89297,-0.39687 -0.29765,-0.59531 v -8.58243 l 0.0992,-0.0992 v -4.58887 l 0.29765,-0.59531 q 0.89297,-0.4961 2.00918,-0.39688 l 0.89297,0.39688 0.0992,0.29765 h 0.19844 q 1.19062,-0.49609 2.53008,-0.64492 1.33945,-0.14883 2.85254,-0.0496 l 1.28984,0.69453 q 0.59531,1.01699 0.89297,2.20762 v 5.87871 l -0.0992,4.06797 0.0992,1.31465 -0.39688,0.69453 q -0.89297,0.49609 -1.98437,0.39687 l -0.91778,-0.39687 -0.29765,-0.59531 v -6.27559 l 0.0992,-0.0992 v -4.09277 l -0.19844,-0.79375 h -0.79375 l -3.07578,0.99219 -0.0992,2.57968 v 7.68946 l -0.29766,0.59531 q -0.89297,0.49609 -2.00918,0.39687 z" />
        <path
           id="path902"
           style="font-style:normal;font-variant:normal;font-weight:normal;font-stretch:normal;font-size:25.39999962px;font-family:Jiyucho;-inkscape-font-specification:Jiyucho;fill:#fa58f4;fill-opacity:1;stroke:#ffffff;stroke-width:1.39999998;stroke-miterlimit:4;stroke-dasharray:none;stroke-opacity:1"
           d="m 234.2283,289.05779 q -1.78593,-0.39687 -3.10058,-1.90996 -1.09141,-1.5875 -1.53789,-3.52226 -0.44649,-1.93477 -0.24805,-4.04317 0.39687,-2.77812 1.78594,-4.56406 1.81074,-1.6123 4.48965,-1.21543 2.08359,0.39688 3.79511,2.00918 1.28985,1.88516 0.89297,5.06016 l -0.29766,0.62011 q -1.5875,0.4961 -3.39824,0.54571 -1.78593,0.0496 -3.47265,0.34726 v 0.69453 q 0.49609,1.5875 1.78593,2.77813 l 0.99219,0.29766 0.99219,-0.59532 q 0.29766,-0.59531 0.89297,-0.89297 l 1.51308,-0.0992 0.89297,0.39687 q 0.39688,0.69453 0.29766,1.68672 -0.39688,0.79375 -1.19063,1.51309 -1.0914,0.69453 -2.40605,0.84335 -1.28984,0.14883 -2.67891,0.0496 z m 2.48047,-9.97148 v -0.79375 q -0.49609,-0.79375 -1.38906,-1.28984 l -0.79375,-0.19844 -0.99219,1.0914 -0.29765,1.38907 h 0.39687 z" />
        <path
           id="path904"
           style="font-style:normal;font-variant:normal;font-weight:normal;font-stretch:normal;font-size:25.39999962px;font-family:Jiyucho;-inkscape-font-specification:Jiyucho;fill:#fa58f4;fill-opacity:1;stroke:#ffffff;stroke-width:1.39999998;stroke-miterlimit:4;stroke-dasharray:none;stroke-opacity:1"
           d="m 246.82908,289.05779 -0.89297,-0.39687 -0.29765,-0.59531 v -5.7795 l -0.0992,-0.0992 v -5.2834 h -0.39688 l -2.50527,0.0992 -0.89297,-0.39688 q -0.39687,-0.59531 -0.29766,-1.48828 l 0.29766,-0.59531 q 1.78594,-0.4961 3.79512,-0.59531 -0.19844,-1.90997 0.39687,-4.09278 0.89297,-0.49609 1.98438,-0.39687 l 0.89297,0.39687 q 0.39687,0.79375 0.29765,1.78594 v 2.20762 q 1.81074,-0.19844 3.39824,0.49609 0.39688,0.59531 0.29766,1.48828 l -0.29766,0.59531 q -0.99218,0.59532 -2.30683,0.39688 l -1.19063,-0.0992 v 4.58887 l 0.0992,0.0992 v 5.35781 l 0.0992,1.11621 -0.39687,0.79375 q -0.89297,0.49609 -1.98438,0.39687 z" />
      </g>
    </g>
    <rect
       style="opacity:0.76200005;fill:#ffffff;fill-opacity:1;stroke:#ffffff;stroke-width:1.05739832;stroke-miterlimit:4;stroke-dasharray:none;stroke-dashoffset:0;stroke-opacity:1"
       id="rect902"
       width="296.34094"
       height="208.65045"
       x="-0.003800842"
       y="87.975365" />
    <g
       aria-label="no image"
       style="font-style:normal;font-variant:normal;font-weight:normal;font-stretch:normal;font-size:13.3049736px;line-height:1.25;font-family:cinecaption;-inkscape-font-specification:cinecaption;letter-spacing:0px;word-spacing:0px;fill:#000000;fill-opacity:1;stroke:none;stroke-width:1.33887839;stroke-miterlimit:4;stroke-dasharray:none"
       id="text2161"
       transform="matrix(0.99,0,0,0.99,7.5588076,1.9315282)">
      <g
         aria-label="BBS"
         style="font-style:normal;font-weight:normal;font-size:10.69023514px;line-height:1.25;font-family:sans-serif;letter-spacing:0px;word-spacing:0px;fill:#000000;fill-opacity:1;stroke:none;stroke-width:0.35782313"
         id="text896">
        <path
           d="m 104.23053,157.63223 q -2.08794,-1.67035 -2.29673,-1.77475 4.48906,-1.56595 9.08252,-6.36821 4.90665,-5.74182 4.90665,-12.73641 -0.93957,-10.43968 -12.63201,-16.70349 -11.588052,-6.36821 -33.511388,-4.17588 -3.967079,0.73078 -3.445095,4.48907 0.835174,3.54949 4.384667,3.44509 1.98354,-0.31319 2.609921,-0.31319 v 74.74814 q -0.939572,0 -3.340699,-0.41759 -3.549492,0 -4.071477,4.07148 -0.208793,3.0275 3.340699,3.86268 22.862907,3.1319 40.088382,-10.43968 6.47261,-5.84623 5.95062,-17.32988 -0.52198,-11.48365 -11.06606,-20.35738 z m -0.2088,-28.81353 q 3.96708,2.60992 3.96708,7.93416 0,4.38467 -3.2363,7.62097 -8.038554,6.89019 -23.384889,7.09898 v -28.29154 q 11.901239,-0.93957 22.654109,5.63743 z m -0.41758,61.48974 q -8.35175,7.41217 -22.236529,8.14295 v -38.94002 q 11.796842,0.20879 17.851859,4.48906 7.93416,6.47261 8.24735,14.51116 0.41759,7.93416 -3.86268,11.79685 z"
           style="font-style:normal;font-variant:normal;font-weight:normal;font-stretch:normal;font-size:106.90235901px;font-family:cinecaption;-inkscape-font-specification:cinecaption;stroke-width:0.35782313"
           id="path905" />
        <path
           d="m 157.68171,157.63223 q -2.08794,-1.67035 -2.29673,-1.77475 4.48906,-1.56595 9.08252,-6.36821 4.90665,-5.74182 4.90665,-12.73641 -0.93957,-10.43968 -12.63201,-16.70349 -11.58805,-6.36821 -33.51139,-4.17588 -3.96708,0.73078 -3.44509,4.48907 0.83517,3.54949 4.38466,3.44509 1.98354,-0.31319 2.60992,-0.31319 v 74.74814 q -0.93957,0 -3.34069,-0.41759 -3.5495,0 -4.07148,4.07148 -0.20879,3.0275 3.3407,3.86268 22.8629,3.1319 40.08838,-10.43968 6.47261,-5.84623 5.95062,-17.32988 -0.52198,-11.48365 -11.06606,-20.35738 z m -0.2088,-28.81353 q 3.96708,2.60992 3.96708,7.93416 0,4.38467 -3.2363,7.62097 -8.03855,6.89019 -23.38489,7.09898 v -28.29154 q 11.90124,-0.93957 22.65411,5.63743 z m -0.41758,61.48974 q -8.35175,7.41217 -22.23653,8.14295 v -38.94002 q 11.79684,0.20879 17.85186,4.48906 7.93416,6.47261 8.24735,14.51116 0.41759,7.93416 -3.86268,11.79685 z"
           style="font-style:normal;font-variant:normal;font-weight:normal;font-stretch:normal;font-size:106.90235901px;font-family:cinecaption;-inkscape-font-specification:cinecaption;stroke-width:0.35782313"
           id="path907" />
        <path
           d="m 217.3967,175.0665 q -5.84623,-14.30237 -19.10462,-19.9398 -13.2584,-5.63743 -15.24194,-10.02209 -1.87914,-4.38467 -0.83518,-8.66494 1.14837,-4.38467 4.38467,-8.14295 3.3407,-3.86269 9.29132,-4.28027 5.95062,-0.41759 9.8133,5.95062 3.96708,6.26381 3.2363,15.45073 -0.31319,3.44509 3.86269,3.75828 3.44509,0 3.86268,-3.75828 1.56595,-10.96167 -3.75829,-20.25299 -5.32424,-9.29132 -15.34633,-9.29132 -10.0221,0 -16.28591,5.32424 -6.26381,5.32424 -7.41217,16.39031 -1.14837,11.06606 6.15941,16.2859 7.30778,5.21984 16.28591,8.66494 8.97812,3.44509 13.88478,15.86832 3.44509,8.66494 -4.28027,15.55513 -7.72537,6.99458 -15.65953,3.1319 -7.93416,-3.86268 -7.93416,-10.96167 0,-7.09898 5.32424,-14.51116 2.19233,-3.1319 -0.62638,-5.21984 -3.54949,-2.40113 -5.74183,0.83518 -7.09898,9.8133 -6.4726,20.25298 0.62638,10.43969 12.73641,16.39031 12.11004,5.95062 23.69808,-3.75829 11.58805,-9.70891 6.15942,-25.05524 z"
           style="font-style:normal;font-variant:normal;font-weight:normal;font-stretch:normal;font-size:106.90235901px;font-family:cinecaption;-inkscape-font-specification:cinecaption;stroke-width:0.35782313"
           id="path909" />
      </g>
      <g
         aria-label="君咲ふぁんねっと
交流掲示板"
         style="font-style:normal;font-weight:normal;font-size:10.69023514px;line-height:1.25;font-family:sans-serif;letter-spacing:0px;word-spacing:0px;fill:#000000;fill-opacity:1;stroke:none;stroke-width:0.35782313"
         id="text900">
        <path
           d="m 47.006325,244.19961 -1.302872,-0.5011 q -0.501105,-1.60354 -0.300663,-3.53279 h -0.200442 l -1.302872,2.53058 q -1.202652,0.70154 -2.831242,0.5011 l -1.302873,-0.5011 q -0.400884,-0.70155 -0.300663,-1.62859 1.00221,-2.10464 2.10464,-4.10906 1.127486,-2.00442 2.129696,-4.0339 -1.503315,0.20044 -2.6308,-0.5011 -0.400884,-0.60133 -0.300663,-1.50332 l 0.300663,-0.60132 q 1.829032,-0.70155 4.033893,-0.50111 l 0.501105,-1.62859 H 40.66735 l -1.302873,-0.5011 q -0.400883,-0.60133 -0.300663,-1.50332 l 0.300663,-0.60132 1.302873,-0.50111 h 6.138533 l 0.501105,-1.9042 q -1.403093,-0.10022 -2.906408,-0.10022 -1.503314,0 -2.705965,-0.5011 -0.42594,-0.62638 -0.325719,-1.52837 l 0.325719,-0.60133 q 2.204861,-0.80176 4.910826,-0.5011 l 0.801768,0.10022 0.100221,-0.10022 h 7.36624 q 1.503315,0.10022 3.006629,0.15033 1.503314,0.0501 2.806187,0.55122 0.425939,2.12969 0.325718,4.43477 1.202651,-0.10022 2.10464,0.50111 0.400884,0.60132 0.300663,1.50331 l -0.300663,0.60133 q -1.00221,0.60132 -2.204861,0.5011 0.200442,2.33014 -0.425939,4.23434 -0.901989,0.5011 -1.904198,0.60132 h -4.434778 l -0.100221,-0.10022 h -5.211489 l -0.300663,1.10243 h 6.84008 l 0.100221,-0.10022 h 4.710385 l 1.528369,0.60133 0.400884,1.12748 v 7.24097 l -0.300663,0.60132 q -1.227706,0.70155 -2.831242,0.50111 l -1.10243,-0.40089 h -7.942511 q -1.202651,0.80177 -2.931463,0.60133 z m 10.372869,-3.73323 v -3.40751 H 56.97831 l -0.100221,0.10022 h -6.84008 v 0.90199 l 0.100221,2.4053 z m -1.202651,-10.54826 v -1.72881 h -1.202652 l -0.100221,0.10022 h -4.033893 l -0.601326,1.52837 h 5.336766 z m 0.100221,-4.83566 v -1.9042 l -3.733231,-0.10022 -0.801768,2.10464 h 1.603536 z"
           style="font-style:normal;font-variant:normal;font-weight:normal;font-stretch:normal;font-size:25.65656471px;font-family:Jiyucho;-inkscape-font-specification:Jiyucho;text-align:center;text-anchor:middle;stroke-width:0.35782313"
           id="path912" />
        <path
           d="m 76.195679,243.79873 -1.302873,-0.50111 q -0.400884,-0.70155 -0.300663,-1.70375 0.901989,-1.72882 1.603536,-3.5829 0.701546,-1.85409 1.202651,-3.78334 h -0.901989 l -1.803977,0.10022 v 3.1319 l 0.100221,1.9042 -0.300663,0.60132 q -1.127485,0.60133 -2.530579,0.60133 -1.403093,0 -2.806187,0 l -0.10022,0.30066 q -1.202652,0.72661 -2.831242,0.52616 l -1.302873,-0.52616 -0.300663,-0.60132 v -13.47972 l 0.100221,-0.10022 v -4.3095 l 0.400884,-0.7266 q 1.202651,-0.70155 2.831242,-0.50111 1.603535,0.40088 3.357402,0.40088 1.753867,0 3.182015,0.72661 0.501105,1.30287 0.300663,2.80618 h 0.501105 l 0.601326,-0.10022 v -0.40088 q -0.701547,-1.80398 -0.901989,-3.83345 l 0.300663,-0.60133 q 1.202651,-0.70155 2.806187,-0.5011 l 1.302872,0.5011 q 1.127486,1.92925 1.127486,4.33456 l -0.200442,0.60132 h 1.503314 l 0.200442,-0.10022 q 0,-1.40309 0.400884,-2.65585 0.400884,-1.27782 0.801768,-2.48047 1.302872,-0.70155 2.906407,-0.50111 l 1.327928,0.50111 q 0.400884,0.60132 0.300663,1.50331 l -0.901989,3.53279 1.403094,0.50111 q 0.400884,0.70154 0.300663,1.60353 l -0.300663,0.60133 q -2.029475,0.80176 -4.534998,0.5011 L 83.13598,231.221 h 0.701547 l 3.332346,-0.10022 1.302873,0.5011 q 0.400884,0.60133 0.300663,1.50331 l -0.300663,0.60133 q -1.904198,0.60133 -4.134115,0.70155 v 0.30066 q 1.403094,1.92925 2.806187,3.73323 1.428149,1.80398 1.829033,4.13411 l -0.300663,0.60133 q -1.202652,0.70155 -2.831242,0.50111 l -1.302873,-0.50111 q -0.701546,-1.20265 -1.503314,-2.4053 -0.801768,-1.22771 -1.603535,-2.43036 h -0.300663 q -0.400884,1.30287 -0.927044,2.53058 -0.501105,1.20265 -1.202652,2.4053 -1.202651,0.70155 -2.806186,0.50111 z m -6.238755,-6.33898 v -3.93367 l 0.100221,-0.10022 v -8.74428 h -0.601326 l -0.100221,3.00663 v 9.77154 z m 8.243174,-6.33897 v -0.30067 l 0.501105,-2.6308 -1.703757,-0.10022 -1.603535,0.10022 -0.601326,-0.10022 v 3.03169 z"
           style="font-style:normal;font-variant:normal;font-weight:normal;font-stretch:normal;font-size:25.65656471px;font-family:Jiyucho;-inkscape-font-specification:Jiyucho;text-align:center;text-anchor:middle;stroke-width:0.35782313"
           id="path914" />
        <path
           d="m 100.64959,243.1974 q -2.330135,-0.20044 -3.83345,-2.12969 -1.002209,-1.20266 -0.901988,-2.90641 l 0.300663,-0.60133 q 1.202651,-0.70154 2.806186,-0.5011 l 1.428149,0.60132 q 0.30066,1.10243 1.10243,1.9042 l 0.40088,0.10022 q 0.80177,-0.80177 0.70155,-2.00442 -0.10022,-1.60353 -0.45099,-3.15696 -0.35078,-1.57848 -1.25277,-2.88135 l -1.50331,-1.50331 -0.100221,-1.60354 q 0.701551,-1.32793 1.503311,-2.53058 0.80177,-1.20265 1.60354,-2.4053 h -2.705967 l -3.532788,0.10022 -1.302873,-0.50111 q -0.400884,-0.60132 -0.300663,-1.52836 l 0.300663,-0.60133 q 1.503314,-0.70155 3.307292,-0.60133 h 5.938096 q 2.12969,0.40089 4.13411,1.00221 0.40088,0.72661 0.30066,1.62859 -0.90199,1.50332 -2.02947,2.95652 -1.10243,1.45321 -2.00442,2.98158 1.92925,2.00441 2.43036,4.63521 0.5011,2.60575 0.40088,5.51216 -0.30066,1.70375 -1.60353,3.03168 -1.12749,0.70155 -2.43036,0.90199 -1.30287,0.20044 -2.70597,0.10022 z m -8.368448,-0.20044 -1.302872,-0.50111 q -0.501105,-0.70154 -0.400884,-1.72881 0.100221,-2.60574 0.300663,-5.16138 0.200442,-2.58069 0.901988,-4.98599 1.227707,-0.70155 2.831242,-0.5011 l 1.302873,0.5011 q 0.400884,0.80177 0.300663,1.9042 -0.501105,2.43036 -0.651437,4.93588 -0.150331,2.50552 -0.450994,5.0361 -1.202651,0.70155 -2.831242,0.50111 z m 18.716268,-0.10022 -1.30288,-0.50111 q -0.5011,-3.03168 -0.90199,-5.9882 -0.40088,-2.98157 -0.80176,-5.9882 l 0.30066,-0.60133 q 1.20265,-0.70154 2.80619,-0.5011 l 1.32792,0.5011 q 0.80177,2.80619 1.20266,5.83787 0.40088,3.00663 0.5011,6.13854 l -0.30066,0.60132 q -1.20265,0.70155 -2.83124,0.50111 z"
           style="font-style:normal;font-variant:normal;font-weight:normal;font-stretch:normal;font-size:25.65656471px;font-family:Jiyucho;-inkscape-font-specification:Jiyucho;text-align:center;text-anchor:middle;stroke-width:0.35782313"
           id="path916" />
        <path
           d="m 124.97823,243.39784 -1.30287,-0.30066 -2.50553,0.10022 -1.90419,-1.00221 q -1.22771,-1.82903 -0.92705,-4.13411 0.20044,-2.10464 2.02948,-3.63301 1.60353,-1.10243 3.40751,-1.80398 l 0.20044,-2.00442 h -2.00442 l -1.60353,0.10022 -0.90199,-0.40088 q -0.40089,-0.70155 -0.30066,-1.60354 l 0.30066,-0.62638 q 2.20486,-0.60132 4.8106,-0.40088 0,-1.80398 0.60133,-3.30729 1.02726,-0.60133 2.43036,-0.40089 l 0.90199,0.40089 q 0.40088,0.90198 0.30066,2.00442 l -0.20044,1.30287 h 1.20265 l 0.10022,-0.10022 h 5.63743 l 0.90199,0.40088 q 0.40088,0.62638 0.30066,1.52837 l -0.30066,0.60133 -0.90199,0.40088 h -4.13412 l -3.10685,0.20044 -0.10022,0.90199 2.90641,0.10022 q 1.12749,-1.00221 2.73102,-0.70155 l 0.90199,0.40089 q 0.40088,0.70155 0.40088,1.60353 1.50332,0.80177 2.40531,2.33014 0.5011,1.70376 0.30066,3.60796 -0.5011,2.20486 -2.10464,4.03389 -1.00221,0.60132 -2.4053,0.40088 l -0.90199,-0.40088 q -0.42594,-0.70155 -0.30066,-1.60354 1.70375,-1.82903 1.80397,-4.23433 l -0.90199,-1.00221 q -0.90198,1.40309 -2.22991,2.70596 l -2.60575,2.6308 h -0.20044 l -0.30066,1.50332 q -1.00221,0.60132 -2.43036,0.40088 z m -1.40309,-3.63301 0.10022,-3.00663 h -0.20044 q -1.4031,1.10243 -1.10243,2.90641 l 0.5011,0.40089 z m 4.23433,-3.70817 1.00221,-1.42815 h -0.80177 l -0.30066,0.10022 -0.10022,1.32793 0.10022,0.10022 z"
           style="font-style:normal;font-variant:normal;font-weight:normal;font-stretch:normal;font-size:25.65656471px;font-family:Jiyucho;-inkscape-font-specification:Jiyucho;text-align:center;text-anchor:middle;stroke-width:0.35782313"
           id="path918" />
        <path
           d="m 155.87134,243.09718 q -1.20265,-0.20044 -2.20486,-1.10243 -1.10243,-1.82903 -1.25276,-4.13412 -0.15034,-2.30508 -0.35078,-4.53499 h -0.20044 q -2.02947,2.02947 -3.33235,4.28444 -1.30287,2.25497 -2.20486,4.68533 -1.30287,0.70155 -2.93146,0.50111 l -1.30287,-0.50111 q -0.40089,-0.60132 -0.30067,-1.52837 1.4031,-5.21149 3.40752,-10.34781 2.02947,-5.13633 4.23433,-10.27265 1.22771,-0.70155 2.83124,-0.5011 l 1.30288,0.5011 q 0.40088,0.80177 0.30066,1.80398 -0.70155,1.72881 -1.55343,3.48268 -0.85187,1.75386 -1.35298,3.5829 h 0.40089 q 1.30287,-0.30067 2.70596,-0.20045 1.10243,0.20045 1.9042,1.00221 0.90199,2.10464 1.00221,4.63522 0.12528,2.50553 0.52616,4.91083 h 0.20044 q 1.20265,-1.40309 1.95431,-2.90641 0.75166,-1.50331 1.4532,-3.1319 1.30288,-0.70155 2.93147,-0.50111 l 1.30287,0.50111 q 0.40088,0.70154 0.30066,1.62859 -0.70154,1.60353 -1.52837,3.15696 -0.80177,1.55342 -1.80398,2.95652 -1.30287,1.2277 -2.9064,1.72881 -1.60354,0.5011 -3.53279,0.30066 z"
           style="font-style:normal;font-variant:normal;font-weight:normal;font-stretch:normal;font-size:25.65656471px;font-family:Jiyucho;-inkscape-font-specification:Jiyucho;text-align:center;text-anchor:middle;stroke-width:0.35782313"
           id="path920" />
        <path
           d="m 182.42989,243.89895 q -1.60354,-0.30067 -3.00663,-1.30288 -1.00221,-1.0022 -1.25276,-2.30508 -0.25055,-1.32792 -0.15033,-2.83124 0.30066,-1.20265 1.40309,-2.00442 1.40309,-0.92704 3.00663,-1.17759 1.62859,-0.25056 3.43257,-0.15034 v -2.10464 q -0.20044,-1.50331 -0.451,-3.00662 -0.25055,-1.52837 -1.15254,-2.73103 l -0.80177,-0.10022 q -2.22991,0.80177 -4.03389,2.53058 -1.50331,1.30288 -2.15475,2.95652 -0.65144,1.65365 -0.25055,3.78334 l 0.20044,7.14074 -0.30066,0.60133 q -1.22771,0.70155 -2.83124,0.50111 l -1.30288,-0.50111 q -0.5011,-1.50331 -0.30066,-3.33235 h -0.20044 l -0.30066,0.70155 q -1.20266,0.70155 -2.83125,0.50111 l -1.30287,-0.50111 q -0.40088,-0.70155 -0.30066,-1.70376 0.60132,-2.50552 1.15254,-5.11126 0.55121,-2.6308 1.27782,-5.13633 -1.42815,0.10022 -2.43036,-0.52616 -0.40089,-0.70155 -0.30066,-1.60353 l 0.30066,-0.60133 q 2.33014,-0.90199 4.73544,-1.40309 v -1.70376 l -0.10022,-2.12969 0.30066,-0.60133 q 1.20265,-0.70155 2.80619,-0.5011 l 1.32792,0.5011 q 0.60133,2.33014 0.40089,4.93588 h 0.30066 q 2.10464,-1.40309 4.50994,-1.9042 h 4.13412 q 1.40309,0.20045 2.50552,1.10243 1.12749,1.50332 1.52837,3.28224 0.40089,1.75387 0.60133,3.65807 v 5.73765 l 0.70154,0.90198 0.50111,0.30067 q 0.40088,0.70154 0.30066,1.60353 l -0.30066,0.60133 q -1.10243,0.60132 -2.50552,0.60132 -0.92705,1.82904 -2.73103,2.53058 -1.90419,0.70155 -4.13411,0.50111 z m 1.52837,-3.63301 q 1.10243,-1.00221 1.30287,-2.30508 l -1.20265,-0.60133 -1.30287,1.10243 v 0.50111 l 0.70154,1.30287 0.40089,0.10022 z"
           style="font-style:normal;font-variant:normal;font-weight:normal;font-stretch:normal;font-size:25.65656471px;font-family:Jiyucho;-inkscape-font-specification:Jiyucho;text-align:center;text-anchor:middle;stroke-width:0.35782313"
           id="path922" />
        <path
           d="m 206.3827,241.69409 -0.90198,-0.42594 q -0.40089,-0.70155 -0.30067,-1.60354 l 0.30067,-0.60132 q 1.20265,-0.60133 2.30508,-1.50332 1.12748,-0.90199 2.12969,-1.9042 0.90199,-1.12748 1.10243,-2.53058 -0.10022,-1.20265 -1.10243,-2.10464 -1.50331,-0.90198 -3.43256,-0.70154 -2.70597,0.40088 -5.28666,1.00221 -2.55563,0.60132 -5.2616,1.00221 l -0.92704,-0.40089 q -0.40089,-0.60132 -0.30067,-1.50331 l 0.40089,-0.70155 q 2.33013,-1.00221 4.83566,-1.40309 2.53058,-0.42594 5.0361,-0.92705 h 4.93588 q 2.20486,0.40089 3.90862,2.1297 0.80177,1.10243 1.00221,2.4053 0.2255,1.30288 0.12528,2.70597 -0.62639,2.02947 -2.1297,3.63301 -1.40309,1.20265 -2.90641,2.43036 -1.50331,1.20265 -3.53279,1.00221 z"
           style="font-style:normal;font-variant:normal;font-weight:normal;font-stretch:normal;font-size:25.65656471px;font-family:Jiyucho;-inkscape-font-specification:Jiyucho;text-align:center;text-anchor:middle;stroke-width:0.35782313"
           id="path924" />
        <path
           d="m 229.23307,243.29762 q -2.12969,-0.10022 -4.03389,-0.55121 -1.9042,-0.451 -3.50773,-1.87915 -1.32793,-1.60353 -0.92705,-4.00883 0.42594,-1.50332 1.32793,-2.75608 0.90199,-1.27782 1.70376,-2.58069 -0.40089,-2.70597 -0.75166,-5.41193 -0.35077,-2.73102 -0.451,-5.56227 l 0.30067,-0.60132 q 1.20265,-0.70155 2.80618,-0.50111 l 1.30288,0.50111 q 0.40088,2.22992 0.65143,4.48489 0.27561,2.25497 0.57627,4.48488 h 0.20044 q 2.50553,-1.02726 4.96094,-2.28002 2.48047,-1.25276 5.28666,-1.55343 l 1.30287,0.50111 q 0.42594,0.60132 0.30066,1.50331 l -0.40088,0.70155 q -3.00663,1.52837 -6.18864,2.83124 -3.15696,1.30287 -5.86293,3.50773 -1.82903,1.82904 -2.33014,4.13412 l 1.4031,1.30287 q 1.42814,0.40088 2.93146,0.50111 1.50331,0.10022 3.10685,0.10022 1.92925,-0.10022 3.5829,-0.65144 1.65364,-0.55121 3.55784,-0.55121 l 1.32793,0.5011 q 0.40088,0.60133 0.30066,1.50331 l -0.30066,0.62639 q -1.62859,0.70154 -3.38246,1.10243 -1.75387,0.40088 -3.55784,0.60132 z"
           style="font-style:normal;font-variant:normal;font-weight:normal;font-stretch:normal;font-size:25.65656471px;font-family:Jiyucho;-inkscape-font-specification:Jiyucho;text-align:center;text-anchor:middle;stroke-width:0.35782313"
           id="path926" />
        <path
           d="m 79.97902,275.96965 -1.327928,-0.5011 q -0.400884,-0.60133 -0.300663,-1.50332 l 0.400884,-0.7266 q 1.829032,-0.90199 3.532789,-2.10464 1.703756,-1.20265 3.407512,-2.4053 l 0.100221,-0.30066 -3.006629,-2.93147 h -0.300662 q -1.202652,0.80177 -2.931463,0.60133 l -1.302873,-0.50111 q -0.400884,-0.70154 -0.300663,-1.60353 0.601326,-1.30287 1.803978,-2.4053 l 0.325718,-0.10022 0.701546,-0.90199 1.00221,-0.72661 0.901989,-1.10243 q 1.202651,-0.70154 2.806186,-0.5011 l 1.327928,0.5011 q 0.400884,0.60133 0.300663,1.50332 -0.701547,1.02726 -1.327928,2.02947 l 3.432568,3.40752 h 0.300663 q 1.703756,-1.80398 2.705966,-3.90862 -1.00221,-0.80177 -0.801768,-2.1297 l 0.300663,-0.60132 q 1.227707,-0.70155 2.831242,-0.50111 l 1.403093,0.60133 q 1.202652,1.20265 2.555635,2.28002 1.378038,1.05232 2.380243,2.45542 l 0.10023,1.20265 -0.30067,0.60133 q -1.30287,0.70154 -2.931461,0.5011 l -1.302872,-0.5011 -0.701547,-0.60133 -2.405303,3.43257 q 1.904198,1.20265 3.758286,2.35519 1.854088,1.15254 3.883567,2.15475 0.40088,0.7266 0.30066,1.62859 l -0.30066,0.60133 q -1.202656,0.70154 -2.831247,0.5011 -2.305082,-0.80177 -4.434777,-2.1798 -2.10464,-1.35299 -4.309501,-2.45542 -2.204861,1.50332 -4.434777,3.15696 -2.204862,1.6787 -5.011048,1.6787 z m -0.225497,-18.4156 -1.302873,-0.5011 q -0.400884,-0.60133 -0.300663,-1.50332 l 0.300663,-0.60132 q 2.129695,-0.70155 4.534998,-0.60133 h 4.234336 q -0.100221,-1.42815 0.400884,-2.53058 1.202651,-0.70154 2.806186,-0.5011 l 1.302873,0.5011 q 0.501105,1.00221 0.300663,2.33014 h 4.434777 q 2.204861,0 4.134113,0.70155 0.40089,0.60132 0.30066,1.50331 l -0.30066,0.60133 q -1.829031,0.70154 -4.033892,0.5011 l -3.933673,-0.20044 -2.605744,0.20044 h -5.537208 l -0.100221,0.10022 z"
           style="font-style:normal;font-variant:normal;font-weight:normal;font-stretch:normal;font-size:25.65656471px;font-family:Jiyucho;-inkscape-font-specification:Jiyucho;text-align:center;text-anchor:middle;stroke-width:0.35782313"
           id="path928" />
        <path
           d="m 122.32237,275.56877 -1.50331,-0.60133 q -0.80177,-1.62859 -0.50111,-3.73323 l 0.10023,-0.10022 v -6.23875 l 0.30066,-0.60133 q 1.00221,-0.60132 2.4053,-0.40088 l 0.90199,0.40088 0.30066,0.60133 v 6.63964 h 0.50111 l 1.62859,-0.10022 0.90199,0.40088 q 0.40088,0.70155 0.30066,1.72881 l -0.60133,0.90199 q -1.90419,1.50331 -4.73544,1.10243 z m -11.57552,-0.10022 -0.90199,-0.40089 q -0.40088,-0.70154 -0.30066,-1.72881 0.60133,-2.10464 0.90199,-4.3095 0.30066,-2.22991 1.00221,-4.23433 1.02726,-0.60133 2.43036,-0.40089 l 0.90199,0.40089 q 0.40088,0.60132 0.30066,1.50331 -0.50111,2.22992 -0.85188,4.43478 -0.35077,2.20486 -1.05232,4.33455 -1.00221,0.60133 -2.43036,0.40089 z m -5.83787,-0.10022 -1.30287,-0.50111 q -0.40088,-0.70154 -0.30066,-1.62859 0.80176,-1.70375 1.25276,-3.50773 0.45099,-1.80398 1.07737,-3.53279 1.20266,-0.70155 2.80619,-0.5011 l 1.30287,0.5011 q 0.40089,0.82682 0.30067,1.82903 -0.50111,1.80398 -1.00221,3.50774 -0.50111,1.70375 -1.30288,3.33234 -1.20265,0.70155 -2.83124,0.50111 z m 11.57552,0 -0.90199,-0.40089 q -0.40088,-0.80176 -0.30066,-1.92925 0.10022,-2.20486 0.20044,-4.25939 0.10022,-2.07959 0.40089,-4.18423 1.00221,-0.60132 2.4053,-0.40088 l 0.92704,0.40088 q 0.40089,2.00442 0.30067,4.23434 0,1.30287 -0.0501,3.03168 -0.0501,1.70376 -0.55122,3.10685 -1.02726,0.60133 -2.43036,0.40089 z m -9.14516,-11.27486 q -2.12969,-0.70155 -3.93367,-2.20486 -0.40089,-0.60133 -0.30066,-1.52837 l 0.30066,-0.60133 q 1.30287,-0.70154 2.93146,-0.5011 2.10464,0.90199 4.00884,2.22992 0.40088,0.60132 0.30066,1.50331 l -0.30066,0.60133 q -1.30287,0.70154 -3.00663,0.5011 z m 16.08546,-0.30066 -1.40309,-0.60133 -0.30066,-0.70155 h -0.80177 q -2.10464,0.30067 -4.18422,0.50111 -2.05453,0.20044 -4.2594,0.10022 l -1.32792,-0.5011 q -0.40089,-0.70155 -0.30067,-1.60354 l 2.6308,-3.83345 q -1.92925,0.10022 -3.63301,-0.20044 l -1.60353,0.10022 q -2.00442,-0.90199 -4.03389,-2.00442 -0.40089,-0.70155 -0.30067,-1.62859 l 0.30067,-0.60133 q 1.20265,-0.70154 2.83124,-0.5011 1.9042,0.5011 3.50773,1.70375 h 5.43699 q -0.10022,-1.10243 0.30066,-1.90419 1.20265,-0.70155 2.83124,-0.50111 l 1.30288,0.50111 q 0.40088,0.80176 0.30066,1.80397 h 4.63522 l 1.30287,0.52616 q 0.40088,0.60133 0.30066,1.50332 l -0.30066,0.60132 q -1.30287,0.70155 -3.03168,0.50111 v 0.20044 l 0.70154,0.30066 q 0.62638,1.20265 1.37804,2.43036 0.75166,1.20265 0.85188,2.70597 l -0.30066,0.60132 q -1.20266,0.70155 -2.83125,0.50111 z m -3.50773,-4.43478 v -0.20044 l -0.10022,-1.00221 0.30066,-0.60133 0.40089,-0.20044 v -0.20044 h -1.00221 l -1.72881,2.10464 v 0.30066 h 0.40088 z"
           style="font-style:normal;font-variant:normal;font-weight:normal;font-stretch:normal;font-size:25.65656471px;font-family:Jiyucho;-inkscape-font-specification:Jiyucho;text-align:center;text-anchor:middle;stroke-width:0.35782313"
           id="path930" />
        <path
           d="m 131.89347,276.06987 q -1.12748,-0.10022 -1.92925,-1.10243 l -0.30066,-1.20265 0.30066,-0.62638 1.20265,-0.40088 0.12528,-0.30067 v -4.3095 q -1.42815,0.20045 -2.53058,-0.40088 -0.40088,-0.60133 -0.30066,-1.52837 l 0.40088,-0.70155 2.43036,-0.90199 0.10022,-4.43477 q -1.32793,0.20044 -2.33014,-0.40089 -0.40088,-0.60132 -0.30066,-1.50331 l 0.30066,-0.60133 q 1.00221,-0.70154 2.43036,-0.5011 0,-2.50553 0.40088,-4.83566 1.20266,-0.80177 2.90641,-0.60133 l 1.20265,0.60133 q 0.50111,1.40309 0.30067,3.1319 l -0.10022,1.80398 1.40309,0.40088 0.2255,0.50111 h 0.20044 v -4.00884 l 0.40088,-1.52837 q 1.20265,-0.90199 2.70597,-0.85188 1.50331,0.0501 3.03168,0.0501 1.9042,0.20044 3.85851,0.20044 1.95431,0 3.68312,0.70155 l 0.30066,0.60133 v 7.46646 l -0.30066,0.60132 q -1.22771,0.50111 -2.53058,0.70155 h -5.01105 l -0.12527,0.80177 h 1.2277 l 0.10022,-0.10022 h 5.01105 q 1.32793,0.10022 2.33014,0.80177 0.40088,2.00441 0.30066,4.23433 -0.10022,2.00442 -0.35077,3.93367 -0.25055,1.9042 -1.35298,3.50774 -1.72882,0.80176 -3.83346,0.60132 l -1.40309,-0.60132 -0.30066,-0.80177 h -6.33898 l -1.30287,-0.50111 q -0.40088,-2.02947 -0.30066,-4.33455 l -1.82904,-0.30067 q 0,1.60354 0,3.28224 0,1.65365 -0.80176,2.95652 -1.50332,0.70155 -3.3073,0.5011 z m 15.88503,-4.33455 q 0.30066,-1.50332 0.40088,-3.05674 0.10022,-1.55343 0.10022,-3.18202 h -1.40309 l -4.93588,0.40089 -0.10023,0.70154 0.70155,0.62638 0.10022,0.60133 h 0.30067 q 1.42814,-0.30066 2.93146,-0.20044 l 1.30287,0.5011 0.30066,1.10243 -0.30066,0.60133 q -2.20486,0.70155 -4.63522,0.90199 v 1.00221 h 1.62859 l 2.50553,-0.20044 1.00221,0.30066 z m -9.64627,-7.94251 v -0.20044 l 0.90199,-1.60354 -0.70155,-0.60133 -0.20044,-2.93146 h -0.20044 l -0.32572,1.30287 q -0.60133,0.40089 -1.50331,0.40089 l -0.10023,3.33234 q 1.20266,-0.10022 2.1297,0.30067 z m 9.14516,-4.43478 v -1.00221 h -4.43478 v 1.00221 z m 0,-3.70818 v -1.00221 h -4.535 v 1.00221 z"
           style="font-style:normal;font-variant:normal;font-weight:normal;font-stretch:normal;font-size:25.65656471px;font-family:Jiyucho;-inkscape-font-specification:Jiyucho;text-align:center;text-anchor:middle;stroke-width:0.35782313"
           id="path932" />
        <path
           d="m 164.89123,275.86943 q -1.50332,-0.5011 -2.83125,-1.30287 -0.40088,-0.60133 -0.30066,-1.52837 l 0.30066,-0.60133 q 0.90199,-0.5011 2.02948,-0.5011 l 0.10022,-0.30066 v -7.84229 h -7.96757 l -1.30287,-0.50111 q -0.40088,-0.60132 -0.30066,-1.50331 l 0.30066,-0.60133 1.30287,-0.5011 h 16.91229 l 3.93367,-0.2255 1.30288,0.52616 q 0.40088,0.60133 0.30066,1.50331 l -0.30066,0.60133 q -1.70376,0.70155 -3.73324,0.70155 h -5.73765 v 8.74428 q 0.20045,1.62859 -0.80176,2.73102 -1.4031,0.80176 -3.20707,0.60132 z m -8.66912,-0.80177 -1.30287,-0.5011 q -0.40088,-0.70155 -0.30066,-1.72881 l 2.10464,-7.04052 q 1.22771,-0.70155 2.83124,-0.50111 l 1.30287,0.50111 q 0.40089,0.80176 0.30067,1.82903 -0.60133,1.70375 -1.05232,3.45762 -0.451,1.75387 -1.05232,3.48268 -1.20266,0.70155 -2.83125,0.5011 z m 19.51803,-0.20044 -1.30287,-0.5011 q -0.70154,-2.02948 -1.35298,-4.0339 -0.65144,-2.00441 -1.05232,-4.13411 l 0.30066,-0.60133 q 1.20265,-0.70154 2.80619,-0.5011 l 1.32793,0.5011 q 0.80176,1.92926 1.4532,3.98379 0.65144,2.05453 0.9521,4.18422 l -0.30066,0.60133 q -1.20265,0.70154 -2.83125,0.5011 z m -17.98966,-19.41781 -1.32792,-0.5011 q -0.40089,-0.60133 -0.30067,-1.52837 l 0.30067,-0.60133 q 1.02726,-0.60132 2.33013,-0.60132 h 6.73986 l 0.10022,-0.10022 h 8.64406 l 1.30287,0.5011 q 0.40089,0.60133 0.30067,1.52837 l -0.30067,0.60133 -1.30287,0.5011 h -7.14074 l -0.10022,0.10022 h -6.73986 z"
           style="font-style:normal;font-variant:normal;font-weight:normal;font-stretch:normal;font-size:25.65656471px;font-family:Jiyucho;-inkscape-font-specification:Jiyucho;text-align:center;text-anchor:middle;stroke-width:0.35782313"
           id="path934" />
        <path
           d="m 201.49693,275.96965 q -1.80398,-0.5011 -3.10685,-2.00442 -0.40088,1.10243 -1.40309,1.70376 l -2.33014,0.20044 -1.30287,-0.5011 q -0.40089,-0.70155 -0.30067,-1.60354 h -0.20044 l -0.5011,1.4031 q -1.20265,0.70154 -2.80619,0.5011 l -1.32793,-0.5011 -0.20044,-0.50111 h -0.20044 l -0.30066,0.60133 q -1.20266,0.70154 -2.80619,0.5011 l -1.30287,-0.5011 q -0.40089,-0.70155 -0.30067,-1.70376 l 0.20045,-1.62859 h -0.20045 q -0.92704,0.5011 -2.02947,0.40088 l -0.90199,-0.40088 q -0.40088,-0.70155 -0.30066,-1.70376 0.70154,-2.50552 1.25276,-5.16138 0.55121,-2.68091 1.05232,-5.31171 -1.20265,0.10022 -2.20486,-0.5011 -0.40089,-0.60133 -0.30066,-1.50332 l 0.30066,-0.60132 q 1.50331,-0.70155 3.43257,-0.50111 -0.20045,-2.50552 0.40088,-4.63522 1.20265,-0.70154 2.80619,-0.5011 l 1.30287,0.5011 q 0.40088,0.90199 0.30066,2.00442 l -0.10022,2.43036 q 1.12749,0 1.92925,0.50111 0.40089,0.60132 0.30067,1.30287 h 0.20044 v -4.535 l 0.30066,-0.60132 1.60354,-0.60133 h 5.33676 l 0.10022,0.10022 h 4.73544 l 1.30288,0.50111 q 0.40088,0.60132 0.30066,1.52836 l -0.30066,0.60133 -1.30288,0.50111 h -6.23875 l -1.12749,-0.10023 -0.10022,4.00884 h 6.4392 l 1.82903,0.60133 q 0.50111,1.02726 0.30067,2.22991 -0.60133,1.9042 -1.37804,3.78335 -0.75166,1.85408 -1.55343,3.65806 l 3.93367,3.73323 0.10023,1.20265 -0.30067,0.60133 q -1.30287,0.70155 -3.03168,0.5011 z m -8.24317,-2.6308 v -0.10022 l 1.80397,-3.00663 -1.00221,-0.90199 q -0.40088,2.10465 -1.00221,4.00884 l 0.10022,0.12528 z m -5.03611,-0.60132 v -0.30067 q 0.70155,-1.70375 1.00221,-3.50773 0.32572,-1.80398 0.52616,-3.73323 l -1.72881,-0.20044 -0.10022,5.43699 0.20044,2.4053 z m 9.37066,-7.44141 v -0.20044 l 0.90199,-2.20486 -1.60354,-0.10022 -0.60132,0.10022 v 0.20044 l 1.20265,2.30508 z m -7.4414,-3.20707 v -0.20044 q 0.40088,-1.62859 0.30066,-3.33235 h -0.20044 l -0.20045,0.50111 q -0.90198,0.5011 -2.02947,0.5011 v 0.90199 q 1.02726,1.02727 2.1297,1.62859 z"
           style="font-style:normal;font-variant:normal;font-weight:normal;font-stretch:normal;font-size:25.65656471px;font-family:Jiyucho;-inkscape-font-specification:Jiyucho;text-align:center;text-anchor:middle;stroke-width:0.35782313"
           id="path936" />
      </g>
    </g>
  </g>
</svg>
