<?xml version="1.0" encoding="UTF-8" standalone="no"?>
<!-- Created with Inkscape (http://www.inkscape.org/) -->

<svg
   xmlns:dc="http://purl.org/dc/elements/1.1/"
   xmlns:cc="http://creativecommons.org/ns#"
   xmlns:rdf="http://www.w3.org/1999/02/22-rdf-syntax-ns#"
   xmlns:svg="http://www.w3.org/2000/svg"
   xmlns="http://www.w3.org/2000/svg"
   xmlns:xlink="http://www.w3.org/1999/xlink"
   xmlns:sodipodi="http://sodipodi.sourceforge.net/DTD/sodipodi-0.dtd"
   xmlns:inkscape="http://www.inkscape.org/namespaces/inkscape"
   width="297mm"
   height="210mm"
   viewBox="0 0 297 210"
   version="1.1"
   id="svg8"
   inkscape:version="0.92.2 (5c3e80d, 2017-08-06)"
   sodipodi:docname="kimisaki_journal.svg">
  <defs
     id="defs2">
    <filter
       style="color-interpolation-filters:sRGB;"
       inkscape:label="Drop Shadow"
       id="filter4593">
      <feFlood
         flood-opacity="0.498039"
         flood-color="rgb(0,0,0)"
         result="flood"
         id="feFlood4583" />
      <feComposite
         in="flood"
         in2="SourceGraphic"
         operator="in"
         result="composite1"
         id="feComposite4585" />
      <feGaussianBlur
         in="composite1"
         stdDeviation="3"
         result="blur"
         id="feGaussianBlur4587" />
      <feOffset
         dx="6"
         dy="6"
         result="offset"
         id="feOffset4589" />
      <feComposite
         in="SourceGraphic"
         in2="offset"
         operator="over"
         result="composite2"
         id="feComposite4591" />
    </filter>
    <filter
       style="color-interpolation-filters:sRGB;"
       inkscape:label="Drop Shadow"
       id="filter4633">
      <feFlood
         flood-opacity="0.498039"
         flood-color="rgb(0,0,0)"
         result="flood"
         id="feFlood4623" />
      <feComposite
         in="flood"
         in2="SourceGraphic"
         operator="in"
         result="composite1"
         id="feComposite4625" />
      <feGaussianBlur
         in="composite1"
         stdDeviation="3"
         result="blur"
         id="feGaussianBlur4627" />
      <feOffset
         dx="6"
         dy="6"
         result="offset"
         id="feOffset4629" />
      <feComposite
         in="SourceGraphic"
         in2="offset"
         operator="over"
         result="composite2"
         id="feComposite4631" />
    </filter>
    <filter
       style="color-interpolation-filters:sRGB;"
       inkscape:label="Drop Shadow"
       id="filter4661">
      <feFlood
         flood-opacity="0.498039"
         flood-color="rgb(0,0,0)"
         result="flood"
         id="feFlood4651" />
      <feComposite
         in="flood"
         in2="SourceGraphic"
         operator="in"
         result="composite1"
         id="feComposite4653" />
      <feGaussianBlur
         in="composite1"
         stdDeviation="3"
         result="blur"
         id="feGaussianBlur4655" />
      <feOffset
         dx="6"
         dy="6"
         result="offset"
         id="feOffset4657" />
      <feComposite
         in="SourceGraphic"
         in2="offset"
         operator="over"
         result="composite2"
         id="feComposite4659" />
    </filter>
    <filter
       style="color-interpolation-filters:sRGB;"
       inkscape:menu-tooltip="Fades hue progressively to white"
       inkscape:menu="Color"
       inkscape:label="Hue to White"
       id="filter2157">
      <feColorMatrix
         values="1 0 0 0 0 1 0 0 0 0 1 0 0 0 0 0 0 0 0 1 "
         type="matrix"
         result="r"
         in="SourceGraphic"
         id="feColorMatrix2129" />
      <feColorMatrix
         values="0 1 0 0 0 0 1 0 0 0 0 1 0 0 0 0 0 0 0 1 "
         type="matrix"
         result="g"
         in="SourceGraphic"
         id="feColorMatrix2131" />
      <feColorMatrix
         values="0 0 1 0 0 0 0 1 0 0 0 0 1 0 0 0 0 0 0 1 "
         type="matrix"
         result="b"
         in="SourceGraphic"
         id="feColorMatrix2133" />
      <feBlend
         result="minrg"
         in="r"
         mode="darken"
         in2="g"
         id="feBlend2135" />
      <feBlend
         result="p"
         in="minrg"
         mode="darken"
         in2="b"
         id="feBlend2137" />
      <feBlend
         result="maxrg"
         in="r"
         mode="lighten"
         in2="g"
         id="feBlend2139" />
      <feBlend
         result="q"
         in="maxrg"
         mode="lighten"
         in2="b"
         id="feBlend2141" />
      <feComponentTransfer
         result="q2"
         in="q"
         id="feComponentTransfer2145">
        <feFuncR
           slope="0"
           type="linear"
           id="feFuncR2143" />
      </feComponentTransfer>
      <feBlend
         result="pq"
         in="p"
         mode="lighten"
         in2="q2"
         id="feBlend2147" />
      <feColorMatrix
         values="-1 1 0 0 0 -1 1 0 0 0 -1 1 0 0 0 0 0 0 0 1 "
         type="matrix"
         result="qminp"
         in="pq"
         id="feColorMatrix2149" />
      <feComposite
         k3="1"
         operator="arithmetic"
         result="qminpc"
         in="qminp"
         in2="qminp"
         id="feComposite2151" />
      <feBlend
         result="result2"
         in2="SourceGraphic"
         mode="screen"
         id="feBlend2153" />
      <feComposite
         operator="in"
         in="result2"
         in2="SourceGraphic"
         result="result1"
         id="feComposite2155" />
    </filter>
  </defs>
  <sodipodi:namedview
     id="base"
     pagecolor="#ffffff"
     bordercolor="#666666"
     borderopacity="1.0"
     inkscape:pageopacity="0.0"
     inkscape:pageshadow="2"
     inkscape:zoom="0.7"
     inkscape:cx="589.86752"
     inkscape:cy="468.53092"
     inkscape:document-units="mm"
     inkscape:current-layer="layer1"
     showgrid="false"
     inkscape:window-width="1920"
     inkscape:window-height="1017"
     inkscape:window-x="-8"
     inkscape:window-y="-8"
     inkscape:window-maximized="1">
    <inkscape:grid
       type="xygrid"
       id="grid3709" />
  </sodipodi:namedview>
  <metadata
     id="metadata5">
    <rdf:RDF>
      <cc:Work
         rdf:about="">
        <dc:format>image/svg+xml</dc:format>
        <dc:type
           rdf:resource="http://purl.org/dc/dcmitype/StillImage" />
        <dc:title />
      </cc:Work>
    </rdf:RDF>
  </metadata>
  <g
     inkscape:label="レイヤー 1"
     inkscape:groupmode="layer"
     id="layer1"
     transform="translate(0,-87)">
    <g
       id="g2127"
       style="filter:url(#filter2157)">
      <g
         id="g4533" />
      <g
         transform="rotate(10,150.44235,114.80762)"
         style="opacity:1;fill:#feeeef;fill-opacity:0.99545456;stroke:#feeeed;stroke-width:1;stroke-miterlimit:4;stroke-dasharray:none;stroke-opacity:1;filter:url(#filter4593)"
         id="g4541">
        <path
           sodipodi:nodetypes="ccccc"
           inkscape:connector-curvature="0"
           id="path3711"
           d="M 95.249996,180.58334 C 52.916663,159.41667 79.374996,117.08334 84.666663,106.5 L 95.249996,111.79167 105.83333,106.5 c 5.29166,10.58334 31.75,52.91667 -10.583334,74.08334 z"
           style="fill:#feeeef;fill-opacity:0.99545456;stroke:#feeeed;stroke-width:1;stroke-linecap:butt;stroke-linejoin:miter;stroke-miterlimit:4;stroke-dasharray:none;stroke-opacity:1" />
        <path
           sodipodi:nodetypes="ccccc"
           inkscape:connector-curvature="0"
           id="use3717"
           d="M 95.25,180.58333 C 62.037581,214.30386 29.952266,176.05877 21.522127,167.75567 l 8.303107,-8.43013 -1.762247,-11.70057 C 39.763554,145.86274 88.20102,133.78108 95.25,180.58333 Z"
           style="fill:#feeeef;fill-opacity:0.99545456;stroke:#feeeed;stroke-width:1;stroke-linecap:butt;stroke-linejoin:miter;stroke-miterlimit:4;stroke-dasharray:none;stroke-opacity:1" />
        <use
           style="fill:#feeeef;fill-opacity:0.99545456;stroke:#feeeed;stroke-width:1;stroke-miterlimit:4;stroke-dasharray:none;stroke-opacity:1"
           x="0"
           y="0"
           xlink:href="#use3717"
           id="use3721"
           width="100%"
           height="100%"
           transform="rotate(-72,95.250006,180.58333)" />
        <use
           style="fill:#feeeef;fill-opacity:0.99545456;stroke:#feeeed;stroke-width:1;stroke-miterlimit:4;stroke-dasharray:none;stroke-opacity:1"
           x="0"
           y="0"
           xlink:href="#use3721"
           id="use3723"
           transform="rotate(-72,95.250004,180.58334)"
           width="100%"
           height="100%" />
        <use
           style="fill:#feeeef;fill-opacity:0.99545456;stroke:#feeeed;stroke-width:1;stroke-miterlimit:4;stroke-dasharray:none;stroke-opacity:1"
           x="0"
           y="0"
           xlink:href="#use3723"
           id="use3725"
           transform="rotate(-72,95.25,180.58334)"
           width="100%"
           height="100%" />
      </g>
      <flowRoot
         transform="matrix(0.26458333,0,0,0.26458333,0,87)"
         style="font-style:normal;font-weight:normal;font-size:192.00000242px;line-height:1.25;font-family:'Rounded M+ 1p';letter-spacing:0px;word-spacing:0px;fill:#000000;fill-opacity:1;stroke:none;-inkscape-font-specification:'Rounded M+ 1p';font-stretch:normal;font-variant:normal;"
         id="flowRoot4595"
         xml:space="preserve"><flowRegion
           style="-inkscape-font-specification:'Rounded M+ 1p';font-family:'Rounded M+ 1p';font-weight:normal;font-style:normal;font-stretch:normal;font-variant:normal;font-size:192.00000242px;"
           id="flowRegion4597"><rect
             style="-inkscape-font-specification:'Rounded M+ 1p';font-family:'Rounded M+ 1p';font-weight:normal;font-style:normal;font-stretch:normal;font-variant:normal;font-size:192.00000242px;"
             y="233.70081"
             x="280"
             height="260"
             width="520"
             id="rect4599" /></flowRegion><flowPara
           id="flowPara4601" /></flowRoot>      <g
         id="text4605"
         style="font-style:normal;font-variant:normal;font-weight:normal;font-stretch:normal;font-size:96.03546143px;line-height:1.25;font-family:uzura_font;-inkscape-font-specification:uzura_font;letter-spacing:0px;word-spacing:0px;fill:#fa58f4;fill-opacity:1;stroke:#ffffff;stroke-width:3;stroke-miterlimit:4;stroke-dasharray:none;stroke-opacity:1;filter:url(#filter4633)"
         transform="matrix(1.1494743,0,0,1.1494743,-19.41131,-25.834655)"
         aria-label="君咲">
        <path
           id="path856"
           style="font-style:normal;font-variant:normal;font-weight:normal;font-stretch:normal;font-size:96.03546143px;font-family:uzura_font;-inkscape-font-specification:uzura_font;fill:#fa58f4;fill-opacity:1;stroke:#ffffff;stroke-width:3;stroke-miterlimit:4;stroke-dasharray:none;stroke-opacity:1"
           d="m 74.141947,207.73171 -1.875693,-0.93785 q -0.187569,-0.37513 -0.468923,-0.65649 -0.281354,-0.28135 -0.281354,-0.75027 0,-0.46893 -0.187569,-0.84407 -0.187569,-0.37514 -0.187569,-0.75027 0.375138,-3.00111 0.562707,-6.18979 0.18757,-3.18868 0.750277,-6.18978 0.562708,-3.00111 0.750277,-6.18979 0.18757,-3.18868 0.937847,-6.00222 h -0.375139 q -1.312985,2.81354 -2.719754,5.72087 -1.406769,2.90732 -2.719754,5.81464 -1.312985,2.90733 -2.438401,5.90843 -1.125415,3.00111 -2.4384,5.81465 -0.375139,0.18757 -0.750277,0.46892 -0.375139,0.28136 -0.844062,0.37514 -0.468923,0.0938 -0.937846,0.0938 -0.468923,0 -1.031631,0 l -1.875693,-0.93785 q -0.187569,-0.37514 -0.468923,-0.75028 -0.281354,-0.37513 -0.375138,-0.84406 -0.09379,-0.46892 -0.09379,-0.93784 0,-0.46893 0,-1.03163 1.688123,-3.93896 3.282462,-7.9717 1.594339,-4.03274 3.470031,-7.97169 1.875693,-3.93896 3.751386,-7.78413 1.875692,-3.84517 3.376246,-8.15926 h -5.06437 l -2.250831,0.18757 q -0.375138,-0.18757 -0.656492,-0.28135 -0.281354,-0.0938 -0.656493,-0.18757 -0.375138,-0.0938 -0.656492,-0.28136 -0.281354,-0.18757 -0.656492,-0.37514 -0.18757,-0.37513 -0.468924,-0.75027 -0.281353,-0.37514 -0.375138,-0.84406 -0.09378,-0.46893 -0.09378,-0.84407 0,-0.37513 0,-0.93784 l 0.937847,-1.87569 q 0.937846,-0.93785 2.250831,-0.93785 1.312985,0 2.532185,-0.0938 1.2192,-0.0938 2.532185,-0.0938 1.312985,0 2.625969,0 l 3.001109,0.18757 2.250831,-6.18979 -12.567141,-0.37513 q -0.750277,0.18756 -1.688123,0.28135 -0.937846,0.0938 -1.875693,0.0938 -0.937846,0 -1.875692,0.0938 -0.937847,0.0938 -1.875693,0.0938 l -1.875693,-0.93784 q -0.187569,-0.37514 -0.468923,-0.75028 -0.281354,-0.37514 -0.375138,-0.84406 -0.09379,-0.46893 -0.09379,-0.84406 0,-0.37514 0,-0.93785 l 0.937846,-1.87569 q 1.312985,-1.12542 2.907324,-1.2192 1.594339,-0.0938 3.282462,-0.0938 1.688123,0 3.376247,-0.28135 1.688123,-0.28136 3.376246,-0.0938 1.500554,0.18757 3.001109,0.28136 1.500554,0.0938 3.001108,0.0938 1.500554,0 3.094893,0 1.594338,0 3.094892,0 0.375139,-1.12541 0.937847,-2.15704 0.562707,-1.03163 1.031631,-2.15705 0.468923,-1.12542 0.937846,-2.25083 0.468923,-1.12542 0.656492,-2.25083 l -10.691448,-0.18757 -6.564924,0.75028 -1.875692,-0.93785 q -0.18757,-0.37514 -0.468923,-0.75028 -0.281354,-0.37514 -0.375139,-0.84406 -0.09378,-0.46892 -0.09378,-0.93785 0,-0.46892 0,-1.03163 l 1.125416,-2.25083 q 1.875693,-1.12541 4.220308,-1.03163 2.344616,0.0938 4.595447,-0.18757 2.250831,-0.28135 4.595447,-0.18757 2.344616,0.0938 4.595447,0.0938 3.938954,0.5627 8.159263,0.65649 4.220308,0.0938 8.253047,0.37514 4.032735,0.28135 8.159265,0.46892 4.12652,0.18757 7.87791,1.31299 1.12541,1.31298 1.12541,3.18867 0,1.8757 0,3.6576 0,1.78191 0,3.6576 0,1.8757 0.18757,3.56382 1.31299,0 2.53219,0 1.2192,0 2.4384,0.18757 1.2192,0.18757 2.53218,0.18757 1.31299,0 2.25083,0.93785 0.18757,0.37513 0.46893,0.75027 0.28135,0.37514 0.37514,0.84406 0.0938,0.46893 0.0938,0.93785 0,0.46892 0,1.03163 l -0.93785,1.87569 q -0.5627,0.37514 -1.12541,0.6565 -0.56271,0.28135 -1.12542,0.28135 -0.56271,0 -1.31298,0 -0.75028,0 -1.31299,0 l -4.68923,-0.37514 v 3.93896 l 0.37514,7.12763 -0.93785,1.87569 q -0.37514,0.18757 -0.75027,0.46892 -0.37514,0.28136 -0.84407,0.37514 -0.46892,0.0938 -0.84406,0.0938 -0.37514,0 -0.93784,0 l -0.75028,-0.18757 -2.81354,0.56271 q -3.18868,-0.75028 -6.56492,-0.56271 -3.37625,0.18757 -6.564927,-0.0938 -3.188678,-0.28135 -6.658709,-0.37514 -3.470032,-0.0938 -6.846278,-0.0938 l -3.376247,0.18757 q -0.375138,1.68812 -1.031631,3.00111 -0.656492,1.31298 -1.125415,2.71975 -0.468924,1.40677 -1.219201,2.71976 -0.750277,1.31298 -1.125415,2.81353 h 0.187569 l 0.562708,-0.93784 q 2.250831,-1.12542 4.970585,-1.12542 2.719755,0 5.439509,-0.0938 2.719754,-0.0938 5.439508,-0.28136 2.719755,-0.18756 5.533294,0 2.063261,0.18757 4.22031,0.18757 2.15704,0 4.22031,0.18757 2.06326,0.18757 4.12652,0.18757 2.06326,0 3.75139,1.12542 1.50055,2.62597 1.68812,5.90843 0.18757,3.28246 0.65649,6.47114 0.46892,3.18868 0.84406,6.37735 0.37514,3.18868 0.37514,6.37736 l -0.93785,1.87569 -1.50055,1.50056 q -0.37514,0.18756 -0.84406,0.46892 -0.46892,0.28135 -0.93785,0.37514 -0.46892,0.0938 -0.93784,0.0938 -0.46893,0 -1.03163,0 -0.93785,-0.37514 -2.06327,-0.37514 -1.12541,0 -2.34461,0 -1.2192,0 -2.34462,0 -1.12541,0 -2.25083,0 l -2.813538,0.18757 -5.439508,-0.18757 -14.817972,0.56271 -1.500554,-0.18757 z m 34.512743,-7.87791 v -0.75028 l -1.68812,-14.81797 -18.006652,-0.5627 q -0.937846,0.37513 -1.969477,0.37513 -1.031631,0 -2.157046,0 -1.125416,0 -2.157047,0 -1.031631,0 -2.157046,0 -0.18757,2.06327 -0.281354,4.12653 -0.09378,2.06326 -0.468923,3.93895 -0.375139,1.87569 -0.656493,3.84517 -0.281354,1.96948 -0.09378,4.22031 h 7.690339 l 11.254156,-0.37514 2.813537,0.18757 z m 0.37514,-38.82684 V 158.401 l -0.18757,-4.12653 -24.196435,-0.37514 q -0.562707,0.75028 -0.937846,1.50056 -0.375138,0.75027 -0.750277,1.50055 -0.375138,0.75028 -0.656492,1.50056 -0.281354,0.75027 -0.468924,1.68812 3.376247,0 6.846278,0.0938 3.470032,0.0938 6.846279,0.37514 3.376246,0.28136 6.752497,0.0938 3.37624,-0.18757 6.75249,0.37513 z m -0.37514,-14.06769 v -0.93785 l -0.18757,-6.94006 q -2.06326,-0.18757 -4.22031,-0.28135 -2.15704,-0.0938 -4.31409,-0.28136 -2.157046,-0.18757 -4.314093,-0.18757 -2.157046,0 -4.220308,-0.37513 l -3.751385,8.81575 z" />
        <path
           id="path858"
           style="font-style:normal;font-variant:normal;font-weight:normal;font-stretch:normal;font-size:96.03546143px;font-family:uzura_font;-inkscape-font-specification:uzura_font;fill:#fa58f4;fill-opacity:1;stroke:#ffffff;stroke-width:3;stroke-miterlimit:4;stroke-dasharray:none;stroke-opacity:1"
           d="m 215.00646,209.23226 q -0.37514,-0.18756 -0.65649,-0.28135 -0.28135,-0.0938 -0.65649,-0.18757 -0.37514,-0.0938 -0.6565,-0.28135 -0.28135,-0.18757 -0.65649,-0.37514 -1.68812,-3.93896 -4.31409,-7.40899 -2.62597,-3.47003 -4.8768,-7.12763 -2.25083,-3.6576 -4.22031,-7.40898 -1.96948,-3.75139 -4.40788,-7.31521 h -0.56271 q -1.12541,3.75139 -2.34461,7.40899 -1.2192,3.6576 -2.90732,7.22142 -1.68813,3.56381 -3.18868,7.12763 -1.50056,3.56381 -3.18868,6.94006 -0.37514,0.18757 -0.75028,0.46892 -0.37514,0.28136 -0.84406,0.37514 -0.46892,0.0938 -0.84406,0.0938 -0.37514,0 -0.93785,0 l -1.87569,-0.93785 q -0.18757,-0.37514 -0.46892,-0.65649 -0.28136,-0.28135 -0.28136,-0.75028 0,-0.46892 -0.18757,-0.84406 -0.18756,-0.37514 -0.18756,-0.75028 1.31298,-3.56381 2.81353,-7.22141 1.50056,-3.6576 3.18868,-7.22142 1.68812,-3.56382 3.00111,-7.22142 1.31298,-3.6576 2.4384,-7.40898 -1.50055,0 -3.09489,0 -1.59434,0 -3.0949,0 -1.50055,0 -2.90732,-0.18757 -1.40677,-0.18757 -2.90732,-0.18757 -0.37514,0.37514 -0.84406,0.46892 -0.46893,0.0938 -0.93785,0.28136 -0.46892,0.18757 -0.93785,0.18757 -0.46892,0 -1.03163,0 v 4.12652 l 0.56271,8.06548 -0.93785,1.87569 -0.93784,0.37514 v 0.37514 q -0.56271,0.56271 -1.31299,0.75027 -0.75027,0.18757 -1.68812,0.18757 -0.93785,0 -1.68812,0 -0.75028,0 -1.68813,0 -0.93784,-0.37513 -1.96947,-0.46892 -1.03164,-0.0938 -2.15705,-0.0938 -1.12542,0 -2.15705,0 -1.03163,0 -2.15704,0 -1.12542,0.18757 -2.34462,0.18757 -1.2192,0 -2.34462,0 -1.12541,0 -2.15704,0.46892 -1.03163,0.46892 -2.34462,0.28135 l -1.87569,-0.93784 q -0.18757,-0.37514 -0.46892,-0.75028 -0.28136,-0.37514 -0.37514,-0.75028 -0.0938,-0.37514 -0.18757,-0.84406 -0.0938,-0.46892 -0.0938,-0.84406 0.75028,-5.43951 1.31299,-10.9728 0.56271,-5.5333 0.84406,-11.16037 0.28135,-5.62708 1.12542,-11.06659 0.84406,-5.43951 2.34461,-10.69145 0.56271,-0.37514 1.12542,-0.75028 0.56271,-0.37513 1.12541,-0.65649 0.56271,-0.28135 1.31299,-0.28135 0.75027,0 1.50055,0 1.87569,0.18757 3.84517,0.18757 1.96948,0 3.93896,0.0938 1.96947,0.0938 3.75138,0.46893 1.78191,0.37513 3.28246,1.31298 1.31299,2.62597 1.2192,5.81465 -0.0938,3.18867 0.18757,6.18978 0.28136,3.00111 0.46893,6.096 0.18757,3.0949 0.37513,6.096 h 0.37514 q 0.56271,-0.37513 1.31299,-0.5627 0.75027,-0.18757 1.40677,-0.37514 0.65649,-0.18757 1.50055,-0.18757 0.84406,0 1.59434,0 1.31298,0.18757 2.62597,0.28135 1.31298,0.0938 2.62597,0.0938 1.31298,0 2.81354,0 1.50055,0 2.81354,0 l 1.68812,-0.18757 q 0.37514,-1.50056 0.65649,-3.09489 0.28136,-1.59434 0.56271,-3.18868 0.28135,-1.59434 0.75028,-3.00111 0.46892,-1.40677 1.03163,-2.90732 h -1.50056 l -1.87569,0.18757 q -1.68812,-0.37514 -3.56381,-0.46893 -1.8757,-0.0938 -3.6576,-0.18757 -1.78191,-0.0938 -3.65761,0 -1.87569,0.0938 -3.18867,-1.03163 -0.18757,-0.37514 -0.46893,-0.75027 -0.28135,-0.37514 -0.37513,-0.84407 -0.0938,-0.46892 -0.0938,-0.84406 0,-0.37514 0,-0.93784 l 1.12542,-2.06327 q 0.37514,-0.18757 0.84406,-0.5627 0.46892,-0.37514 0.93784,-0.46893 0.46893,-0.0938 0.93785,-0.0938 0.46892,0 1.03163,0 l 11.81687,0.93784 q 1.12541,-0.18756 2.34461,-0.28135 1.2192,-0.0938 2.53219,-0.0938 1.31298,0 2.53218,0 1.2192,0 2.53219,0 1.87569,0.37513 3.93895,0.5627 2.06326,0.18757 3.93896,0.46893 1.87569,0.28135 3.93895,0.37514 2.06326,0.0938 3.75138,1.03163 0.18757,0.37513 0.46893,0.75027 0.28135,0.37514 0.37514,0.84407 0.0938,0.46892 0.0938,0.84406 0,0.37514 0,0.93784 l -0.93785,1.8757 q -0.5627,0.37513 -1.31298,0.65649 -0.75028,0.28135 -1.40677,0.37514 -0.65649,0.0938 -1.50055,0.0938 -0.84407,0 -1.59434,0 -1.12542,-0.37514 -2.4384,-0.56271 -1.31299,-0.18757 -2.53219,-0.37514 -1.2192,-0.18756 -2.53218,-0.18756 -1.31299,0 -2.62597,-0.37514 -0.18757,1.68812 -0.93785,3.09489 -0.75028,1.40677 -1.2192,3.00111 -0.46892,1.59434 -0.75028,3.18868 -0.28135,1.59433 -0.46892,3.28246 l 13.88013,0.56271 4.12652,-0.18757 q 1.31298,0.18757 2.62597,0.18757 1.31298,0 2.62597,0.28135 1.31298,0.28135 2.62597,0.28135 1.31298,0 2.25083,0.93785 0.18757,0.37514 0.46892,0.75028 0.28136,0.37513 0.37514,0.84406 0.0938,0.46892 0.0938,0.84406 0,0.37514 0,0.93785 l -0.93785,1.87569 q -0.56271,0.37514 -1.03163,0.65649 -0.46892,0.28136 -1.12542,0.37514 -0.65649,0.0938 -1.2192,0.0938 -0.5627,0 -1.31298,0 -0.93785,-0.37513 -2.15705,-0.37513 -1.2192,0 -2.4384,-0.0938 -1.2192,-0.0938 -2.34461,-0.0938 -1.12542,0 -2.4384,0 l -1.31299,0.18757 -8.81575,-0.37514 v 0.56271 q 2.62597,3.56381 4.68923,7.40898 2.06326,3.84517 4.31409,7.50277 2.25083,3.6576 4.97059,7.22142 2.71975,3.56381 3.47003,7.87791 l -0.93785,1.87569 q -0.37514,0.18757 -0.65649,0.37514 -0.28136,0.18757 -0.65649,0.37514 -0.37514,0.18757 -0.75028,0.18757 -0.37514,0 -0.75028,0.18756 z M 164.7379,184.47312 v -0.56271 q -0.18757,-4.12652 -0.46892,-8.34683 -0.28136,-4.22031 -0.56271,-8.5344 -0.28136,-4.31409 -0.56271,-8.44062 -0.28135,-4.12652 -0.46892,-8.44061 l -7.50277,-0.18757 -0.56271,0.18757 q -0.18757,4.31409 -1.03163,8.44061 -0.84406,4.12653 -0.84406,8.53441 0,4.40787 -0.56271,8.5344 -0.56271,4.12652 -0.93785,8.44061 h 4.12653 l 6.75249,-0.18757 z m 40.13982,-37.13871 -1.87569,-0.93785 q -0.18757,-0.37514 -0.46892,-0.84406 -0.28136,-0.46892 -0.37514,-0.93785 -0.0938,-0.46892 -0.0938,-0.93784 0,-0.46892 0,-1.03163 0.56271,-1.8757 1.50056,-3.6576 0.93784,-1.78191 1.68812,-3.6576 0.75028,-1.8757 1.50055,-3.75139 0.75028,-1.87569 1.8757,-3.56381 0.37514,-0.18757 0.75027,-0.46893 0.37514,-0.28135 0.84407,-0.37514 0.46892,-0.0938 0.84406,-0.0938 0.37514,0 0.93784,0 l 1.8757,0.93785 q 0.18757,0.37513 0.46892,0.75027 0.28135,0.37514 0.37514,0.84406 0.0938,0.46893 0.0938,0.93785 0,0.46892 0,1.03163 -0.75027,1.87569 -1.59434,3.6576 -0.84406,1.78191 -1.59434,3.6576 -0.75027,1.87569 -1.59433,3.6576 -0.84407,1.78191 -1.59434,3.6576 -0.37514,0.18757 -0.75028,0.46893 -0.37514,0.28135 -0.84406,0.46892 -0.46892,0.18757 -0.93785,0.18757 -0.46892,0 -1.03163,0 z m -18.75692,-1.50056 -2.06327,-0.93784 q -0.93784,-1.87569 -1.96947,-3.75139 -1.03163,-1.87569 -1.78191,-3.84517 -0.75028,-1.96947 -1.31299,-3.93895 -0.5627,-1.96948 -0.75027,-4.22031 l 0.93784,-1.87569 q 0.37514,-0.18757 0.75028,-0.46893 0.37514,-0.28135 0.84406,-0.37513 0.46892,-0.0938 0.84406,-0.0938 0.37514,0 0.93785,0 l 1.87569,0.93785 q 1.50056,1.68812 1.78191,3.84517 0.28135,2.15704 1.2192,4.03274 0.93785,1.87569 1.96948,3.75138 1.03163,1.87569 1.03163,4.12653 l -0.93785,1.87569 q -0.37514,0.18757 -0.75027,0.46892 -0.37514,0.28136 -0.84407,0.37514 -0.46892,0.0938 -0.84406,0.0938 -0.37514,0 -0.93784,0 z" />
      </g>
      <g
         id="text4649"
         style="font-style:normal;font-variant:normal;font-weight:normal;font-stretch:normal;font-size:50.79999924px;line-height:14.25;font-family:uzura_font;-inkscape-font-specification:uzura_font;letter-spacing:0px;word-spacing:0px;fill:#fa58f4;fill-opacity:1;stroke:#ffffff;stroke-width:1.5;stroke-miterlimit:4;stroke-dasharray:none;stroke-dashoffset:0;stroke-opacity:1;filter:url(#filter4661)"
         transform="matrix(0.970299,0,0,0.970299,5.0199009,10.408326)"
         aria-label="ふぁんねっと">
        <path
           id="path861"
           style="font-style:normal;font-variant:normal;font-weight:normal;font-stretch:normal;font-size:50.79999924px;line-height:14.25;font-family:uzura_font;-inkscape-font-specification:uzura_font;fill:#fa58f4;fill-opacity:1;stroke:#ffffff;stroke-width:1.5;stroke-miterlimit:4;stroke-dasharray:none;stroke-dashoffset:0;stroke-opacity:1"
           d="m 15.421429,254.60524 q -0.79375,-0.0992 -1.5875,-0.14883 -0.79375,-0.0496 -1.53789,-0.34727 -0.744141,-0.29765 -1.438672,-0.64492 -0.694531,-0.34726 -1.2898438,-0.84336 -0.099219,-0.19844 -0.2976562,-0.44648 -0.1984375,-0.24805 -0.2480469,-0.4961 -0.049609,-0.24804 -0.049609,-0.49609 0,-0.24805 0,-0.5457 l 0.4960938,-0.99219 q 0.1984375,-0.0992 0.396875,-0.24805 0.1984375,-0.14883 0.4464845,-0.19843 0.248047,-0.0496 0.496094,-0.0496 0.248046,0 0.545703,0 l 0.992187,0.49609 0.694531,0.59531 q 0.396875,0.0992 0.744141,0.24805 0.347266,0.14883 0.744141,0.14883 0.396875,0 0.79375,0.0496 0.396875,0.0496 0.79375,0.0496 0.496093,-0.29766 0.942578,-0.59532 0.446484,-0.29765 0.843359,-0.74414 0.396875,-0.44648 0.892969,-0.84336 0.496094,-0.39687 0.694531,-0.89297 l 0.198438,-1.19062 q -0.09922,-1.78594 -0.644922,-3.42305 -0.545703,-1.63711 -1.736328,-2.97656 -1.190625,-1.33945 -2.331641,-2.72852 -1.141016,-1.38906 -1.240234,-3.27421 0.694531,-1.28985 1.686718,-2.48047 0.992188,-1.19063 1.736328,-2.48047 0.744141,-1.28985 1.5875,-2.57969 0.84336,-1.28984 1.240235,-2.67891 -1.091406,0 -2.083594,-0.44648 -0.992187,-0.44648 -2.083594,-0.5457 -1.091406,-0.0992 -2.133203,-0.34727 -1.041797,-0.24805 -2.133203,-0.24805 l -0.992187,0.0992 -0.9921878,-0.49609 q -0.099219,-0.19844 -0.2480468,-0.39688 -0.1488282,-0.19843 -0.1984375,-0.44648 -0.049609,-0.24805 -0.049609,-0.44648 0,-0.19844 0,-0.4961 l 0.4960937,-0.99219 q 0.2976563,-0.29765 0.6945308,-0.44648 0.396875,-0.14883 0.84336,-0.19844 0.446484,-0.0496 0.892969,-0.0496 0.446484,0 0.942578,0 1.289843,0.39688 2.728515,0.4961 1.438672,0.0992 2.728516,0.59531 1.289844,0.49609 2.678906,0.74414 1.389063,0.24805 2.480469,1.14102 v 0.19843 h 0.198437 q 0.09922,0.29766 0.248047,0.54571 0.148828,0.24804 0.198438,0.5457 0.04961,0.29766 0.04961,0.59531 0,0.29766 0,0.59531 -0.496094,1.48829 -1.141016,2.92696 -0.644921,1.43867 -1.53789,2.77812 -0.892969,1.33946 -1.736328,2.6293 -0.84336,1.28984 -1.835547,2.67891 1.190625,1.48828 2.38125,2.77812 1.190625,1.28984 1.934765,2.87734 0.744141,1.5875 0.942579,3.32383 0.198437,1.73633 0.297656,3.52227 -0.09922,0.49609 -0.248047,0.94258 -0.148828,0.44648 -0.297656,0.94257 -0.148828,0.4961 -0.446485,0.89297 -0.297656,0.39688 -0.595312,0.79375 l -1.785938,1.78594 q -0.595312,0.29766 -1.141015,0.74414 -0.545703,0.44649 -1.091407,0.69453 -0.545703,0.24805 -1.190624,0.34727 -0.644922,0.0992 -1.339454,0.0992 z M 2.1261171,252.12477 q -0.1984375,-0.0992 -0.3472656,-0.14883 -0.1488281,-0.0496 -0.3472656,-0.0992 -0.1984375,-0.0496 -0.3472657,-0.14883 -0.14882809,-0.0992 -0.34726558,-0.19843 -0.0992188,-0.19844 -0.24804688,-0.39688 -0.14882812,-0.19844 -0.19843749,-0.44648 -0.0496094,-0.24805 -0.0496094,-0.4961 0,-0.24804 0,-0.5457 0.49609375,-1.48828 0.74414062,-3.12539 0.24804691,-1.63711 0.59531251,-3.22461 0.3472656,-1.5875 0.5953125,-3.22461 0.2480468,-1.63711 1.0417968,-3.02617 0.1984375,-0.0992 0.396875,-0.24805 0.1984375,-0.14883 0.4464844,-0.19844 0.2480469,-0.0496 0.4464844,-0.0496 0.1984375,0 0.4960937,0 l 0.9921875,0.4961 q 0.099219,0.19844 0.2480469,0.39687 0.1488281,0.19844 0.1984375,0.44649 0.049609,0.24804 0.049609,0.49609 0,0.24805 0,0.5457 -0.4960937,1.48829 -0.79375,3.07579 -0.2976562,1.5875 -0.6449218,3.22461 -0.3472656,1.6371 -0.5457031,3.2246 -0.1984375,1.5875 -0.8929688,3.07579 -0.1984375,0.0992 -0.3472656,0.19843 -0.1488281,0.0992 -0.3472656,0.19844 -0.1984375,0.0992 -0.396875,0.0992 -0.1984375,0 -0.396875,0.0992 z m 33.2382809,-0.79375 -0.992188,-0.4961 q -0.694531,-1.5875 -1.190625,-3.12539 -0.496093,-1.53789 -0.942578,-3.12539 -0.446484,-1.5875 -1.041797,-3.12539 -0.595312,-1.53789 -0.892968,-3.22461 l 0.496093,-0.99218 q 0.198438,-0.0992 0.396875,-0.24805 0.198438,-0.14883 0.446485,-0.19844 0.248047,-0.0496 0.446484,-0.0496 0.198438,0 0.496094,0 l 0.992187,0.4961 q 0.892969,1.48828 1.389063,3.07578 0.496094,1.5875 0.942578,3.12539 0.446484,1.53789 1.041797,3.12539 0.595312,1.5875 0.694531,3.27422 l -0.496094,0.99218 q -0.198437,0.0992 -0.396875,0.24805 -0.198437,0.14883 -0.446484,0.19844 -0.248047,0.0496 -0.446484,0.0496 -0.198438,0 -0.496094,0 z" />
        <path
           id="path863"
           style="font-style:normal;font-variant:normal;font-weight:normal;font-stretch:normal;font-size:50.79999924px;line-height:14.25;font-family:uzura_font;-inkscape-font-specification:uzura_font;fill:#fa58f4;fill-opacity:1;stroke:#ffffff;stroke-width:1.5;stroke-miterlimit:4;stroke-dasharray:none;stroke-dashoffset:0;stroke-opacity:1"
           d="m 67.312835,254.20836 -0.992188,-0.49609 q -0.09922,-0.19844 -0.248046,-0.39688 -0.148829,-0.19843 -0.198438,-0.44648 -0.04961,-0.24805 -0.09922,-0.44649 -0.04961,-0.19843 -0.04961,-0.49609 h -0.198438 q -0.496093,0.0992 -0.942578,0.19844 -0.446484,0.0992 -0.942578,0.14883 -0.496094,0.0496 -1.041797,0.0496 -0.545703,0 -1.041797,0 -0.496093,-0.0992 -0.942578,-0.24805 -0.446484,-0.14883 -0.843359,-0.4961 -0.396875,-0.34726 -0.79375,-0.64492 -0.396875,-0.29765 -0.79375,-0.69453 -0.396875,-0.49609 -0.79375,-1.04179 -0.396875,-0.54571 -0.545703,-1.19063 -0.148828,-0.64492 -0.248047,-1.33945 -0.09922,-0.69453 -0.09922,-1.38907 0.198438,-0.69453 0.297657,-1.38906 0.09922,-0.69453 0.496093,-1.28984 0.396875,-0.59531 0.79375,-1.19063 0.396875,-0.59531 0.992188,-1.0914 0.694531,-0.59532 1.5875,-0.99219 0.892968,-0.39688 1.785937,-0.64492 0.892969,-0.24805 1.785938,-0.4961 0.892968,-0.24804 1.885156,-0.24804 l 0.09922,-4.16719 q -1.091407,0 -2.133203,-0.0496 -1.041797,-0.0496 -2.083594,-0.0992 -1.041797,-0.0496 -2.083594,-0.14883 -1.041797,-0.0992 -1.934765,-0.59531 -0.09922,-0.19844 -0.248047,-0.39687 -0.148828,-0.19844 -0.198438,-0.44649 -0.04961,-0.24805 -0.04961,-0.44648 0,-0.19844 0,-0.4961 l 0.496094,-0.99218 q 0.297656,-0.19844 0.644921,-0.34727 0.347266,-0.14883 0.744141,-0.14883 0.396875,0 0.79375,0 0.396875,0 0.79375,0 0.595312,0.19844 1.289844,0.19844 0.694531,0 1.389062,0.0496 0.694531,0.0496 1.389063,0.0496 0.694531,0 1.389062,0 0,-0.69453 0,-1.38906 0,-0.69454 0,-1.38907 0,-0.69453 0.198438,-1.28984 0.198437,-0.59531 0.595312,-1.09141 0.198438,-0.0992 0.396875,-0.24804 0.198438,-0.14883 0.446484,-0.19844 0.248047,-0.0496 0.446485,-0.0496 0.198437,0 0.496094,0 l 1.091406,0.49609 q 0.09922,0.19844 0.248047,0.39688 0.148828,0.19844 0.198437,0.44648 0.04961,0.24805 0.04961,0.4961 0,0.24804 0,0.5457 -0.198438,0.39687 -0.198438,0.84336 0,0.44648 0,0.94258 0,0.49609 0,0.94258 0,0.44648 0,0.94257 1.091406,0.19844 2.282031,0.29766 1.190625,0.0992 2.282032,0.34727 1.091406,0.24804 2.33164,0.19843 1.240234,-0.0496 2.133203,0.64492 0.09922,0.19844 0.248047,0.39688 0.148828,0.19844 0.248047,0.44648 0.09922,0.24805 0.09922,0.4961 0,0.24804 0,0.5457 l -0.496094,0.99219 q -0.198438,0.0992 -0.396875,0.24805 -0.198438,0.14882 -0.446484,0.19843 -0.248047,0.0496 -0.446485,0.0496 -0.198437,0 -0.496094,0 -0.992187,-0.0992 -1.934765,-0.24804 -0.942578,-0.14883 -1.835547,-0.29766 -0.892969,-0.14883 -1.885156,-0.19844 -0.992188,-0.0496 -1.984375,-0.14883 v 3.77032 l 3.373437,0.69453 q 0.09922,-0.39688 0.248047,-0.69453 0.148828,-0.29766 0.198438,-0.69454 0.04961,-0.39687 0.248047,-0.69453 0.198437,-0.29765 0.396875,-0.59531 0.198437,-0.0992 0.396875,-0.29766 0.198437,-0.19843 0.446484,-0.24804 0.248047,-0.0496 0.446484,-0.0496 0.198438,0 0.496094,0 l 0.992187,0.59531 q 0.09922,0.19844 0.248047,0.39688 0.148828,0.19843 0.198438,0.44648 0.04961,0.24805 0.04961,0.49609 0,0.24805 0,0.54571 l -0.892969,3.175 1.686719,1.88515 q 0.297656,0.59532 0.446485,1.19063 0.148828,0.59531 0.248046,1.24023 0.09922,0.64492 0.09922,1.28985 0,0.64492 0,1.33945 -0.198437,0.59531 -0.248047,1.19062 -0.04961,0.59532 -0.297656,1.14102 -0.248047,0.5457 -0.446484,1.09141 -0.198438,0.5457 -0.496094,1.04179 -0.198438,0.0992 -0.396875,0.24805 -0.198438,0.14883 -0.446484,0.24805 -0.248047,0.0992 -0.496094,0.0992 -0.248047,0 -0.545703,0 l -0.992188,-0.4961 q -0.09922,-0.19844 -0.248047,-0.34726 -0.148828,-0.14883 -0.148828,-0.39688 0,-0.24805 -0.09922,-0.44648 -0.09922,-0.19844 -0.09922,-0.39688 0.09922,-0.59531 0.396875,-1.19062 0.297656,-0.59532 0.496093,-1.24024 0.198438,-0.64492 0.198438,-1.33945 0,-0.69453 0,-1.38906 l -0.694531,-1.09141 q -0.396875,0.79375 -0.992188,1.53789 -0.595312,0.74414 -1.289843,1.48828 -0.694532,0.74414 -1.438672,1.33946 -0.744141,0.59531 -1.438672,1.28984 0,0.39687 0,0.84336 0,0.44648 0,0.89297 0,0.44648 -0.09922,0.84336 -0.09922,0.39687 -0.496094,0.69453 -0.198437,0.0992 -0.396875,0.24804 -0.198437,0.14883 -0.446484,0.19844 -0.248047,0.0496 -0.446484,0.0496 -0.198438,0 -0.496094,0 z m -1.686719,-6.35 v -1.68672 l 0.198438,-4.36562 h -0.396875 q -0.496094,0.19844 -1.041797,0.39687 -0.545703,0.19844 -1.091406,0.29766 -0.545704,0.0992 -1.091407,0.39687 -0.545703,0.29766 -0.942578,0.69454 -0.198437,0.29765 -0.446484,0.59531 -0.248047,0.29765 -0.347266,0.69453 -0.09922,0.39687 -0.09922,0.79375 0,0.39687 0,0.79375 0.198438,0.19844 0.248047,0.44648 0.04961,0.24805 0.198438,0.44649 0.148828,0.19844 0.347265,0.39687 0.198438,0.19844 0.396875,0.39688 0.198438,0.19844 0.446485,0.24805 0.248047,0.0496 0.545703,0.0496 0.297656,0 0.545703,0 0.248047,0 0.545703,0 z m 4.266406,-2.77812 q 0.297657,-0.29766 0.545703,-0.59532 0.248047,-0.29765 0.446485,-0.64492 0.198437,-0.34726 0.496094,-0.69453 0.297656,-0.34726 0.297656,-0.74414 l -1.885156,-0.49609 -0.09922,3.175 0.09922,0.0992 z" />
        <path
           id="path865"
           style="font-style:normal;font-variant:normal;font-weight:normal;font-stretch:normal;font-size:50.79999924px;line-height:14.25;font-family:uzura_font;-inkscape-font-specification:uzura_font;fill:#fa58f4;fill-opacity:1;stroke:#ffffff;stroke-width:1.5;stroke-miterlimit:4;stroke-dasharray:none;stroke-dashoffset:0;stroke-opacity:1"
           d="m 130.51518,254.4068 q -0.69453,-0.19844 -1.33946,-0.34727 -0.64492,-0.14882 -1.19062,-0.49609 -0.5457,-0.34727 -1.09141,-0.84336 -0.5457,-0.49609 -1.04179,-0.99219 -0.89297,-1.19062 -1.43868,-2.48047 -0.5457,-1.28984 -0.74414,-2.77812 -0.19843,-1.48828 -0.64492,-2.87734 -0.44648,-1.38907 -1.43867,-2.48047 -0.49609,-0.39688 -1.0418,-0.74414 -0.5457,-0.34727 -1.0914,-0.54571 -0.54571,-0.19843 -1.14102,-0.29765 -0.59531,-0.0992 -1.28984,0 -0.59531,0.19843 -1.19063,0.19843 -0.59531,0 -1.0914,0.29766 -0.4961,0.29766 -0.99219,0.64492 -0.49609,0.34727 -0.99219,0.74414 -0.49609,1.48828 -0.99219,3.02618 -0.49609,1.53789 -1.0914,2.97656 -0.59531,1.43867 -0.99219,3.02617 -0.39687,1.5875 -1.09141,2.97656 -0.19843,0.0992 -0.39687,0.24805 -0.19844,0.14883 -0.44649,0.19844 -0.24804,0.0496 -0.49609,0.0496 -0.24805,0 -0.5457,0 l -0.99219,-0.4961 q -0.0992,-0.19844 -0.24805,-0.39687 -0.14882,-0.19844 -0.19843,-0.44649 -0.0496,-0.24804 -0.0496,-0.44648 0,-0.19844 0,-0.4961 1.28984,-3.96875 2.62929,-7.88789 1.33946,-3.91914 2.57969,-7.9375 1.24024,-4.01836 2.77813,-7.88789 1.53789,-3.86953 2.92695,-7.73906 0.19844,-0.0992 0.39687,-0.24805 0.19844,-0.14882 0.44649,-0.19843 0.24805,-0.0496 0.44648,-0.0496 0.19844,0 0.4961,0 l 0.99218,0.49609 q 0.0992,0.19844 0.24805,0.44649 0.14883,0.24804 0.19844,0.5457 0.0496,0.29765 0.0496,0.59531 0,0.29766 0,0.59531 -0.39688,1.78594 -1.09141,3.42305 -0.69453,1.63711 -1.38906,3.27422 -0.69453,1.63711 -1.24024,3.27422 -0.5457,1.63711 -1.04179,3.52226 h 1.48828 q 0.29766,-0.0992 0.64492,-0.19843 0.34727,-0.0992 0.69453,-0.0992 0.34727,0 0.64492,0 0.29766,0 0.69454,0 0.59531,0.29765 1.28984,0.39687 0.69453,0.0992 1.24023,0.39688 0.54571,0.29765 1.09141,0.64492 0.5457,0.34726 1.0418,0.64492 v 0.19844 l 0.89297,0.49609 v 0.19844 h 0.19843 q 0.99219,1.28984 1.68672,2.6293 0.69453,1.33945 0.89297,2.92695 0.19844,1.5875 0.64492,3.07578 0.44649,1.48828 1.63711,2.67891 0.29766,0.19843 0.59531,0.34726 0.29766,0.14883 0.59532,0.24805 0.29765,0.0992 0.59531,0.0992 0.29766,0 0.69453,0 0.19844,-0.19844 0.49609,-0.19844 0.29766,0 0.54571,-0.14883 0.24804,-0.14883 0.49609,-0.29765 0.24805,-0.14883 0.44649,-0.34727 l 1.19062,-2.08359 q 0.19844,-0.0992 0.39688,-0.24805 0.19843,-0.14883 0.44648,-0.24805 0.24805,-0.0992 0.49609,-0.0992 0.24805,0 0.54571,0 l 0.99218,0.4961 q 0.0992,0.19844 0.24805,0.39687 0.14883,0.19844 0.19844,0.44649 0.0496,0.24804 0.0496,0.49609 0,0.24805 0,0.5457 -0.19844,0.39688 -0.39688,0.84336 -0.19843,0.44649 -0.44648,0.84336 -0.24805,0.39688 -0.5457,0.79375 -0.29766,0.39688 -0.4961,0.79375 h -0.19844 v 0.19844 q -0.69453,0.39688 -1.33945,0.74414 -0.64492,0.34727 -1.38906,0.59531 -0.74414,0.24805 -1.48828,0.34727 -0.74414,0.0992 -1.63711,0 z" />
        <path
           id="path867"
           style="font-style:normal;font-variant:normal;font-weight:normal;font-stretch:normal;font-size:50.79999924px;line-height:14.25;font-family:uzura_font;-inkscape-font-specification:uzura_font;fill:#fa58f4;fill-opacity:1;stroke:#ffffff;stroke-width:1.5;stroke-miterlimit:4;stroke-dasharray:none;stroke-dashoffset:0;stroke-opacity:1"
           d="m 161.96752,255.69664 -0.99219,-0.49609 q -0.69453,-1.28984 -0.59531,-2.87734 0.0992,-1.5875 -0.0496,-3.07579 -0.14883,-1.48828 -0.14883,-3.02617 0,-1.53789 0,-3.12539 h -0.19844 l -1.88515,3.27422 q -0.19844,0.0992 -0.39688,0.24805 -0.19844,0.14883 -0.44648,0.19844 -0.24805,0.0496 -0.44649,0.0496 -0.19844,0 -0.49609,0 l -0.99219,-0.49609 q -0.0992,-0.19844 -0.24805,-0.39687 -0.14882,-0.19844 -0.19843,-0.44649 -0.0496,-0.24805 -0.0496,-0.49609 0,-0.24805 0,-0.54571 0.59531,-1.38906 1.43867,-2.6789 0.84336,-1.28985 1.68672,-2.6293 0.84336,-1.33945 1.73633,-2.6293 0.89296,-1.28984 0.49609,-3.07578 -0.0992,-0.59531 -0.14883,-1.14101 -0.0496,-0.54571 -0.0496,-1.14102 0,-0.59531 0,-1.19062 0,-0.59532 0,-1.19063 h -1.0914 l -3.96875,0.39688 -0.99219,-0.4961 q -0.0992,-0.19843 -0.24805,-0.39687 -0.14883,-0.19844 -0.19844,-0.44649 -0.0496,-0.24804 -0.0496,-0.44648 0,-0.19844 0,-0.49609 l 0.4961,-0.99219 q 0.59531,-0.4961 1.43867,-0.5457 0.84336,-0.0496 1.63711,-0.14883 0.79375,-0.0992 1.5875,-0.19844 0.79375,-0.0992 1.5875,-0.19844 v -0.29765 l -0.0992,-0.79375 0.19844,-4.46485 -0.0992,-1.28984 q 0.0992,-0.19844 0.14883,-0.34727 0.0496,-0.14883 0.0992,-0.34726 0.0496,-0.19844 0.14882,-0.34727 0.0992,-0.14883 0.19844,-0.34726 0.19844,-0.0992 0.39688,-0.24805 0.19843,-0.14883 0.44648,-0.19844 0.24805,-0.0496 0.44649,-0.0496 0.19843,0 0.49609,0 l 0.99219,0.4961 q 0.39687,0.39687 0.44648,0.94257 0.0496,0.54571 0.0496,1.09141 0,0.5457 0.0992,1.0418 0.0992,0.49609 0,1.0914 l -0.19844,3.6711 q 0.29766,0.19843 0.79375,0.19843 0.4961,0 0.94258,0 0.44648,0 0.84336,0.0992 0.39687,0.0992 0.69453,0.39688 0.0992,0.19844 0.24805,0.39687 0.14883,0.19844 0.19844,0.44649 0.0496,0.24804 0.0496,0.44648 0,0.19844 0,0.4961 l -0.49609,0.99218 q -0.29766,0.29766 -0.74414,0.39688 -0.44648,0.0992 -0.84336,0.14883 -0.39687,0.0496 -0.84336,0.0496 -0.44648,0 -0.94258,0 v 3.67109 l 0.39688,0.0992 q 1.48828,-0.99219 3.12539,-1.68672 1.63711,-0.69453 3.42305,-1.19063 1.78593,-0.49609 3.57187,-0.74414 1.78594,-0.24804 3.67109,-0.24804 1.28985,0.0992 2.53008,0.34726 1.24024,0.24805 2.28203,0.84336 1.0418,0.59531 2.0836,1.38906 1.04179,0.79375 1.93476,1.78594 l 0.4961,0.4961 q 0.49609,0.69453 0.79375,1.48828 0.29765,0.79375 0.49609,1.68672 0.19844,0.89296 0.34727,1.73632 0.14882,0.84336 0.24804,1.73633 0.4961,0.19844 1.09141,0.29766 0.59531,0.0992 1.09141,0.29765 0.49609,0.19844 0.99218,0.4961 0.4961,0.29765 0.99219,0.59531 0.0992,0.19844 0.24805,0.39688 0.14883,0.19843 0.24804,0.44648 0.0992,0.24805 0.0992,0.49609 0,0.24805 0,0.54571 l -0.49609,0.99218 q -0.19844,0.0992 -0.39688,0.24805 -0.19843,0.14883 -0.44648,0.19844 -0.24805,0.0496 -0.49609,0.0496 -0.24805,0 -0.54571,0 l -2.28203,-0.99219 q 0.0992,1.28984 -0.19844,2.38125 -0.29765,1.09141 -0.74414,2.1332 -0.44648,1.0418 -1.04179,2.03399 -0.59532,0.99219 -1.5875,1.78594 -0.79375,0.59531 -1.63711,0.89296 -0.84336,0.29766 -1.73633,0.4961 -0.89297,0.19844 -1.88516,0.29765 -0.99218,0.0992 -1.98437,0.0992 -0.59531,-0.19843 -1.24024,-0.34726 -0.64492,-0.14883 -1.19062,-0.44649 -0.5457,-0.29765 -1.09141,-0.59531 -0.5457,-0.29766 -1.04179,-0.89297 -0.39688,-0.49609 -0.69454,-1.0914 -0.29765,-0.59532 -0.49609,-1.19063 -0.19844,-0.59531 -0.29766,-1.24023 -0.0992,-0.64493 -0.0992,-1.33946 0.19843,-0.59531 0.29765,-1.19062 0.0992,-0.59531 0.24805,-1.19063 0.14883,-0.59531 0.49609,-1.14101 0.34727,-0.54571 0.74414,-1.0418 1.19063,-0.99219 2.43086,-1.68672 1.24024,-0.69453 2.67891,-0.94258 1.43867,-0.24804 2.92695,-0.39687 1.48828,-0.14883 3.07578,-0.0496 v -0.39688 q -0.0992,-0.69453 -0.29765,-1.33945 -0.19844,-0.64492 -0.44649,-1.33945 -0.24804,-0.69453 -0.79375,-1.19063 -0.5457,-0.49609 -1.04179,-0.99218 -0.79375,-0.39688 -1.48829,-0.89297 -0.69453,-0.4961 -1.5875,-0.64492 -0.89296,-0.14883 -1.83554,-0.19844 -0.94258,-0.0496 -1.83555,-0.0496 -1.68672,0.0992 -3.175,0.5457 -1.48828,0.44649 -3.07578,1.0418 -1.5875,0.59531 -2.97656,1.43867 -1.38907,0.84336 -2.57969,2.03398 l -0.0992,0.0992 v 10.21953 l 0.19844,6.54844 -0.4961,0.99219 q -0.19843,0.0992 -0.39687,0.24805 -0.19844,0.14882 -0.44648,0.19843 -0.24805,0.0496 -0.44649,0.0496 -0.19844,0 -0.49609,0 z m 21.43125,-6.44922 q 0.59531,-0.59531 0.94257,-1.33945 0.34727,-0.74414 0.69454,-1.43867 0.34726,-0.69453 0.39687,-1.53789 0.0496,-0.84336 0.14883,-1.73633 h -3.27422 q -0.69453,0.0992 -1.43867,0.24805 -0.74414,0.14883 -1.43867,0.29765 -0.69453,0.14883 -1.28985,0.54571 -0.59531,0.39687 -1.19062,0.89297 -0.19844,0.29765 -0.34727,0.64492 -0.14883,0.34726 -0.19843,0.69453 -0.0496,0.34726 -0.0992,0.69453 -0.0496,0.34727 -0.0496,0.74414 l 0.59531,1.38906 q 0.39687,0.0992 0.74414,0.34727 0.34727,0.24805 0.74414,0.39687 0.39688,0.14883 0.84336,0.14883 0.44648,0 0.94258,0 0.39687,-0.0992 0.84336,-0.14883 0.44648,-0.0496 0.84336,-0.19843 0.39687,-0.14883 0.79375,-0.29766 0.39687,-0.14883 0.79375,-0.34727 z" />
        <path
           id="path869"
           style="font-style:normal;font-variant:normal;font-weight:normal;font-stretch:normal;font-size:50.79999924px;line-height:14.25;font-family:uzura_font;-inkscape-font-specification:uzura_font;fill:#fa58f4;fill-opacity:1;stroke:#ffffff;stroke-width:1.5;stroke-miterlimit:4;stroke-dasharray:none;stroke-dashoffset:0;stroke-opacity:1"
           d="m 228.34486,253.51383 -0.99218,-0.49609 q -0.0992,-0.19844 -0.24805,-0.39688 -0.14883,-0.19844 -0.19844,-0.44648 -0.0496,-0.24805 -0.0496,-0.4961 0,-0.24804 0,-0.5457 l 0.4961,-0.99219 0.69453,-0.69453 2.38125,-2.28203 q 0.0992,-0.59531 0.29765,-1.19062 0.19844,-0.59532 0.19844,-1.28985 0,-0.69453 0,-1.33945 0,-0.64492 0,-1.33945 -0.19844,-0.29766 -0.24805,-0.59532 -0.0496,-0.29765 -0.24804,-0.5457 -0.19844,-0.24805 -0.34727,-0.49609 -0.14883,-0.24805 -0.44648,-0.44649 -1.09141,-0.69453 -2.33164,-1.14101 -1.24024,-0.44649 -2.6293,-0.4961 -1.38906,-0.0496 -2.82773,-0.0496 -1.43868,0 -2.82774,0 -1.0914,0 -2.18281,0.14883 -1.09141,0.14883 -2.1332,0.39688 -1.0418,0.24804 -2.0836,0.44648 -1.04179,0.19844 -2.1332,0.29766 l -0.99219,-0.4961 q -0.0992,-0.19843 -0.24805,-0.39687 -0.14882,-0.19844 -0.19843,-0.44649 -0.0496,-0.24804 -0.0496,-0.44648 0,-0.19844 0,-0.49609 l 0.49609,-0.99219 q 1.68672,-0.79375 3.52227,-1.19063 1.83554,-0.39687 3.67109,-0.59531 1.83555,-0.19844 3.81992,-0.19844 1.98438,0 3.96875,0 1.09141,0.0992 2.23242,0.29766 1.14102,0.19844 2.13321,0.5457 0.99218,0.34727 1.93476,0.94258 0.94258,0.59531 1.83555,1.38906 0.69453,0.79375 1.24023,1.63711 0.54571,0.84336 0.74414,1.83555 0.19844,0.99219 0.19844,2.03398 0,1.0418 0,2.13321 -0.19844,0.89297 -0.34726,1.78593 -0.14883,0.89297 -0.39688,1.73633 -0.24805,0.84336 -0.94258,1.48828 -0.69453,0.64493 -1.38906,1.33946 l -1.09141,1.0914 -0.49609,0.4961 q -0.19844,0.0992 -0.39687,0.24804 -0.19844,0.14883 -0.44649,0.19844 -0.24805,0.0496 -0.44648,0.0496 -0.19844,0 -0.4961,0 z" />
        <path
           id="path871"
           style="font-style:normal;font-variant:normal;font-weight:normal;font-stretch:normal;font-size:50.79999924px;line-height:14.25;font-family:uzura_font;-inkscape-font-specification:uzura_font;fill:#fa58f4;fill-opacity:1;stroke:#ffffff;stroke-width:1.5;stroke-miterlimit:4;stroke-dasharray:none;stroke-dashoffset:0;stroke-opacity:1"
           d="m 273.29096,254.70446 q -1.09141,-0.19844 -2.23242,-0.29766 -1.14102,-0.0992 -2.08359,-0.49609 -0.94258,-0.39688 -1.83555,-0.99219 -0.89297,-0.59531 -1.68672,-1.38906 -0.79375,-0.89297 -1.28984,-1.88516 -0.4961,-0.99219 -0.74414,-2.08359 -0.24805,-1.09141 -0.44649,-2.23243 -0.19844,-1.14101 -0.19844,-2.33164 0.0992,-1.0914 0.4961,-2.03398 0.39687,-0.94258 0.99218,-1.78594 0.59532,-0.84336 1.24024,-1.68672 0.64492,-0.84336 1.14101,-1.73633 -1.19062,-1.88515 -2.1332,-3.86953 -0.94258,-1.98437 -1.73633,-3.96875 -0.79375,-1.98437 -1.5875,-3.96875 -0.79375,-1.98437 -1.19062,-4.16718 l 0.49609,-0.99219 q 0.19844,-0.0992 0.39688,-0.24805 0.19843,-0.14883 0.44648,-0.19844 0.24805,-0.0496 0.44649,-0.0496 0.19843,0 0.49609,0 l 0.99219,0.4961 q 0.89297,1.68672 1.53789,3.52226 0.64492,1.83555 1.38906,3.62149 0.74414,1.78594 1.53789,3.52226 0.79375,1.73633 1.68672,3.52227 l 0.39687,0.0992 q 1.48829,-1.09141 3.12539,-1.98438 1.63711,-0.89297 3.37344,-1.53789 1.73633,-0.64492 3.47266,-1.24023 1.73633,-0.59531 3.7207,-0.39688 l 0.99219,0.4961 q 0.0992,0.19843 0.24805,0.39687 0.14882,0.19844 0.19843,0.44649 0.0496,0.24804 0.0496,0.44648 0,0.19844 0,0.49609 l -0.49609,0.99219 q -1.78594,0.39688 -3.62149,0.94258 -1.83554,0.5457 -3.57187,1.24023 -1.73633,0.69454 -3.37344,1.73633 -1.63711,1.0418 -3.22461,2.13321 l -0.0992,0.19843 q -0.59531,0.4961 -1.0914,1.14102 -0.4961,0.64492 -0.99219,1.28984 -0.49609,0.64492 -0.89297,1.28985 -0.39687,0.64492 -0.79375,1.33945 l -0.19844,1.5875 q 0.0992,0.69453 0.19844,1.38906 0.0992,0.69453 0.34727,1.33946 0.24804,0.64492 0.5457,1.28984 0.29766,0.64492 0.89297,1.14101 0.89297,0.79375 1.98437,1.14102 1.09141,0.34727 2.38125,0.39687 1.28985,0.0496 2.53008,0.0496 1.24024,0 2.43086,0 0.89297,-0.39687 1.88516,-0.34726 0.99219,0.0496 1.93476,-0.14883 0.94258,-0.19844 1.73633,-0.74414 0.79375,-0.5457 1.88516,-0.44648 l 0.99219,0.49609 q 0.0992,0.19844 0.24804,0.39687 0.14883,0.19844 0.19844,0.44649 0.0496,0.24805 0.0496,0.49609 0,0.24805 0,0.54571 l -0.49609,0.99218 q -1.38907,0.99219 -2.97657,1.38907 -1.5875,0.39687 -3.27422,0.49609 -1.68671,0.0992 -3.37343,0.24805 -1.68672,0.14882 -3.47266,0.0496 z" />
      </g>
      <g
         id="text4677"
         style="font-style:normal;font-variant:normal;font-weight:normal;font-stretch:normal;font-size:25.39999962px;line-height:1.25;font-family:Jiyucho;-inkscape-font-specification:Jiyucho;letter-spacing:0px;word-spacing:0px;fill:#fa58f4;fill-opacity:1;stroke:#ffffff;stroke-width:1.39999998;stroke-miterlimit:4;stroke-dasharray:none;stroke-opacity:1"
         aria-label="kimisaki-fan.net">
        <path
           id="path874"
           style="font-style:normal;font-variant:normal;font-weight:normal;font-stretch:normal;font-size:25.39999962px;font-family:Jiyucho;-inkscape-font-specification:Jiyucho;fill:#fa58f4;fill-opacity:1;stroke:#ffffff;stroke-width:1.39999998;stroke-miterlimit:4;stroke-dasharray:none;stroke-opacity:1"
           d="m 60.223417,289.05779 -1.016992,-0.49609 -2.480469,-6.47402 -0.297656,-0.0992 -0.595313,0.69453 v 5.38262 l -0.297656,0.59531 q -0.892969,0.49609 -1.984375,0.39687 l -0.917774,-0.39687 -0.297656,-0.59531 v -20.53828 l 0.297656,-0.59532 q 0.917774,-0.49609 2.00918,-0.39687 l 0.892969,0.39687 0.297656,0.59532 v 10.0707 h 0.198438 l 0.992187,-1.09141 h 0.198438 l 1.785937,-2.30683 q 0.917774,-0.4961 2.00918,-0.39688 l 0.892968,0.39688 q 0.396875,0.71933 0.297657,1.6123 l -1.488282,2.08359 -1.215429,1.19063 v 0.39687 q 0.818555,2.00918 1.711523,4.192 0.892969,2.18281 1.289844,4.39043 l -0.297656,0.59531 q -0.892969,0.49609 -1.984375,0.39687 z" />
        <path
           id="path876"
           style="font-style:normal;font-variant:normal;font-weight:normal;font-stretch:normal;font-size:25.39999962px;font-family:Jiyucho;-inkscape-font-specification:Jiyucho;fill:#fa58f4;fill-opacity:1;stroke:#ffffff;stroke-width:1.39999998;stroke-miterlimit:4;stroke-dasharray:none;stroke-opacity:1"
           d="m 69.425956,289.05779 -0.892969,-0.39687 q -0.595313,-2.00918 -0.496094,-4.29121 v -9.54981 l 0.297656,-0.59531 q 0.892969,-0.5209 1.984375,-0.42168 l 0.892969,0.42168 0.297656,0.59531 v 8.65684 l 0.198438,4.58887 -0.297656,0.59531 q -0.892969,0.49609 -1.984375,0.39687 z m -0.272852,-17.14003 -0.892969,-0.39688 q -0.396875,-0.69453 -0.297656,-1.5875 l 0.297656,-0.59531 q 0.892969,-0.4961 2.00918,-0.39688 l 0.892969,0.39688 q 0.396875,0.69453 0.297656,1.5875 l -0.297656,0.59531 q -0.892969,0.49609 -2.00918,0.39688 z" />
        <path
           id="path878"
           style="font-style:normal;font-variant:normal;font-weight:normal;font-stretch:normal;font-size:25.39999962px;font-family:Jiyucho;-inkscape-font-specification:Jiyucho;fill:#fa58f4;fill-opacity:1;stroke:#ffffff;stroke-width:1.39999998;stroke-miterlimit:4;stroke-dasharray:none;stroke-opacity:1"
           d="m 78.033182,289.05779 q -0.694531,-0.29765 -0.992187,-0.99218 l -0.198438,-1.31465 v -3.86953 l -0.09922,-0.0992 v -7.56543 l 0.595313,-1.11621 q 0.496094,-0.39688 1.289844,-0.29766 l 1.116211,0.69453 2.282031,-0.69453 1.190625,0.62012 q 1.289843,-0.91777 3.100586,-0.62012 0.992187,0.4961 1.389062,1.51309 0.396875,0.89297 0.496094,1.88515 v 10.86446 q -0.297656,0.69453 -0.992188,0.99218 h -0.79375 q -0.694531,-0.29765 -1.016992,-0.99218 l -0.09922,-0.39688 v -10.0707 q 0,-0.59531 -0.396875,-0.79375 l -0.297656,0.0992 -0.595312,0.89297 v 10.26914 q -0.297657,0.69453 -0.992188,0.99218 h -0.79375 q -0.79375,-0.39687 -1.091406,-1.19062 V 276.9035 h -0.297656 l -1.190625,0.99218 v 4.48965 l 0.09922,0.0992 v 3.77031 l 0.09922,1.81075 q -0.297656,0.69453 -1.016992,0.99218 z" />
        <path
           id="path880"
           style="font-style:normal;font-variant:normal;font-weight:normal;font-stretch:normal;font-size:25.39999962px;font-family:Jiyucho;-inkscape-font-specification:Jiyucho;fill:#fa58f4;fill-opacity:1;stroke:#ffffff;stroke-width:1.39999998;stroke-miterlimit:4;stroke-dasharray:none;stroke-opacity:1"
           d="m 94.825954,289.05779 -0.892968,-0.39687 q -0.595313,-2.00918 -0.496094,-4.29121 v -9.54981 l 0.297656,-0.59531 q 0.892969,-0.5209 1.984375,-0.42168 l 0.892969,0.42168 0.297656,0.59531 v 8.65684 l 0.198438,4.58887 -0.297657,0.59531 q -0.892968,0.49609 -1.984375,0.39687 z m -0.272851,-17.14003 -0.892969,-0.39688 q -0.396875,-0.69453 -0.297656,-1.5875 l 0.297656,-0.59531 q 0.892969,-0.4961 2.00918,-0.39688 l 0.892968,0.39688 q 0.396875,0.69453 0.297657,1.5875 l -0.297657,0.59531 q -0.892968,0.49609 -2.009179,0.39688 z" />
        <path
           id="path882"
           style="font-style:normal;font-variant:normal;font-weight:normal;font-stretch:normal;font-size:25.39999962px;font-family:Jiyucho;-inkscape-font-specification:Jiyucho;fill:#fa58f4;fill-opacity:1;stroke:#ffffff;stroke-width:1.39999998;stroke-miterlimit:4;stroke-dasharray:none;stroke-opacity:1"
           d="m 106.93064,288.95858 q -2.28203,-0.29766 -4.09277,-1.90997 -0.89297,-0.89296 -0.69453,-2.18281 l 0.29765,-0.59531 q 0.89297,-0.49609 2.00918,-0.39688 l 0.99219,0.4961 q 0.4961,0.89297 1.38906,1.38906 l 1.38907,0.29766 1.28984,-0.59532 q 0.39688,-0.49609 0.29766,-1.19062 l -0.79375,-1.38906 q -1.28985,-0.69453 -2.72852,-0.99219 -1.43867,-0.29766 -2.6541,-1.31465 -1.19063,-1.48828 -0.79375,-3.57187 l 1.09141,-1.88516 q 2.00918,-1.6123 4.7873,-1.21543 2.30684,0.39688 4.19199,2.00918 0.39688,0.59531 0.29766,1.48828 l -0.29766,0.59531 q -0.99219,0.59532 -2.18281,0.39688 -1.51309,-1.09141 -3.29902,-1.48828 -0.89297,0.39687 -1.09141,1.28984 1.38906,0.99219 2.97656,1.28984 1.61231,0.29766 2.90215,1.51309 0.79375,0.99219 0.99219,2.28203 0.19844,1.28985 0.0992,2.67891 l -0.89297,1.71152 q -1.09141,0.89297 -2.50527,1.14102 -1.38907,0.24804 -2.97657,0.14883 z" />
        <path
           id="path884"
           style="font-style:normal;font-variant:normal;font-weight:normal;font-stretch:normal;font-size:25.39999962px;font-family:Jiyucho;-inkscape-font-specification:Jiyucho;fill:#fa58f4;fill-opacity:1;stroke:#ffffff;stroke-width:1.39999998;stroke-miterlimit:4;stroke-dasharray:none;stroke-opacity:1"
           d="m 118.63846,289.05779 q -1.61231,-0.29765 -2.90215,-1.38906 -1.19063,-1.6123 -0.89297,-3.79512 0.0992,-2.18281 1.68672,-4.09277 1.21543,-0.89297 2.75332,-0.89297 1.53789,0 3.12539,0 v -0.49609 l -0.4961,-1.28985 -1.48828,-0.39687 q -2.18281,0.49609 -4.48965,0.59531 l -0.89296,-0.39687 q -0.39688,-0.59532 -0.29766,-1.48828 l 0.29766,-0.59532 q 1.68671,-0.62011 3.47265,-0.86816 1.81074,-0.24805 3.79512,-0.14883 1.6123,0.39688 2.90215,1.61231 0.69453,1.19062 0.69453,2.72851 0,1.53789 0,3.05098 l -0.0992,0.0992 v 3.86953 q 0.49609,1.38906 0.69453,2.90215 l -0.29765,0.59531 q -0.89297,0.49609 -2.0836,0.39687 l -0.91777,-0.39687 q -2.0836,0.59531 -4.56406,0.39687 z m 3.27421,-3.29902 0.39688,-0.29766 v -3.37343 q -1.19063,-0.4961 -2.57969,-0.29766 -0.69453,0.39688 -0.99219,1.19063 -0.39687,0.79375 -0.29765,2.18281 l 0.99219,0.89297 1.19062,0.0992 z" />
        <path
           id="path886"
           style="font-style:normal;font-variant:normal;font-weight:normal;font-stretch:normal;font-size:25.39999962px;font-family:Jiyucho;-inkscape-font-specification:Jiyucho;fill:#fa58f4;fill-opacity:1;stroke:#ffffff;stroke-width:1.39999998;stroke-miterlimit:4;stroke-dasharray:none;stroke-opacity:1"
           d="m 136.42341,289.05779 -1.01699,-0.49609 -2.48047,-6.47402 -0.29765,-0.0992 -0.59532,0.69453 v 5.38262 l -0.29765,0.59531 q -0.89297,0.49609 -1.98438,0.39687 l -0.91777,-0.39687 -0.29766,-0.59531 v -20.53828 l 0.29766,-0.59532 q 0.91777,-0.49609 2.00918,-0.39687 l 0.89297,0.39687 0.29765,0.59532 v 10.0707 h 0.19844 l 0.99219,-1.09141 h 0.19844 l 1.78593,-2.30683 q 0.91778,-0.4961 2.00918,-0.39688 l 0.89297,0.39688 q 0.39688,0.71933 0.29766,1.6123 l -1.48828,2.08359 -1.21543,1.19063 v 0.39687 q 0.81855,2.00918 1.71152,4.192 0.89297,2.18281 1.28984,4.39043 l -0.29765,0.59531 q -0.89297,0.49609 -1.98438,0.39687 z" />
        <path
           id="path888"
           style="font-style:normal;font-variant:normal;font-weight:normal;font-stretch:normal;font-size:25.39999962px;font-family:Jiyucho;-inkscape-font-specification:Jiyucho;fill:#fa58f4;fill-opacity:1;stroke:#ffffff;stroke-width:1.39999998;stroke-miterlimit:4;stroke-dasharray:none;stroke-opacity:1"
           d="m 145.62596,289.05779 -0.89297,-0.39687 q -0.59531,-2.00918 -0.4961,-4.29121 v -9.54981 l 0.29766,-0.59531 q 0.89297,-0.5209 1.98438,-0.42168 l 0.89296,0.42168 0.29766,0.59531 v 8.65684 l 0.19844,4.58887 -0.29766,0.59531 q -0.89297,0.49609 -1.98437,0.39687 z m -0.27285,-17.14003 -0.89297,-0.39688 q -0.39688,-0.69453 -0.29766,-1.5875 l 0.29766,-0.59531 q 0.89297,-0.4961 2.00918,-0.39688 l 0.89297,0.39688 q 0.39687,0.69453 0.29765,1.5875 l -0.29765,0.59531 q -0.89297,0.49609 -2.00918,0.39688 z" />
        <path
           id="path890"
           style="font-style:normal;font-variant:normal;font-weight:normal;font-stretch:normal;font-size:25.39999962px;font-family:Jiyucho;-inkscape-font-specification:Jiyucho;fill:#fa58f4;fill-opacity:1;stroke:#ffffff;stroke-width:1.39999998;stroke-miterlimit:4;stroke-dasharray:none;stroke-opacity:1"
           d="m 154.03474,279.18553 -0.89297,-0.39688 q -0.39687,-0.59531 -0.29765,-1.48828 l 0.29765,-0.59531 0.89297,-0.39688 h 7.56543 1.61231 l 0.89297,0.39688 q 0.39687,0.59531 0.29765,1.48828 l -0.39687,0.69453 -1.19063,0.29766 z" />
        <path
           id="path892"
           style="font-style:normal;font-variant:normal;font-weight:normal;font-stretch:normal;font-size:25.39999962px;font-family:Jiyucho;-inkscape-font-specification:Jiyucho;fill:#fa58f4;fill-opacity:1;stroke:#ffffff;stroke-width:1.39999998;stroke-miterlimit:4;stroke-dasharray:none;stroke-opacity:1"
           d="m 170.7283,289.05779 -0.89297,-0.39687 -0.29766,-0.59531 V 276.9035 h -0.89297 l -2.20762,0.0992 -0.89296,-0.39688 q -0.39688,-0.59531 -0.29766,-1.48828 l 0.29766,-0.59531 q 1.78593,-0.59531 3.89433,-0.4961 v -3.69589 q 0.19844,-1.38907 1.09141,-2.50528 1.78594,-1.28984 4.19199,-0.99219 0.99219,0.19844 1.68672,0.99219 0.99219,1.11621 0.79375,2.80293 l -0.29766,0.59531 q -0.89297,0.4961 -1.98437,0.39688 l -0.91778,-0.39688 -0.39687,-1.19062 h -0.19844 q -0.49609,1.09141 -0.49609,2.08359 0,0.99219 0,1.90996 2.20761,-0.22324 4.09277,0.39688 0.39688,0.59531 0.29766,1.48828 l -0.29766,0.59531 q -1.78594,0.59531 -3.99355,0.39688 v 9.74824 l 0.0992,1.21543 -0.39688,0.79375 q -0.89297,0.49609 -1.98437,0.39687 z" />
        <path
           id="path894"
           style="font-style:normal;font-variant:normal;font-weight:normal;font-stretch:normal;font-size:25.39999962px;font-family:Jiyucho;-inkscape-font-specification:Jiyucho;fill:#fa58f4;fill-opacity:1;stroke:#ffffff;stroke-width:1.39999998;stroke-miterlimit:4;stroke-dasharray:none;stroke-opacity:1"
           d="m 182.13846,289.05779 q -1.61231,-0.29765 -2.90215,-1.38906 -1.19063,-1.6123 -0.89297,-3.79512 0.0992,-2.18281 1.68672,-4.09277 1.21543,-0.89297 2.75332,-0.89297 1.53789,0 3.12539,0 v -0.49609 l -0.4961,-1.28985 -1.48828,-0.39687 q -2.18281,0.49609 -4.48965,0.59531 l -0.89296,-0.39687 q -0.39688,-0.59532 -0.29766,-1.48828 l 0.29766,-0.59532 q 1.68671,-0.62011 3.47265,-0.86816 1.81074,-0.24805 3.79512,-0.14883 1.6123,0.39688 2.90215,1.61231 0.69453,1.19062 0.69453,2.72851 0,1.53789 0,3.05098 l -0.0992,0.0992 v 3.86953 q 0.49609,1.38906 0.69453,2.90215 l -0.29765,0.59531 q -0.89297,0.49609 -2.0836,0.39687 l -0.91777,-0.39687 q -2.0836,0.59531 -4.56406,0.39687 z m 3.27421,-3.29902 0.39688,-0.29766 v -3.37343 q -1.19063,-0.4961 -2.57969,-0.29766 -0.69453,0.39688 -0.99219,1.19063 -0.39687,0.79375 -0.29765,2.18281 l 0.99219,0.89297 1.19062,0.0992 z" />
        <path
           id="path896"
           style="font-style:normal;font-variant:normal;font-weight:normal;font-stretch:normal;font-size:25.39999962px;font-family:Jiyucho;-inkscape-font-specification:Jiyucho;fill:#fa58f4;fill-opacity:1;stroke:#ffffff;stroke-width:1.39999998;stroke-miterlimit:4;stroke-dasharray:none;stroke-opacity:1"
           d="m 192.33318,289.05779 -0.89297,-0.39687 -0.29766,-0.59531 v -8.58243 l 0.0992,-0.0992 v -4.58887 l 0.29766,-0.59531 q 0.89297,-0.4961 2.00918,-0.39688 l 0.89297,0.39688 0.0992,0.29765 h 0.19843 q 1.19063,-0.49609 2.53008,-0.64492 1.33946,-0.14883 2.85254,-0.0496 l 1.28984,0.69453 q 0.59532,1.01699 0.89297,2.20762 v 5.87871 l -0.0992,4.06797 0.0992,1.31465 -0.39687,0.69453 q -0.89297,0.49609 -1.98438,0.39687 l -0.91777,-0.39687 -0.29766,-0.59531 v -6.27559 l 0.0992,-0.0992 v -4.09277 l -0.19843,-0.79375 h -0.79375 l -3.07579,0.99219 -0.0992,2.57968 v 7.68946 l -0.29766,0.59531 q -0.89297,0.49609 -2.00918,0.39687 z" />
        <path
           id="path898"
           style="font-style:normal;font-variant:normal;font-weight:normal;font-stretch:normal;font-size:25.39999962px;font-family:Jiyucho;-inkscape-font-specification:Jiyucho;fill:#fa58f4;fill-opacity:1;stroke:#ffffff;stroke-width:1.39999998;stroke-miterlimit:4;stroke-dasharray:none;stroke-opacity:1"
           d="m 205.82693,288.76014 -1.19063,-0.59531 q -0.59531,-0.91778 -0.39687,-2.1084 l 0.39687,-0.69453 q 0.99219,-0.59532 2.30684,-0.39688 l 1.5875,0.59531 q 0.39687,0.79375 0.29765,1.78594 l -0.59531,1.01699 q -0.99219,0.59532 -2.40605,0.39688 z" />
        <path
           id="path900"
           style="font-style:normal;font-variant:normal;font-weight:normal;font-stretch:normal;font-size:25.39999962px;font-family:Jiyucho;-inkscape-font-specification:Jiyucho;fill:#fa58f4;fill-opacity:1;stroke:#ffffff;stroke-width:1.39999998;stroke-miterlimit:4;stroke-dasharray:none;stroke-opacity:1"
           d="m 217.73317,289.05779 -0.89297,-0.39687 -0.29765,-0.59531 v -8.58243 l 0.0992,-0.0992 v -4.58887 l 0.29765,-0.59531 q 0.89297,-0.4961 2.00918,-0.39688 l 0.89297,0.39688 0.0992,0.29765 h 0.19844 q 1.19062,-0.49609 2.53008,-0.64492 1.33945,-0.14883 2.85254,-0.0496 l 1.28984,0.69453 q 0.59531,1.01699 0.89297,2.20762 v 5.87871 l -0.0992,4.06797 0.0992,1.31465 -0.39688,0.69453 q -0.89297,0.49609 -1.98437,0.39687 l -0.91778,-0.39687 -0.29765,-0.59531 v -6.27559 l 0.0992,-0.0992 v -4.09277 l -0.19844,-0.79375 h -0.79375 l -3.07578,0.99219 -0.0992,2.57968 v 7.68946 l -0.29766,0.59531 q -0.89297,0.49609 -2.00918,0.39687 z" />
        <path
           id="path902"
           style="font-style:normal;font-variant:normal;font-weight:normal;font-stretch:normal;font-size:25.39999962px;font-family:Jiyucho;-inkscape-font-specification:Jiyucho;fill:#fa58f4;fill-opacity:1;stroke:#ffffff;stroke-width:1.39999998;stroke-miterlimit:4;stroke-dasharray:none;stroke-opacity:1"
           d="m 234.2283,289.05779 q -1.78593,-0.39687 -3.10058,-1.90996 -1.09141,-1.5875 -1.53789,-3.52226 -0.44649,-1.93477 -0.24805,-4.04317 0.39687,-2.77812 1.78594,-4.56406 1.81074,-1.6123 4.48965,-1.21543 2.08359,0.39688 3.79511,2.00918 1.28985,1.88516 0.89297,5.06016 l -0.29766,0.62011 q -1.5875,0.4961 -3.39824,0.54571 -1.78593,0.0496 -3.47265,0.34726 v 0.69453 q 0.49609,1.5875 1.78593,2.77813 l 0.99219,0.29766 0.99219,-0.59532 q 0.29766,-0.59531 0.89297,-0.89297 l 1.51308,-0.0992 0.89297,0.39687 q 0.39688,0.69453 0.29766,1.68672 -0.39688,0.79375 -1.19063,1.51309 -1.0914,0.69453 -2.40605,0.84335 -1.28984,0.14883 -2.67891,0.0496 z m 2.48047,-9.97148 v -0.79375 q -0.49609,-0.79375 -1.38906,-1.28984 l -0.79375,-0.19844 -0.99219,1.0914 -0.29765,1.38907 h 0.39687 z" />
        <path
           id="path904"
           style="font-style:normal;font-variant:normal;font-weight:normal;font-stretch:normal;font-size:25.39999962px;font-family:Jiyucho;-inkscape-font-specification:Jiyucho;fill:#fa58f4;fill-opacity:1;stroke:#ffffff;stroke-width:1.39999998;stroke-miterlimit:4;stroke-dasharray:none;stroke-opacity:1"
           d="m 246.82908,289.05779 -0.89297,-0.39687 -0.29765,-0.59531 v -5.7795 l -0.0992,-0.0992 v -5.2834 h -0.39688 l -2.50527,0.0992 -0.89297,-0.39688 q -0.39687,-0.59531 -0.29766,-1.48828 l 0.29766,-0.59531 q 1.78594,-0.4961 3.79512,-0.59531 -0.19844,-1.90997 0.39687,-4.09278 0.89297,-0.49609 1.98438,-0.39687 l 0.89297,0.39687 q 0.39687,0.79375 0.29765,1.78594 v 2.20762 q 1.81074,-0.19844 3.39824,0.49609 0.39688,0.59531 0.29766,1.48828 l -0.29766,0.59531 q -0.99218,0.59532 -2.30683,0.39688 l -1.19063,-0.0992 v 4.58887 l 0.0992,0.0992 v 5.35781 l 0.0992,1.11621 -0.39687,0.79375 q -0.89297,0.49609 -1.98438,0.39687 z" />
      </g>
    </g>
    <rect
       style="opacity:0.76200005;fill:#ffffff;fill-opacity:1;stroke:#ffffff;stroke-width:1.05739832;stroke-miterlimit:4;stroke-dasharray:none;stroke-dashoffset:0;stroke-opacity:1"
       id="rect902"
       width="296.34094"
       height="208.65045"
       x="-0.003800842"
       y="87.975365" />
    <g
       aria-label="kimisaki.com"
       style="font-style:normal;font-variant:normal;font-weight:normal;font-stretch:normal;font-size:10.58333302px;line-height:1.25;font-family:Jiyucho;-inkscape-font-specification:Jiyucho;letter-spacing:0px;word-spacing:0px;fill:#000000;fill-opacity:1;stroke:none;stroke-width:0.26458332"
       id="text896">
      <path
         d="m 40.526133,210.56156 -1.694987,-0.82682 -4.134115,-10.79004 -0.496093,-0.16537 -0.992188,1.15755 v 8.97103 l -0.496094,0.99219 q -1.488281,0.82682 -3.307291,0.66146 l -1.529623,-0.66146 -0.496093,-0.99219 v -34.23046 l 0.496093,-0.99219 q 1.529623,-0.82682 3.348633,-0.66146 l 1.488281,0.66146 0.496094,0.99219 v 16.7845 h 0.330729 l 1.653646,-1.81901 h 0.330729 l 2.976563,-3.84473 q 1.529622,-0.82682 3.348632,-0.66145 l 1.488282,0.66145 q 0.661458,1.1989 0.496093,2.68718 l -2.480468,3.47265 -2.025716,1.98438 v 0.66146 q 1.364257,3.34863 2.852539,6.98665 1.488281,3.63802 2.149739,7.31738 l -0.496094,0.99219 q -1.488281,0.82682 -3.307291,0.66146 z"
         style="font-style:normal;font-variant:normal;font-weight:normal;font-stretch:normal;font-size:42.33333206px;font-family:Jiyucho;-inkscape-font-specification:Jiyucho;stroke-width:0.26458332"
         id="path899" />
      <path
         d="m 55.863697,210.56156 -1.488281,-0.66146 q -0.992187,-3.34863 -0.826823,-7.15202 v -15.91634 l 0.496094,-0.99219 q 1.488281,-0.86816 3.307292,-0.70279 l 1.488281,0.70279 0.496094,0.99219 v 14.42806 l 0.330729,7.64811 -0.496094,0.99219 q -1.488281,0.82682 -3.307292,0.66146 z m -0.454752,-28.56673 -1.488281,-0.66146 q -0.661459,-1.15755 -0.496094,-2.64583 l 0.496094,-0.99219 q 1.488281,-0.82682 3.348632,-0.66146 l 1.488282,0.66146 q 0.661458,1.15755 0.496093,2.64583 l -0.496093,0.99219 q -1.488282,0.82682 -3.348633,0.66146 z"
         style="font-style:normal;font-variant:normal;font-weight:normal;font-stretch:normal;font-size:42.33333206px;font-family:Jiyucho;-inkscape-font-specification:Jiyucho;stroke-width:0.26458332"
         id="path901" />
      <path
         d="m 70.209075,210.56156 q -1.157552,-0.49609 -1.653646,-1.65365 L 68.2247,206.71683 v -6.44922 l -0.165365,-0.16536 V 187.4932 l 0.992188,-1.86035 q 0.826822,-0.66146 2.149739,-0.49609 l 1.860352,1.15755 3.803385,-1.15755 1.984375,1.03352 q 2.149739,-1.52962 5.167643,-1.03352 1.653646,0.82682 2.315104,2.5218 0.661458,1.48829 0.826823,3.14193 v 18.10742 q -0.496094,1.15756 -1.653646,1.65365 h -1.322917 q -1.157552,-0.49609 -1.694986,-1.65365 l -0.165365,-0.66146 v -16.7845 q 0,-0.99219 -0.661458,-1.32292 l -0.496094,0.16537 -0.992188,1.48828 v 17.11523 q -0.496093,1.15756 -1.653645,1.65365 h -1.322917 q -1.322917,-0.66146 -1.81901,-1.98438 V 190.3044 h -0.496094 l -1.984375,1.65364 v 7.48275 l 0.165365,0.16537 v 6.28385 l 0.165364,3.0179 q -0.496094,1.15756 -1.694987,1.65365 z"
         style="font-style:normal;font-variant:normal;font-weight:normal;font-stretch:normal;font-size:42.33333206px;font-family:Jiyucho;-inkscape-font-specification:Jiyucho;stroke-width:0.26458332"
         id="path903" />
      <path
         d="M 98.197031,210.56156 96.70875,209.9001 q -0.992187,-3.34863 -0.826823,-7.15202 v -15.91634 l 0.496094,-0.99219 q 1.488281,-0.86816 3.307292,-0.70279 l 1.488277,0.70279 0.4961,0.99219 v 14.42806 l 0.33073,7.64811 -0.4961,0.99219 q -1.48828,0.82682 -3.307289,0.66146 z m -0.454752,-28.56673 -1.488281,-0.66146 q -0.661459,-1.15755 -0.496094,-2.64583 l 0.496094,-0.99219 q 1.488281,-0.82682 3.348632,-0.66146 l 1.48828,0.66146 q 0.66146,1.15755 0.4961,2.64583 l -0.4961,0.99219 q -1.48828,0.82682 -3.348631,0.66146 z"
         style="font-style:normal;font-variant:normal;font-weight:normal;font-stretch:normal;font-size:42.33333206px;font-family:Jiyucho;-inkscape-font-specification:Jiyucho;stroke-width:0.26458332"
         id="path905" />
      <path
         d="m 118.37151,210.39619 q -3.80339,-0.49609 -6.82129,-3.18326 -1.48828,-1.48828 -1.15755,-3.63802 l 0.49609,-0.99219 q 1.48828,-0.82682 3.34863,-0.66146 l 1.65365,0.82682 q 0.82682,1.48828 2.3151,2.31511 l 2.31511,0.49609 2.14974,-0.99219 q 0.66146,-0.82682 0.49609,-1.98437 l -1.32292,-2.31511 q -2.14974,-1.15755 -4.54752,-1.65364 -2.39779,-0.4961 -4.4235,-2.19108 -1.98438,-2.48047 -1.32292,-5.95313 l 1.81901,-3.14192 q 3.34863,-2.68718 7.97884,-2.02572 3.84473,0.66146 6.98665,3.34863 0.66146,0.99219 0.4961,2.48047 l -0.4961,0.99219 q -1.65364,0.99219 -3.63802,0.66146 -2.52181,-1.81901 -5.49837,-2.48047 -1.48828,0.66146 -1.81901,2.14974 2.3151,1.65364 4.96094,2.14974 2.68717,0.49609 4.83691,2.52181 1.32292,1.65364 1.65365,3.80338 0.33073,2.14974 0.16536,4.46485 l -1.48828,2.85253 q -1.81901,1.48829 -4.17545,1.9017 -2.31511,0.41341 -4.96094,0.24804 z"
         style="font-style:normal;font-variant:normal;font-weight:normal;font-stretch:normal;font-size:42.33333206px;font-family:Jiyucho;-inkscape-font-specification:Jiyucho;stroke-width:0.26458332"
         id="path907" />
      <path
         d="m 137.88453,210.56156 q -2.68718,-0.49609 -4.83692,-2.31511 -1.98437,-2.68717 -1.48828,-6.32519 0.16537,-3.63802 2.8112,-6.82129 2.02572,-1.48828 4.58887,-1.48828 2.56315,0 5.20898,0 v -0.82682 l -0.82682,-2.14974 -2.48047,-0.66146 q -3.63802,0.82682 -7.48275,0.99219 l -1.48828,-0.66146 q -0.66146,-0.99219 -0.49609,-2.48047 l 0.49609,-0.99219 q 2.8112,-1.03353 5.78776,-1.44694 3.0179,-0.41341 6.3252,-0.24804 2.68717,0.66145 4.83691,2.68717 1.15755,1.98437 1.15755,4.54753 0,2.56315 0,5.08496 l -0.16536,0.16536 v 6.44922 q 0.82682,2.3151 1.15755,4.83691 l -0.49609,0.99219 q -1.48829,0.82682 -3.47266,0.66146 l -1.52962,-0.66146 q -3.47266,0.99219 -7.60677,0.66146 z m 5.45703,-5.49837 0.66146,-0.4961 v -5.62239 q -1.98438,-0.82683 -4.29948,-0.4961 -1.15756,0.66146 -1.65365,1.98438 -0.66146,1.32292 -0.49609,3.63802 l 1.65364,1.48828 1.98438,0.16537 z"
         style="font-style:normal;font-variant:normal;font-weight:normal;font-stretch:normal;font-size:42.33333206px;font-family:Jiyucho;-inkscape-font-specification:Jiyucho;stroke-width:0.26458332"
         id="path909" />
      <path
         d="m 167.52613,210.56156 -1.69498,-0.82682 -4.13412,-10.79004 -0.49609,-0.16537 -0.99219,1.15755 v 8.97103 l -0.49609,0.99219 q -1.48828,0.82682 -3.3073,0.66146 l -1.52962,-0.66146 -0.49609,-0.99219 v -34.23046 l 0.49609,-0.99219 q 1.52962,-0.82682 3.34864,-0.66146 l 1.48828,0.66146 0.49609,0.99219 v 16.7845 h 0.33073 l 1.65365,-1.81901 h 0.33072 l 2.97657,-3.84473 q 1.52962,-0.82682 3.34863,-0.66145 l 1.48828,0.66145 q 0.66146,1.1989 0.49609,2.68718 l -2.48046,3.47265 -2.02572,1.98438 v 0.66146 q 1.36426,3.34863 2.85254,6.98665 1.48828,3.63802 2.14974,7.31738 l -0.4961,0.99219 q -1.48828,0.82682 -3.30729,0.66146 z"
         style="font-style:normal;font-variant:normal;font-weight:normal;font-stretch:normal;font-size:42.33333206px;font-family:Jiyucho;-inkscape-font-specification:Jiyucho;stroke-width:0.26458332"
         id="path911" />
      <path
         d="m 182.86369,210.56156 -1.48828,-0.66146 q -0.99219,-3.34863 -0.82683,-7.15202 v -15.91634 l 0.4961,-0.99219 q 1.48828,-0.86816 3.30729,-0.70279 l 1.48828,0.70279 0.49609,0.99219 v 14.42806 l 0.33073,7.64811 -0.49609,0.99219 q -1.48828,0.82682 -3.30729,0.66146 z m -0.45475,-28.56673 -1.48829,-0.66146 q -0.66145,-1.15755 -0.49609,-2.64583 l 0.49609,-0.99219 q 1.48829,-0.82682 3.34864,-0.66146 l 1.48828,0.66146 q 0.66146,1.15755 0.49609,2.64583 l -0.49609,0.99219 q -1.48828,0.82682 -3.34863,0.66146 z"
         style="font-style:normal;font-variant:normal;font-weight:normal;font-stretch:normal;font-size:42.33333206px;font-family:Jiyucho;-inkscape-font-specification:Jiyucho;stroke-width:0.26458332"
         id="path913" />
      <path
         d="m 198.53199,210.06547 -1.98438,-0.99219 q -0.99219,-1.52962 -0.66146,-3.514 l 0.66146,-1.15755 q 1.65365,-0.99219 3.84473,-0.66146 l 2.64583,0.99219 q 0.66146,1.32291 0.4961,2.97656 l -0.99219,1.69499 q -1.65365,0.99218 -4.01009,0.66146 z"
         style="font-style:normal;font-variant:normal;font-weight:normal;font-stretch:normal;font-size:42.33333206px;font-family:Jiyucho;-inkscape-font-specification:Jiyucho;stroke-width:0.26458332"
         id="path915" />
      <path
         d="m 224.53557,210.39619 q -3.14192,-0.49609 -5.49837,-2.81119 -2.14974,-3.01791 -2.48047,-6.65593 v -7.31738 q 0.66146,-3.47266 2.8112,-6.44922 1.52962,-1.69499 3.67936,-1.94303 2.14974,-0.24805 4.46485,-0.0827 3.51399,0.49609 6.15983,2.5218 1.48828,1.32292 1.15755,3.3073 l -0.4961,0.99218 q -1.48828,0.82683 -3.47265,0.66146 l -1.52962,-0.66146 q -0.82683,-1.15755 -2.14974,-1.65364 l -1.98438,-0.33073 -1.81901,1.98437 q -1.32292,3.14193 -0.99219,7.48275 0.16537,3.14193 2.48047,5.45703 l 2.31511,0.66146 q 1.81901,-1.98437 3.67936,-3.80338 l 2.48047,-0.16537 1.48828,0.66146 q 0.66146,1.15755 0.49609,2.64583 -0.99219,2.31511 -3.14193,4.17546 -3.34863,1.98437 -7.64811,1.32291 z"
         style="font-style:normal;font-variant:normal;font-weight:normal;font-stretch:normal;font-size:42.33333206px;font-family:Jiyucho;-inkscape-font-specification:Jiyucho;stroke-width:0.26458332"
         id="path917" />
      <path
         d="m 244.6687,210.56156 q -2.14974,-0.49609 -4.01009,-2.14974 -2.14974,-2.68717 -2.97656,-6.24251 -0.82683,-3.55534 -0.4961,-7.2347 0.33073,-2.31511 1.15756,-4.38217 0.82682,-2.06705 2.64583,-3.7207 3.514,-2.19108 7.97884,-1.52962 l 4.01009,1.69499 q 2.31511,2.64583 3.05925,5.87044 0.74414,3.22461 0.41341,7.56543 -0.16537,2.48047 -0.82683,4.63021 -0.66145,2.14974 -2.48046,4.01009 -1.69499,1.32291 -3.92741,1.4056 -2.23242,0.0827 -4.54753,0.0827 z m 3.30729,-5.00228 q 1.32292,-0.66146 1.81901,-1.98437 0.99219,-3.3073 0.82683,-7.64812 -0.33073,-2.97656 -2.48047,-5.29166 l -2.14974,-0.33073 q -1.81901,1.48828 -2.39779,3.47265 -0.57877,1.98438 -0.57877,4.34082 0.49609,4.46485 3.14192,7.27605 l 1.65365,0.33073 z"
         style="font-style:normal;font-variant:normal;font-weight:normal;font-stretch:normal;font-size:42.33333206px;font-family:Jiyucho;-inkscape-font-specification:Jiyucho;stroke-width:0.26458332"
         id="path919" />
      <path
         d="m 260.70907,210.56156 q -1.15755,-0.49609 -1.65365,-1.65365 l -0.33072,-2.19108 v -6.44922 l -0.16537,-0.16536 V 187.4932 l 0.99219,-1.86035 q 0.82682,-0.66146 2.14974,-0.49609 l 1.86035,1.15755 3.80339,-1.15755 1.98437,1.03352 q 2.14974,-1.52962 5.16764,-1.03352 1.65365,0.82682 2.31511,2.5218 0.66146,1.48829 0.82682,3.14193 v 18.10742 q -0.49609,1.15756 -1.65365,1.65365 h -1.32291 q -1.15755,-0.49609 -1.69499,-1.65365 l -0.16536,-0.66146 v -16.7845 q 0,-0.99219 -0.66146,-1.32292 l -0.4961,0.16537 -0.99218,1.48828 v 17.11523 q -0.4961,1.15756 -1.65365,1.65365 h -1.32292 q -1.32291,-0.66146 -1.81901,-1.98438 V 190.3044 h -0.49609 l -1.98437,1.65364 v 7.48275 l 0.16536,0.16537 v 6.28385 l 0.16536,3.0179 q -0.49609,1.15756 -1.69498,1.65365 z"
         style="font-style:normal;font-variant:normal;font-weight:normal;font-stretch:normal;font-size:42.33333206px;font-family:Jiyucho;-inkscape-font-specification:Jiyucho;stroke-width:0.26458332"
         id="path921" />
    </g>
  </g>
</svg>
