<?xml version="1.0" encoding="UTF-8" standalone="no"?>
<!-- Created with Inkscape (http://www.inkscape.org/) -->

<svg
   xmlns:dc="http://purl.org/dc/elements/1.1/"
   xmlns:cc="http://creativecommons.org/ns#"
   xmlns:rdf="http://www.w3.org/1999/02/22-rdf-syntax-ns#"
   xmlns:svg="http://www.w3.org/2000/svg"
   xmlns="http://www.w3.org/2000/svg"
   xmlns:xlink="http://www.w3.org/1999/xlink"
   xmlns:sodipodi="http://sodipodi.sourceforge.net/DTD/sodipodi-0.dtd"
   xmlns:inkscape="http://www.inkscape.org/namespaces/inkscape"
   width="297mm"
   height="210mm"
   viewBox="0 0 297 210"
   version="1.1"
   id="svg8"
   inkscape:version="0.92.2 (5c3e80d, 2017-08-06)"
   sodipodi:docname="no_image.svg">
  <defs
     id="defs2">
    <filter
       style="color-interpolation-filters:sRGB;"
       inkscape:label="Drop Shadow"
       id="filter4593">
      <feFlood
         flood-opacity="0.498039"
         flood-color="rgb(0,0,0)"
         result="flood"
         id="feFlood4583" />
      <feComposite
         in="flood"
         in2="SourceGraphic"
         operator="in"
         result="composite1"
         id="feComposite4585" />
      <feGaussianBlur
         in="composite1"
         stdDeviation="3"
         result="blur"
         id="feGaussianBlur4587" />
      <feOffset
         dx="6"
         dy="6"
         result="offset"
         id="feOffset4589" />
      <feComposite
         in="SourceGraphic"
         in2="offset"
         operator="over"
         result="composite2"
         id="feComposite4591" />
    </filter>
    <filter
       style="color-interpolation-filters:sRGB;"
       inkscape:label="Drop Shadow"
       id="filter4633">
      <feFlood
         flood-opacity="0.498039"
         flood-color="rgb(0,0,0)"
         result="flood"
         id="feFlood4623" />
      <feComposite
         in="flood"
         in2="SourceGraphic"
         operator="in"
         result="composite1"
         id="feComposite4625" />
      <feGaussianBlur
         in="composite1"
         stdDeviation="3"
         result="blur"
         id="feGaussianBlur4627" />
      <feOffset
         dx="6"
         dy="6"
         result="offset"
         id="feOffset4629" />
      <feComposite
         in="SourceGraphic"
         in2="offset"
         operator="over"
         result="composite2"
         id="feComposite4631" />
    </filter>
    <filter
       style="color-interpolation-filters:sRGB;"
       inkscape:label="Drop Shadow"
       id="filter4661">
      <feFlood
         flood-opacity="0.498039"
         flood-color="rgb(0,0,0)"
         result="flood"
         id="feFlood4651" />
      <feComposite
         in="flood"
         in2="SourceGraphic"
         operator="in"
         result="composite1"
         id="feComposite4653" />
      <feGaussianBlur
         in="composite1"
         stdDeviation="3"
         result="blur"
         id="feGaussianBlur4655" />
      <feOffset
         dx="6"
         dy="6"
         result="offset"
         id="feOffset4657" />
      <feComposite
         in="SourceGraphic"
         in2="offset"
         operator="over"
         result="composite2"
         id="feComposite4659" />
    </filter>
    <filter
       style="color-interpolation-filters:sRGB;"
       inkscape:menu-tooltip="Fades hue progressively to white"
       inkscape:menu="Color"
       inkscape:label="Hue to White"
       id="filter2157">
      <feColorMatrix
         values="1 0 0 0 0 1 0 0 0 0 1 0 0 0 0 0 0 0 0 1 "
         type="matrix"
         result="r"
         in="SourceGraphic"
         id="feColorMatrix2129" />
      <feColorMatrix
         values="0 1 0 0 0 0 1 0 0 0 0 1 0 0 0 0 0 0 0 1 "
         type="matrix"
         result="g"
         in="SourceGraphic"
         id="feColorMatrix2131" />
      <feColorMatrix
         values="0 0 1 0 0 0 0 1 0 0 0 0 1 0 0 0 0 0 0 1 "
         type="matrix"
         result="b"
         in="SourceGraphic"
         id="feColorMatrix2133" />
      <feBlend
         result="minrg"
         in="r"
         mode="darken"
         in2="g"
         id="feBlend2135" />
      <feBlend
         result="p"
         in="minrg"
         mode="darken"
         in2="b"
         id="feBlend2137" />
      <feBlend
         result="maxrg"
         in="r"
         mode="lighten"
         in2="g"
         id="feBlend2139" />
      <feBlend
         result="q"
         in="maxrg"
         mode="lighten"
         in2="b"
         id="feBlend2141" />
      <feComponentTransfer
         result="q2"
         in="q"
         id="feComponentTransfer2145">
        <feFuncR
           slope="0"
           type="linear"
           id="feFuncR2143" />
      </feComponentTransfer>
      <feBlend
         result="pq"
         in="p"
         mode="lighten"
         in2="q2"
         id="feBlend2147" />
      <feColorMatrix
         values="-1 1 0 0 0 -1 1 0 0 0 -1 1 0 0 0 0 0 0 0 1 "
         type="matrix"
         result="qminp"
         in="pq"
         id="feColorMatrix2149" />
      <feComposite
         k3="1"
         operator="arithmetic"
         result="qminpc"
         in="qminp"
         in2="qminp"
         id="feComposite2151" />
      <feBlend
         result="result2"
         in2="SourceGraphic"
         mode="screen"
         id="feBlend2153" />
      <feComposite
         operator="in"
         in="result2"
         in2="SourceGraphic"
         result="result1"
         id="feComposite2155" />
    </filter>
  </defs>
  <sodipodi:namedview
     id="base"
     pagecolor="#ffffff"
     bordercolor="#666666"
     borderopacity="1.0"
     inkscape:pageopacity="0.0"
     inkscape:pageshadow="2"
     inkscape:zoom="0.7"
     inkscape:cx="166.28568"
     inkscape:cy="468.53092"
     inkscape:document-units="mm"
     inkscape:current-layer="text2161"
     showgrid="false"
     inkscape:window-width="1920"
     inkscape:window-height="1017"
     inkscape:window-x="-8"
     inkscape:window-y="-8"
     inkscape:window-maximized="1">
    <inkscape:grid
       type="xygrid"
       id="grid3709" />
  </sodipodi:namedview>
  <metadata
     id="metadata5">
    <rdf:RDF>
      <cc:Work
         rdf:about="">
        <dc:format>image/svg+xml</dc:format>
        <dc:type
           rdf:resource="http://purl.org/dc/dcmitype/StillImage" />
        <dc:title />
      </cc:Work>
    </rdf:RDF>
  </metadata>
  <g
     inkscape:label="レイヤー 1"
     inkscape:groupmode="layer"
     id="layer1"
     transform="translate(0,-87)">
    <g
       id="g2127"
       style="filter:url(#filter2157)">
      <g
         id="g4533" />
      <g
         transform="rotate(10,150.44235,114.80762)"
         style="opacity:1;fill:#feeeef;fill-opacity:0.99545456;stroke:#feeeed;stroke-width:1;stroke-miterlimit:4;stroke-dasharray:none;stroke-opacity:1;filter:url(#filter4593)"
         id="g4541">
        <path
           sodipodi:nodetypes="ccccc"
           inkscape:connector-curvature="0"
           id="path3711"
           d="M 95.249996,180.58334 C 52.916663,159.41667 79.374996,117.08334 84.666663,106.5 L 95.249996,111.79167 105.83333,106.5 c 5.29166,10.58334 31.75,52.91667 -10.583334,74.08334 z"
           style="fill:#feeeef;fill-opacity:0.99545456;stroke:#feeeed;stroke-width:1;stroke-linecap:butt;stroke-linejoin:miter;stroke-miterlimit:4;stroke-dasharray:none;stroke-opacity:1" />
        <path
           sodipodi:nodetypes="ccccc"
           inkscape:connector-curvature="0"
           id="use3717"
           d="M 95.25,180.58333 C 62.037581,214.30386 29.952266,176.05877 21.522127,167.75567 l 8.303107,-8.43013 -1.762247,-11.70057 C 39.763554,145.86274 88.20102,133.78108 95.25,180.58333 Z"
           style="fill:#feeeef;fill-opacity:0.99545456;stroke:#feeeed;stroke-width:1;stroke-linecap:butt;stroke-linejoin:miter;stroke-miterlimit:4;stroke-dasharray:none;stroke-opacity:1" />
        <use
           style="fill:#feeeef;fill-opacity:0.99545456;stroke:#feeeed;stroke-width:1;stroke-miterlimit:4;stroke-dasharray:none;stroke-opacity:1"
           x="0"
           y="0"
           xlink:href="#use3717"
           id="use3721"
           width="100%"
           height="100%"
           transform="rotate(-72,95.250006,180.58333)" />
        <use
           style="fill:#feeeef;fill-opacity:0.99545456;stroke:#feeeed;stroke-width:1;stroke-miterlimit:4;stroke-dasharray:none;stroke-opacity:1"
           x="0"
           y="0"
           xlink:href="#use3721"
           id="use3723"
           transform="rotate(-72,95.250004,180.58334)"
           width="100%"
           height="100%" />
        <use
           style="fill:#feeeef;fill-opacity:0.99545456;stroke:#feeeed;stroke-width:1;stroke-miterlimit:4;stroke-dasharray:none;stroke-opacity:1"
           x="0"
           y="0"
           xlink:href="#use3723"
           id="use3725"
           transform="rotate(-72,95.25,180.58334)"
           width="100%"
           height="100%" />
      </g>
      <flowRoot
         transform="matrix(0.26458333,0,0,0.26458333,0,87)"
         style="font-style:normal;font-weight:normal;font-size:192.00000242px;line-height:1.25;font-family:'Rounded M+ 1p';letter-spacing:0px;word-spacing:0px;fill:#000000;fill-opacity:1;stroke:none;-inkscape-font-specification:'Rounded M+ 1p';font-stretch:normal;font-variant:normal;"
         id="flowRoot4595"
         xml:space="preserve"><flowRegion
           style="-inkscape-font-specification:'Rounded M+ 1p';font-family:'Rounded M+ 1p';font-weight:normal;font-style:normal;font-stretch:normal;font-variant:normal;font-size:192.00000242px;"
           id="flowRegion4597"><rect
             style="-inkscape-font-specification:'Rounded M+ 1p';font-family:'Rounded M+ 1p';font-weight:normal;font-style:normal;font-stretch:normal;font-variant:normal;font-size:192.00000242px;"
             y="233.70081"
             x="280"
             height="260"
             width="520"
             id="rect4599" /></flowRegion><flowPara
           id="flowPara4601" /></flowRoot>      <g
         id="text4605"
         style="font-style:normal;font-variant:normal;font-weight:normal;font-stretch:normal;font-size:96.03546143px;line-height:1.25;font-family:uzura_font;-inkscape-font-specification:uzura_font;letter-spacing:0px;word-spacing:0px;fill:#fa58f4;fill-opacity:1;stroke:#ffffff;stroke-width:3;stroke-miterlimit:4;stroke-dasharray:none;stroke-opacity:1;filter:url(#filter4633)"
         transform="matrix(1.1494743,0,0,1.1494743,-19.41131,-25.834655)"
         aria-label="君咲">
        <path
           id="path856"
           style="font-style:normal;font-variant:normal;font-weight:normal;font-stretch:normal;font-size:96.03546143px;font-family:uzura_font;-inkscape-font-specification:uzura_font;fill:#fa58f4;fill-opacity:1;stroke:#ffffff;stroke-width:3;stroke-miterlimit:4;stroke-dasharray:none;stroke-opacity:1"
           d="m 74.141947,207.73171 -1.875693,-0.93785 q -0.187569,-0.37513 -0.468923,-0.65649 -0.281354,-0.28135 -0.281354,-0.75027 0,-0.46893 -0.187569,-0.84407 -0.187569,-0.37514 -0.187569,-0.75027 0.375138,-3.00111 0.562707,-6.18979 0.18757,-3.18868 0.750277,-6.18978 0.562708,-3.00111 0.750277,-6.18979 0.18757,-3.18868 0.937847,-6.00222 h -0.375139 q -1.312985,2.81354 -2.719754,5.72087 -1.406769,2.90732 -2.719754,5.81464 -1.312985,2.90733 -2.438401,5.90843 -1.125415,3.00111 -2.4384,5.81465 -0.375139,0.18757 -0.750277,0.46892 -0.375139,0.28136 -0.844062,0.37514 -0.468923,0.0938 -0.937846,0.0938 -0.468923,0 -1.031631,0 l -1.875693,-0.93785 q -0.187569,-0.37514 -0.468923,-0.75028 -0.281354,-0.37513 -0.375138,-0.84406 -0.09379,-0.46892 -0.09379,-0.93784 0,-0.46893 0,-1.03163 1.688123,-3.93896 3.282462,-7.9717 1.594339,-4.03274 3.470031,-7.97169 1.875693,-3.93896 3.751386,-7.78413 1.875692,-3.84517 3.376246,-8.15926 h -5.06437 l -2.250831,0.18757 q -0.375138,-0.18757 -0.656492,-0.28135 -0.281354,-0.0938 -0.656493,-0.18757 -0.375138,-0.0938 -0.656492,-0.28136 -0.281354,-0.18757 -0.656492,-0.37514 -0.18757,-0.37513 -0.468924,-0.75027 -0.281353,-0.37514 -0.375138,-0.84406 -0.09378,-0.46893 -0.09378,-0.84407 0,-0.37513 0,-0.93784 l 0.937847,-1.87569 q 0.937846,-0.93785 2.250831,-0.93785 1.312985,0 2.532185,-0.0938 1.2192,-0.0938 2.532185,-0.0938 1.312985,0 2.625969,0 l 3.001109,0.18757 2.250831,-6.18979 -12.567141,-0.37513 q -0.750277,0.18756 -1.688123,0.28135 -0.937846,0.0938 -1.875693,0.0938 -0.937846,0 -1.875692,0.0938 -0.937847,0.0938 -1.875693,0.0938 l -1.875693,-0.93784 q -0.187569,-0.37514 -0.468923,-0.75028 -0.281354,-0.37514 -0.375138,-0.84406 -0.09379,-0.46893 -0.09379,-0.84406 0,-0.37514 0,-0.93785 l 0.937846,-1.87569 q 1.312985,-1.12542 2.907324,-1.2192 1.594339,-0.0938 3.282462,-0.0938 1.688123,0 3.376247,-0.28135 1.688123,-0.28136 3.376246,-0.0938 1.500554,0.18757 3.001109,0.28136 1.500554,0.0938 3.001108,0.0938 1.500554,0 3.094893,0 1.594338,0 3.094892,0 0.375139,-1.12541 0.937847,-2.15704 0.562707,-1.03163 1.031631,-2.15705 0.468923,-1.12542 0.937846,-2.25083 0.468923,-1.12542 0.656492,-2.25083 l -10.691448,-0.18757 -6.564924,0.75028 -1.875692,-0.93785 q -0.18757,-0.37514 -0.468923,-0.75028 -0.281354,-0.37514 -0.375139,-0.84406 -0.09378,-0.46892 -0.09378,-0.93785 0,-0.46892 0,-1.03163 l 1.125416,-2.25083 q 1.875693,-1.12541 4.220308,-1.03163 2.344616,0.0938 4.595447,-0.18757 2.250831,-0.28135 4.595447,-0.18757 2.344616,0.0938 4.595447,0.0938 3.938954,0.5627 8.159263,0.65649 4.220308,0.0938 8.253047,0.37514 4.032735,0.28135 8.159265,0.46892 4.12652,0.18757 7.87791,1.31299 1.12541,1.31298 1.12541,3.18867 0,1.8757 0,3.6576 0,1.78191 0,3.6576 0,1.8757 0.18757,3.56382 1.31299,0 2.53219,0 1.2192,0 2.4384,0.18757 1.2192,0.18757 2.53218,0.18757 1.31299,0 2.25083,0.93785 0.18757,0.37513 0.46893,0.75027 0.28135,0.37514 0.37514,0.84406 0.0938,0.46893 0.0938,0.93785 0,0.46892 0,1.03163 l -0.93785,1.87569 q -0.5627,0.37514 -1.12541,0.6565 -0.56271,0.28135 -1.12542,0.28135 -0.56271,0 -1.31298,0 -0.75028,0 -1.31299,0 l -4.68923,-0.37514 v 3.93896 l 0.37514,7.12763 -0.93785,1.87569 q -0.37514,0.18757 -0.75027,0.46892 -0.37514,0.28136 -0.84407,0.37514 -0.46892,0.0938 -0.84406,0.0938 -0.37514,0 -0.93784,0 l -0.75028,-0.18757 -2.81354,0.56271 q -3.18868,-0.75028 -6.56492,-0.56271 -3.37625,0.18757 -6.564927,-0.0938 -3.188678,-0.28135 -6.658709,-0.37514 -3.470032,-0.0938 -6.846278,-0.0938 l -3.376247,0.18757 q -0.375138,1.68812 -1.031631,3.00111 -0.656492,1.31298 -1.125415,2.71975 -0.468924,1.40677 -1.219201,2.71976 -0.750277,1.31298 -1.125415,2.81353 h 0.187569 l 0.562708,-0.93784 q 2.250831,-1.12542 4.970585,-1.12542 2.719755,0 5.439509,-0.0938 2.719754,-0.0938 5.439508,-0.28136 2.719755,-0.18756 5.533294,0 2.063261,0.18757 4.22031,0.18757 2.15704,0 4.22031,0.18757 2.06326,0.18757 4.12652,0.18757 2.06326,0 3.75139,1.12542 1.50055,2.62597 1.68812,5.90843 0.18757,3.28246 0.65649,6.47114 0.46892,3.18868 0.84406,6.37735 0.37514,3.18868 0.37514,6.37736 l -0.93785,1.87569 -1.50055,1.50056 q -0.37514,0.18756 -0.84406,0.46892 -0.46892,0.28135 -0.93785,0.37514 -0.46892,0.0938 -0.93784,0.0938 -0.46893,0 -1.03163,0 -0.93785,-0.37514 -2.06327,-0.37514 -1.12541,0 -2.34461,0 -1.2192,0 -2.34462,0 -1.12541,0 -2.25083,0 l -2.813538,0.18757 -5.439508,-0.18757 -14.817972,0.56271 -1.500554,-0.18757 z m 34.512743,-7.87791 v -0.75028 l -1.68812,-14.81797 -18.006652,-0.5627 q -0.937846,0.37513 -1.969477,0.37513 -1.031631,0 -2.157046,0 -1.125416,0 -2.157047,0 -1.031631,0 -2.157046,0 -0.18757,2.06327 -0.281354,4.12653 -0.09378,2.06326 -0.468923,3.93895 -0.375139,1.87569 -0.656493,3.84517 -0.281354,1.96948 -0.09378,4.22031 h 7.690339 l 11.254156,-0.37514 2.813537,0.18757 z m 0.37514,-38.82684 V 158.401 l -0.18757,-4.12653 -24.196435,-0.37514 q -0.562707,0.75028 -0.937846,1.50056 -0.375138,0.75027 -0.750277,1.50055 -0.375138,0.75028 -0.656492,1.50056 -0.281354,0.75027 -0.468924,1.68812 3.376247,0 6.846278,0.0938 3.470032,0.0938 6.846279,0.37514 3.376246,0.28136 6.752497,0.0938 3.37624,-0.18757 6.75249,0.37513 z m -0.37514,-14.06769 v -0.93785 l -0.18757,-6.94006 q -2.06326,-0.18757 -4.22031,-0.28135 -2.15704,-0.0938 -4.31409,-0.28136 -2.157046,-0.18757 -4.314093,-0.18757 -2.157046,0 -4.220308,-0.37513 l -3.751385,8.81575 z" />
        <path
           id="path858"
           style="font-style:normal;font-variant:normal;font-weight:normal;font-stretch:normal;font-size:96.03546143px;font-family:uzura_font;-inkscape-font-specification:uzura_font;fill:#fa58f4;fill-opacity:1;stroke:#ffffff;stroke-width:3;stroke-miterlimit:4;stroke-dasharray:none;stroke-opacity:1"
           d="m 215.00646,209.23226 q -0.37514,-0.18756 -0.65649,-0.28135 -0.28135,-0.0938 -0.65649,-0.18757 -0.37514,-0.0938 -0.6565,-0.28135 -0.28135,-0.18757 -0.65649,-0.37514 -1.68812,-3.93896 -4.31409,-7.40899 -2.62597,-3.47003 -4.8768,-7.12763 -2.25083,-3.6576 -4.22031,-7.40898 -1.96948,-3.75139 -4.40788,-7.31521 h -0.56271 q -1.12541,3.75139 -2.34461,7.40899 -1.2192,3.6576 -2.90732,7.22142 -1.68813,3.56381 -3.18868,7.12763 -1.50056,3.56381 -3.18868,6.94006 -0.37514,0.18757 -0.75028,0.46892 -0.37514,0.28136 -0.84406,0.37514 -0.46892,0.0938 -0.84406,0.0938 -0.37514,0 -0.93785,0 l -1.87569,-0.93785 q -0.18757,-0.37514 -0.46892,-0.65649 -0.28136,-0.28135 -0.28136,-0.75028 0,-0.46892 -0.18757,-0.84406 -0.18756,-0.37514 -0.18756,-0.75028 1.31298,-3.56381 2.81353,-7.22141 1.50056,-3.6576 3.18868,-7.22142 1.68812,-3.56382 3.00111,-7.22142 1.31298,-3.6576 2.4384,-7.40898 -1.50055,0 -3.09489,0 -1.59434,0 -3.0949,0 -1.50055,0 -2.90732,-0.18757 -1.40677,-0.18757 -2.90732,-0.18757 -0.37514,0.37514 -0.84406,0.46892 -0.46893,0.0938 -0.93785,0.28136 -0.46892,0.18757 -0.93785,0.18757 -0.46892,0 -1.03163,0 v 4.12652 l 0.56271,8.06548 -0.93785,1.87569 -0.93784,0.37514 v 0.37514 q -0.56271,0.56271 -1.31299,0.75027 -0.75027,0.18757 -1.68812,0.18757 -0.93785,0 -1.68812,0 -0.75028,0 -1.68813,0 -0.93784,-0.37513 -1.96947,-0.46892 -1.03164,-0.0938 -2.15705,-0.0938 -1.12542,0 -2.15705,0 -1.03163,0 -2.15704,0 -1.12542,0.18757 -2.34462,0.18757 -1.2192,0 -2.34462,0 -1.12541,0 -2.15704,0.46892 -1.03163,0.46892 -2.34462,0.28135 l -1.87569,-0.93784 q -0.18757,-0.37514 -0.46892,-0.75028 -0.28136,-0.37514 -0.37514,-0.75028 -0.0938,-0.37514 -0.18757,-0.84406 -0.0938,-0.46892 -0.0938,-0.84406 0.75028,-5.43951 1.31299,-10.9728 0.56271,-5.5333 0.84406,-11.16037 0.28135,-5.62708 1.12542,-11.06659 0.84406,-5.43951 2.34461,-10.69145 0.56271,-0.37514 1.12542,-0.75028 0.56271,-0.37513 1.12541,-0.65649 0.56271,-0.28135 1.31299,-0.28135 0.75027,0 1.50055,0 1.87569,0.18757 3.84517,0.18757 1.96948,0 3.93896,0.0938 1.96947,0.0938 3.75138,0.46893 1.78191,0.37513 3.28246,1.31298 1.31299,2.62597 1.2192,5.81465 -0.0938,3.18867 0.18757,6.18978 0.28136,3.00111 0.46893,6.096 0.18757,3.0949 0.37513,6.096 h 0.37514 q 0.56271,-0.37513 1.31299,-0.5627 0.75027,-0.18757 1.40677,-0.37514 0.65649,-0.18757 1.50055,-0.18757 0.84406,0 1.59434,0 1.31298,0.18757 2.62597,0.28135 1.31298,0.0938 2.62597,0.0938 1.31298,0 2.81354,0 1.50055,0 2.81354,0 l 1.68812,-0.18757 q 0.37514,-1.50056 0.65649,-3.09489 0.28136,-1.59434 0.56271,-3.18868 0.28135,-1.59434 0.75028,-3.00111 0.46892,-1.40677 1.03163,-2.90732 h -1.50056 l -1.87569,0.18757 q -1.68812,-0.37514 -3.56381,-0.46893 -1.8757,-0.0938 -3.6576,-0.18757 -1.78191,-0.0938 -3.65761,0 -1.87569,0.0938 -3.18867,-1.03163 -0.18757,-0.37514 -0.46893,-0.75027 -0.28135,-0.37514 -0.37513,-0.84407 -0.0938,-0.46892 -0.0938,-0.84406 0,-0.37514 0,-0.93784 l 1.12542,-2.06327 q 0.37514,-0.18757 0.84406,-0.5627 0.46892,-0.37514 0.93784,-0.46893 0.46893,-0.0938 0.93785,-0.0938 0.46892,0 1.03163,0 l 11.81687,0.93784 q 1.12541,-0.18756 2.34461,-0.28135 1.2192,-0.0938 2.53219,-0.0938 1.31298,0 2.53218,0 1.2192,0 2.53219,0 1.87569,0.37513 3.93895,0.5627 2.06326,0.18757 3.93896,0.46893 1.87569,0.28135 3.93895,0.37514 2.06326,0.0938 3.75138,1.03163 0.18757,0.37513 0.46893,0.75027 0.28135,0.37514 0.37514,0.84407 0.0938,0.46892 0.0938,0.84406 0,0.37514 0,0.93784 l -0.93785,1.8757 q -0.5627,0.37513 -1.31298,0.65649 -0.75028,0.28135 -1.40677,0.37514 -0.65649,0.0938 -1.50055,0.0938 -0.84407,0 -1.59434,0 -1.12542,-0.37514 -2.4384,-0.56271 -1.31299,-0.18757 -2.53219,-0.37514 -1.2192,-0.18756 -2.53218,-0.18756 -1.31299,0 -2.62597,-0.37514 -0.18757,1.68812 -0.93785,3.09489 -0.75028,1.40677 -1.2192,3.00111 -0.46892,1.59434 -0.75028,3.18868 -0.28135,1.59433 -0.46892,3.28246 l 13.88013,0.56271 4.12652,-0.18757 q 1.31298,0.18757 2.62597,0.18757 1.31298,0 2.62597,0.28135 1.31298,0.28135 2.62597,0.28135 1.31298,0 2.25083,0.93785 0.18757,0.37514 0.46892,0.75028 0.28136,0.37513 0.37514,0.84406 0.0938,0.46892 0.0938,0.84406 0,0.37514 0,0.93785 l -0.93785,1.87569 q -0.56271,0.37514 -1.03163,0.65649 -0.46892,0.28136 -1.12542,0.37514 -0.65649,0.0938 -1.2192,0.0938 -0.5627,0 -1.31298,0 -0.93785,-0.37513 -2.15705,-0.37513 -1.2192,0 -2.4384,-0.0938 -1.2192,-0.0938 -2.34461,-0.0938 -1.12542,0 -2.4384,0 l -1.31299,0.18757 -8.81575,-0.37514 v 0.56271 q 2.62597,3.56381 4.68923,7.40898 2.06326,3.84517 4.31409,7.50277 2.25083,3.6576 4.97059,7.22142 2.71975,3.56381 3.47003,7.87791 l -0.93785,1.87569 q -0.37514,0.18757 -0.65649,0.37514 -0.28136,0.18757 -0.65649,0.37514 -0.37514,0.18757 -0.75028,0.18757 -0.37514,0 -0.75028,0.18756 z M 164.7379,184.47312 v -0.56271 q -0.18757,-4.12652 -0.46892,-8.34683 -0.28136,-4.22031 -0.56271,-8.5344 -0.28136,-4.31409 -0.56271,-8.44062 -0.28135,-4.12652 -0.46892,-8.44061 l -7.50277,-0.18757 -0.56271,0.18757 q -0.18757,4.31409 -1.03163,8.44061 -0.84406,4.12653 -0.84406,8.53441 0,4.40787 -0.56271,8.5344 -0.56271,4.12652 -0.93785,8.44061 h 4.12653 l 6.75249,-0.18757 z m 40.13982,-37.13871 -1.87569,-0.93785 q -0.18757,-0.37514 -0.46892,-0.84406 -0.28136,-0.46892 -0.37514,-0.93785 -0.0938,-0.46892 -0.0938,-0.93784 0,-0.46892 0,-1.03163 0.56271,-1.8757 1.50056,-3.6576 0.93784,-1.78191 1.68812,-3.6576 0.75028,-1.8757 1.50055,-3.75139 0.75028,-1.87569 1.8757,-3.56381 0.37514,-0.18757 0.75027,-0.46893 0.37514,-0.28135 0.84407,-0.37514 0.46892,-0.0938 0.84406,-0.0938 0.37514,0 0.93784,0 l 1.8757,0.93785 q 0.18757,0.37513 0.46892,0.75027 0.28135,0.37514 0.37514,0.84406 0.0938,0.46893 0.0938,0.93785 0,0.46892 0,1.03163 -0.75027,1.87569 -1.59434,3.6576 -0.84406,1.78191 -1.59434,3.6576 -0.75027,1.87569 -1.59433,3.6576 -0.84407,1.78191 -1.59434,3.6576 -0.37514,0.18757 -0.75028,0.46893 -0.37514,0.28135 -0.84406,0.46892 -0.46892,0.18757 -0.93785,0.18757 -0.46892,0 -1.03163,0 z m -18.75692,-1.50056 -2.06327,-0.93784 q -0.93784,-1.87569 -1.96947,-3.75139 -1.03163,-1.87569 -1.78191,-3.84517 -0.75028,-1.96947 -1.31299,-3.93895 -0.5627,-1.96948 -0.75027,-4.22031 l 0.93784,-1.87569 q 0.37514,-0.18757 0.75028,-0.46893 0.37514,-0.28135 0.84406,-0.37513 0.46892,-0.0938 0.84406,-0.0938 0.37514,0 0.93785,0 l 1.87569,0.93785 q 1.50056,1.68812 1.78191,3.84517 0.28135,2.15704 1.2192,4.03274 0.93785,1.87569 1.96948,3.75138 1.03163,1.87569 1.03163,4.12653 l -0.93785,1.87569 q -0.37514,0.18757 -0.75027,0.46892 -0.37514,0.28136 -0.84407,0.37514 -0.46892,0.0938 -0.84406,0.0938 -0.37514,0 -0.93784,0 z" />
      </g>
      <g
         id="text4649"
         style="font-style:normal;font-variant:normal;font-weight:normal;font-stretch:normal;font-size:50.79999924px;line-height:14.25;font-family:uzura_font;-inkscape-font-specification:uzura_font;letter-spacing:0px;word-spacing:0px;fill:#fa58f4;fill-opacity:1;stroke:#ffffff;stroke-width:1.5;stroke-miterlimit:4;stroke-dasharray:none;stroke-dashoffset:0;stroke-opacity:1;filter:url(#filter4661)"
         transform="matrix(0.970299,0,0,0.970299,5.0199009,10.408326)"
         aria-label="ふぁんねっと">
        <path
           id="path861"
           style="font-style:normal;font-variant:normal;font-weight:normal;font-stretch:normal;font-size:50.79999924px;line-height:14.25;font-family:uzura_font;-inkscape-font-specification:uzura_font;fill:#fa58f4;fill-opacity:1;stroke:#ffffff;stroke-width:1.5;stroke-miterlimit:4;stroke-dasharray:none;stroke-dashoffset:0;stroke-opacity:1"
           d="m 15.421429,254.60524 q -0.79375,-0.0992 -1.5875,-0.14883 -0.79375,-0.0496 -1.53789,-0.34727 -0.744141,-0.29765 -1.438672,-0.64492 -0.694531,-0.34726 -1.2898438,-0.84336 -0.099219,-0.19844 -0.2976562,-0.44648 -0.1984375,-0.24805 -0.2480469,-0.4961 -0.049609,-0.24804 -0.049609,-0.49609 0,-0.24805 0,-0.5457 l 0.4960938,-0.99219 q 0.1984375,-0.0992 0.396875,-0.24805 0.1984375,-0.14883 0.4464845,-0.19843 0.248047,-0.0496 0.496094,-0.0496 0.248046,0 0.545703,0 l 0.992187,0.49609 0.694531,0.59531 q 0.396875,0.0992 0.744141,0.24805 0.347266,0.14883 0.744141,0.14883 0.396875,0 0.79375,0.0496 0.396875,0.0496 0.79375,0.0496 0.496093,-0.29766 0.942578,-0.59532 0.446484,-0.29765 0.843359,-0.74414 0.396875,-0.44648 0.892969,-0.84336 0.496094,-0.39687 0.694531,-0.89297 l 0.198438,-1.19062 q -0.09922,-1.78594 -0.644922,-3.42305 -0.545703,-1.63711 -1.736328,-2.97656 -1.190625,-1.33945 -2.331641,-2.72852 -1.141016,-1.38906 -1.240234,-3.27421 0.694531,-1.28985 1.686718,-2.48047 0.992188,-1.19063 1.736328,-2.48047 0.744141,-1.28985 1.5875,-2.57969 0.84336,-1.28984 1.240235,-2.67891 -1.091406,0 -2.083594,-0.44648 -0.992187,-0.44648 -2.083594,-0.5457 -1.091406,-0.0992 -2.133203,-0.34727 -1.041797,-0.24805 -2.133203,-0.24805 l -0.992187,0.0992 -0.9921878,-0.49609 q -0.099219,-0.19844 -0.2480468,-0.39688 -0.1488282,-0.19843 -0.1984375,-0.44648 -0.049609,-0.24805 -0.049609,-0.44648 0,-0.19844 0,-0.4961 l 0.4960937,-0.99219 q 0.2976563,-0.29765 0.6945308,-0.44648 0.396875,-0.14883 0.84336,-0.19844 0.446484,-0.0496 0.892969,-0.0496 0.446484,0 0.942578,0 1.289843,0.39688 2.728515,0.4961 1.438672,0.0992 2.728516,0.59531 1.289844,0.49609 2.678906,0.74414 1.389063,0.24805 2.480469,1.14102 v 0.19843 h 0.198437 q 0.09922,0.29766 0.248047,0.54571 0.148828,0.24804 0.198438,0.5457 0.04961,0.29766 0.04961,0.59531 0,0.29766 0,0.59531 -0.496094,1.48829 -1.141016,2.92696 -0.644921,1.43867 -1.53789,2.77812 -0.892969,1.33946 -1.736328,2.6293 -0.84336,1.28984 -1.835547,2.67891 1.190625,1.48828 2.38125,2.77812 1.190625,1.28984 1.934765,2.87734 0.744141,1.5875 0.942579,3.32383 0.198437,1.73633 0.297656,3.52227 -0.09922,0.49609 -0.248047,0.94258 -0.148828,0.44648 -0.297656,0.94257 -0.148828,0.4961 -0.446485,0.89297 -0.297656,0.39688 -0.595312,0.79375 l -1.785938,1.78594 q -0.595312,0.29766 -1.141015,0.74414 -0.545703,0.44649 -1.091407,0.69453 -0.545703,0.24805 -1.190624,0.34727 -0.644922,0.0992 -1.339454,0.0992 z M 2.1261171,252.12477 q -0.1984375,-0.0992 -0.3472656,-0.14883 -0.1488281,-0.0496 -0.3472656,-0.0992 -0.1984375,-0.0496 -0.3472657,-0.14883 -0.14882809,-0.0992 -0.34726558,-0.19843 -0.0992188,-0.19844 -0.24804688,-0.39688 -0.14882812,-0.19844 -0.19843749,-0.44648 -0.0496094,-0.24805 -0.0496094,-0.4961 0,-0.24804 0,-0.5457 0.49609375,-1.48828 0.74414062,-3.12539 0.24804691,-1.63711 0.59531251,-3.22461 0.3472656,-1.5875 0.5953125,-3.22461 0.2480468,-1.63711 1.0417968,-3.02617 0.1984375,-0.0992 0.396875,-0.24805 0.1984375,-0.14883 0.4464844,-0.19844 0.2480469,-0.0496 0.4464844,-0.0496 0.1984375,0 0.4960937,0 l 0.9921875,0.4961 q 0.099219,0.19844 0.2480469,0.39687 0.1488281,0.19844 0.1984375,0.44649 0.049609,0.24804 0.049609,0.49609 0,0.24805 0,0.5457 -0.4960937,1.48829 -0.79375,3.07579 -0.2976562,1.5875 -0.6449218,3.22461 -0.3472656,1.6371 -0.5457031,3.2246 -0.1984375,1.5875 -0.8929688,3.07579 -0.1984375,0.0992 -0.3472656,0.19843 -0.1488281,0.0992 -0.3472656,0.19844 -0.1984375,0.0992 -0.396875,0.0992 -0.1984375,0 -0.396875,0.0992 z m 33.2382809,-0.79375 -0.992188,-0.4961 q -0.694531,-1.5875 -1.190625,-3.12539 -0.496093,-1.53789 -0.942578,-3.12539 -0.446484,-1.5875 -1.041797,-3.12539 -0.595312,-1.53789 -0.892968,-3.22461 l 0.496093,-0.99218 q 0.198438,-0.0992 0.396875,-0.24805 0.198438,-0.14883 0.446485,-0.19844 0.248047,-0.0496 0.446484,-0.0496 0.198438,0 0.496094,0 l 0.992187,0.4961 q 0.892969,1.48828 1.389063,3.07578 0.496094,1.5875 0.942578,3.12539 0.446484,1.53789 1.041797,3.12539 0.595312,1.5875 0.694531,3.27422 l -0.496094,0.99218 q -0.198437,0.0992 -0.396875,0.24805 -0.198437,0.14883 -0.446484,0.19844 -0.248047,0.0496 -0.446484,0.0496 -0.198438,0 -0.496094,0 z" />
        <path
           id="path863"
           style="font-style:normal;font-variant:normal;font-weight:normal;font-stretch:normal;font-size:50.79999924px;line-height:14.25;font-family:uzura_font;-inkscape-font-specification:uzura_font;fill:#fa58f4;fill-opacity:1;stroke:#ffffff;stroke-width:1.5;stroke-miterlimit:4;stroke-dasharray:none;stroke-dashoffset:0;stroke-opacity:1"
           d="m 67.312835,254.20836 -0.992188,-0.49609 q -0.09922,-0.19844 -0.248046,-0.39688 -0.148829,-0.19843 -0.198438,-0.44648 -0.04961,-0.24805 -0.09922,-0.44649 -0.04961,-0.19843 -0.04961,-0.49609 h -0.198438 q -0.496093,0.0992 -0.942578,0.19844 -0.446484,0.0992 -0.942578,0.14883 -0.496094,0.0496 -1.041797,0.0496 -0.545703,0 -1.041797,0 -0.496093,-0.0992 -0.942578,-0.24805 -0.446484,-0.14883 -0.843359,-0.4961 -0.396875,-0.34726 -0.79375,-0.64492 -0.396875,-0.29765 -0.79375,-0.69453 -0.396875,-0.49609 -0.79375,-1.04179 -0.396875,-0.54571 -0.545703,-1.19063 -0.148828,-0.64492 -0.248047,-1.33945 -0.09922,-0.69453 -0.09922,-1.38907 0.198438,-0.69453 0.297657,-1.38906 0.09922,-0.69453 0.496093,-1.28984 0.396875,-0.59531 0.79375,-1.19063 0.396875,-0.59531 0.992188,-1.0914 0.694531,-0.59532 1.5875,-0.99219 0.892968,-0.39688 1.785937,-0.64492 0.892969,-0.24805 1.785938,-0.4961 0.892968,-0.24804 1.885156,-0.24804 l 0.09922,-4.16719 q -1.091407,0 -2.133203,-0.0496 -1.041797,-0.0496 -2.083594,-0.0992 -1.041797,-0.0496 -2.083594,-0.14883 -1.041797,-0.0992 -1.934765,-0.59531 -0.09922,-0.19844 -0.248047,-0.39687 -0.148828,-0.19844 -0.198438,-0.44649 -0.04961,-0.24805 -0.04961,-0.44648 0,-0.19844 0,-0.4961 l 0.496094,-0.99218 q 0.297656,-0.19844 0.644921,-0.34727 0.347266,-0.14883 0.744141,-0.14883 0.396875,0 0.79375,0 0.396875,0 0.79375,0 0.595312,0.19844 1.289844,0.19844 0.694531,0 1.389062,0.0496 0.694531,0.0496 1.389063,0.0496 0.694531,0 1.389062,0 0,-0.69453 0,-1.38906 0,-0.69454 0,-1.38907 0,-0.69453 0.198438,-1.28984 0.198437,-0.59531 0.595312,-1.09141 0.198438,-0.0992 0.396875,-0.24804 0.198438,-0.14883 0.446484,-0.19844 0.248047,-0.0496 0.446485,-0.0496 0.198437,0 0.496094,0 l 1.091406,0.49609 q 0.09922,0.19844 0.248047,0.39688 0.148828,0.19844 0.198437,0.44648 0.04961,0.24805 0.04961,0.4961 0,0.24804 0,0.5457 -0.198438,0.39687 -0.198438,0.84336 0,0.44648 0,0.94258 0,0.49609 0,0.94258 0,0.44648 0,0.94257 1.091406,0.19844 2.282031,0.29766 1.190625,0.0992 2.282032,0.34727 1.091406,0.24804 2.33164,0.19843 1.240234,-0.0496 2.133203,0.64492 0.09922,0.19844 0.248047,0.39688 0.148828,0.19844 0.248047,0.44648 0.09922,0.24805 0.09922,0.4961 0,0.24804 0,0.5457 l -0.496094,0.99219 q -0.198438,0.0992 -0.396875,0.24805 -0.198438,0.14882 -0.446484,0.19843 -0.248047,0.0496 -0.446485,0.0496 -0.198437,0 -0.496094,0 -0.992187,-0.0992 -1.934765,-0.24804 -0.942578,-0.14883 -1.835547,-0.29766 -0.892969,-0.14883 -1.885156,-0.19844 -0.992188,-0.0496 -1.984375,-0.14883 v 3.77032 l 3.373437,0.69453 q 0.09922,-0.39688 0.248047,-0.69453 0.148828,-0.29766 0.198438,-0.69454 0.04961,-0.39687 0.248047,-0.69453 0.198437,-0.29765 0.396875,-0.59531 0.198437,-0.0992 0.396875,-0.29766 0.198437,-0.19843 0.446484,-0.24804 0.248047,-0.0496 0.446484,-0.0496 0.198438,0 0.496094,0 l 0.992187,0.59531 q 0.09922,0.19844 0.248047,0.39688 0.148828,0.19843 0.198438,0.44648 0.04961,0.24805 0.04961,0.49609 0,0.24805 0,0.54571 l -0.892969,3.175 1.686719,1.88515 q 0.297656,0.59532 0.446485,1.19063 0.148828,0.59531 0.248046,1.24023 0.09922,0.64492 0.09922,1.28985 0,0.64492 0,1.33945 -0.198437,0.59531 -0.248047,1.19062 -0.04961,0.59532 -0.297656,1.14102 -0.248047,0.5457 -0.446484,1.09141 -0.198438,0.5457 -0.496094,1.04179 -0.198438,0.0992 -0.396875,0.24805 -0.198438,0.14883 -0.446484,0.24805 -0.248047,0.0992 -0.496094,0.0992 -0.248047,0 -0.545703,0 l -0.992188,-0.4961 q -0.09922,-0.19844 -0.248047,-0.34726 -0.148828,-0.14883 -0.148828,-0.39688 0,-0.24805 -0.09922,-0.44648 -0.09922,-0.19844 -0.09922,-0.39688 0.09922,-0.59531 0.396875,-1.19062 0.297656,-0.59532 0.496093,-1.24024 0.198438,-0.64492 0.198438,-1.33945 0,-0.69453 0,-1.38906 l -0.694531,-1.09141 q -0.396875,0.79375 -0.992188,1.53789 -0.595312,0.74414 -1.289843,1.48828 -0.694532,0.74414 -1.438672,1.33946 -0.744141,0.59531 -1.438672,1.28984 0,0.39687 0,0.84336 0,0.44648 0,0.89297 0,0.44648 -0.09922,0.84336 -0.09922,0.39687 -0.496094,0.69453 -0.198437,0.0992 -0.396875,0.24804 -0.198437,0.14883 -0.446484,0.19844 -0.248047,0.0496 -0.446484,0.0496 -0.198438,0 -0.496094,0 z m -1.686719,-6.35 v -1.68672 l 0.198438,-4.36562 h -0.396875 q -0.496094,0.19844 -1.041797,0.39687 -0.545703,0.19844 -1.091406,0.29766 -0.545704,0.0992 -1.091407,0.39687 -0.545703,0.29766 -0.942578,0.69454 -0.198437,0.29765 -0.446484,0.59531 -0.248047,0.29765 -0.347266,0.69453 -0.09922,0.39687 -0.09922,0.79375 0,0.39687 0,0.79375 0.198438,0.19844 0.248047,0.44648 0.04961,0.24805 0.198438,0.44649 0.148828,0.19844 0.347265,0.39687 0.198438,0.19844 0.396875,0.39688 0.198438,0.19844 0.446485,0.24805 0.248047,0.0496 0.545703,0.0496 0.297656,0 0.545703,0 0.248047,0 0.545703,0 z m 4.266406,-2.77812 q 0.297657,-0.29766 0.545703,-0.59532 0.248047,-0.29765 0.446485,-0.64492 0.198437,-0.34726 0.496094,-0.69453 0.297656,-0.34726 0.297656,-0.74414 l -1.885156,-0.49609 -0.09922,3.175 0.09922,0.0992 z" />
        <path
           id="path865"
           style="font-style:normal;font-variant:normal;font-weight:normal;font-stretch:normal;font-size:50.79999924px;line-height:14.25;font-family:uzura_font;-inkscape-font-specification:uzura_font;fill:#fa58f4;fill-opacity:1;stroke:#ffffff;stroke-width:1.5;stroke-miterlimit:4;stroke-dasharray:none;stroke-dashoffset:0;stroke-opacity:1"
           d="m 130.51518,254.4068 q -0.69453,-0.19844 -1.33946,-0.34727 -0.64492,-0.14882 -1.19062,-0.49609 -0.5457,-0.34727 -1.09141,-0.84336 -0.5457,-0.49609 -1.04179,-0.99219 -0.89297,-1.19062 -1.43868,-2.48047 -0.5457,-1.28984 -0.74414,-2.77812 -0.19843,-1.48828 -0.64492,-2.87734 -0.44648,-1.38907 -1.43867,-2.48047 -0.49609,-0.39688 -1.0418,-0.74414 -0.5457,-0.34727 -1.0914,-0.54571 -0.54571,-0.19843 -1.14102,-0.29765 -0.59531,-0.0992 -1.28984,0 -0.59531,0.19843 -1.19063,0.19843 -0.59531,0 -1.0914,0.29766 -0.4961,0.29766 -0.99219,0.64492 -0.49609,0.34727 -0.99219,0.74414 -0.49609,1.48828 -0.99219,3.02618 -0.49609,1.53789 -1.0914,2.97656 -0.59531,1.43867 -0.99219,3.02617 -0.39687,1.5875 -1.09141,2.97656 -0.19843,0.0992 -0.39687,0.24805 -0.19844,0.14883 -0.44649,0.19844 -0.24804,0.0496 -0.49609,0.0496 -0.24805,0 -0.5457,0 l -0.99219,-0.4961 q -0.0992,-0.19844 -0.24805,-0.39687 -0.14882,-0.19844 -0.19843,-0.44649 -0.0496,-0.24804 -0.0496,-0.44648 0,-0.19844 0,-0.4961 1.28984,-3.96875 2.62929,-7.88789 1.33946,-3.91914 2.57969,-7.9375 1.24024,-4.01836 2.77813,-7.88789 1.53789,-3.86953 2.92695,-7.73906 0.19844,-0.0992 0.39687,-0.24805 0.19844,-0.14882 0.44649,-0.19843 0.24805,-0.0496 0.44648,-0.0496 0.19844,0 0.4961,0 l 0.99218,0.49609 q 0.0992,0.19844 0.24805,0.44649 0.14883,0.24804 0.19844,0.5457 0.0496,0.29765 0.0496,0.59531 0,0.29766 0,0.59531 -0.39688,1.78594 -1.09141,3.42305 -0.69453,1.63711 -1.38906,3.27422 -0.69453,1.63711 -1.24024,3.27422 -0.5457,1.63711 -1.04179,3.52226 h 1.48828 q 0.29766,-0.0992 0.64492,-0.19843 0.34727,-0.0992 0.69453,-0.0992 0.34727,0 0.64492,0 0.29766,0 0.69454,0 0.59531,0.29765 1.28984,0.39687 0.69453,0.0992 1.24023,0.39688 0.54571,0.29765 1.09141,0.64492 0.5457,0.34726 1.0418,0.64492 v 0.19844 l 0.89297,0.49609 v 0.19844 h 0.19843 q 0.99219,1.28984 1.68672,2.6293 0.69453,1.33945 0.89297,2.92695 0.19844,1.5875 0.64492,3.07578 0.44649,1.48828 1.63711,2.67891 0.29766,0.19843 0.59531,0.34726 0.29766,0.14883 0.59532,0.24805 0.29765,0.0992 0.59531,0.0992 0.29766,0 0.69453,0 0.19844,-0.19844 0.49609,-0.19844 0.29766,0 0.54571,-0.14883 0.24804,-0.14883 0.49609,-0.29765 0.24805,-0.14883 0.44649,-0.34727 l 1.19062,-2.08359 q 0.19844,-0.0992 0.39688,-0.24805 0.19843,-0.14883 0.44648,-0.24805 0.24805,-0.0992 0.49609,-0.0992 0.24805,0 0.54571,0 l 0.99218,0.4961 q 0.0992,0.19844 0.24805,0.39687 0.14883,0.19844 0.19844,0.44649 0.0496,0.24804 0.0496,0.49609 0,0.24805 0,0.5457 -0.19844,0.39688 -0.39688,0.84336 -0.19843,0.44649 -0.44648,0.84336 -0.24805,0.39688 -0.5457,0.79375 -0.29766,0.39688 -0.4961,0.79375 h -0.19844 v 0.19844 q -0.69453,0.39688 -1.33945,0.74414 -0.64492,0.34727 -1.38906,0.59531 -0.74414,0.24805 -1.48828,0.34727 -0.74414,0.0992 -1.63711,0 z" />
        <path
           id="path867"
           style="font-style:normal;font-variant:normal;font-weight:normal;font-stretch:normal;font-size:50.79999924px;line-height:14.25;font-family:uzura_font;-inkscape-font-specification:uzura_font;fill:#fa58f4;fill-opacity:1;stroke:#ffffff;stroke-width:1.5;stroke-miterlimit:4;stroke-dasharray:none;stroke-dashoffset:0;stroke-opacity:1"
           d="m 161.96752,255.69664 -0.99219,-0.49609 q -0.69453,-1.28984 -0.59531,-2.87734 0.0992,-1.5875 -0.0496,-3.07579 -0.14883,-1.48828 -0.14883,-3.02617 0,-1.53789 0,-3.12539 h -0.19844 l -1.88515,3.27422 q -0.19844,0.0992 -0.39688,0.24805 -0.19844,0.14883 -0.44648,0.19844 -0.24805,0.0496 -0.44649,0.0496 -0.19844,0 -0.49609,0 l -0.99219,-0.49609 q -0.0992,-0.19844 -0.24805,-0.39687 -0.14882,-0.19844 -0.19843,-0.44649 -0.0496,-0.24805 -0.0496,-0.49609 0,-0.24805 0,-0.54571 0.59531,-1.38906 1.43867,-2.6789 0.84336,-1.28985 1.68672,-2.6293 0.84336,-1.33945 1.73633,-2.6293 0.89296,-1.28984 0.49609,-3.07578 -0.0992,-0.59531 -0.14883,-1.14101 -0.0496,-0.54571 -0.0496,-1.14102 0,-0.59531 0,-1.19062 0,-0.59532 0,-1.19063 h -1.0914 l -3.96875,0.39688 -0.99219,-0.4961 q -0.0992,-0.19843 -0.24805,-0.39687 -0.14883,-0.19844 -0.19844,-0.44649 -0.0496,-0.24804 -0.0496,-0.44648 0,-0.19844 0,-0.49609 l 0.4961,-0.99219 q 0.59531,-0.4961 1.43867,-0.5457 0.84336,-0.0496 1.63711,-0.14883 0.79375,-0.0992 1.5875,-0.19844 0.79375,-0.0992 1.5875,-0.19844 v -0.29765 l -0.0992,-0.79375 0.19844,-4.46485 -0.0992,-1.28984 q 0.0992,-0.19844 0.14883,-0.34727 0.0496,-0.14883 0.0992,-0.34726 0.0496,-0.19844 0.14882,-0.34727 0.0992,-0.14883 0.19844,-0.34726 0.19844,-0.0992 0.39688,-0.24805 0.19843,-0.14883 0.44648,-0.19844 0.24805,-0.0496 0.44649,-0.0496 0.19843,0 0.49609,0 l 0.99219,0.4961 q 0.39687,0.39687 0.44648,0.94257 0.0496,0.54571 0.0496,1.09141 0,0.5457 0.0992,1.0418 0.0992,0.49609 0,1.0914 l -0.19844,3.6711 q 0.29766,0.19843 0.79375,0.19843 0.4961,0 0.94258,0 0.44648,0 0.84336,0.0992 0.39687,0.0992 0.69453,0.39688 0.0992,0.19844 0.24805,0.39687 0.14883,0.19844 0.19844,0.44649 0.0496,0.24804 0.0496,0.44648 0,0.19844 0,0.4961 l -0.49609,0.99218 q -0.29766,0.29766 -0.74414,0.39688 -0.44648,0.0992 -0.84336,0.14883 -0.39687,0.0496 -0.84336,0.0496 -0.44648,0 -0.94258,0 v 3.67109 l 0.39688,0.0992 q 1.48828,-0.99219 3.12539,-1.68672 1.63711,-0.69453 3.42305,-1.19063 1.78593,-0.49609 3.57187,-0.74414 1.78594,-0.24804 3.67109,-0.24804 1.28985,0.0992 2.53008,0.34726 1.24024,0.24805 2.28203,0.84336 1.0418,0.59531 2.0836,1.38906 1.04179,0.79375 1.93476,1.78594 l 0.4961,0.4961 q 0.49609,0.69453 0.79375,1.48828 0.29765,0.79375 0.49609,1.68672 0.19844,0.89296 0.34727,1.73632 0.14882,0.84336 0.24804,1.73633 0.4961,0.19844 1.09141,0.29766 0.59531,0.0992 1.09141,0.29765 0.49609,0.19844 0.99218,0.4961 0.4961,0.29765 0.99219,0.59531 0.0992,0.19844 0.24805,0.39688 0.14883,0.19843 0.24804,0.44648 0.0992,0.24805 0.0992,0.49609 0,0.24805 0,0.54571 l -0.49609,0.99218 q -0.19844,0.0992 -0.39688,0.24805 -0.19843,0.14883 -0.44648,0.19844 -0.24805,0.0496 -0.49609,0.0496 -0.24805,0 -0.54571,0 l -2.28203,-0.99219 q 0.0992,1.28984 -0.19844,2.38125 -0.29765,1.09141 -0.74414,2.1332 -0.44648,1.0418 -1.04179,2.03399 -0.59532,0.99219 -1.5875,1.78594 -0.79375,0.59531 -1.63711,0.89296 -0.84336,0.29766 -1.73633,0.4961 -0.89297,0.19844 -1.88516,0.29765 -0.99218,0.0992 -1.98437,0.0992 -0.59531,-0.19843 -1.24024,-0.34726 -0.64492,-0.14883 -1.19062,-0.44649 -0.5457,-0.29765 -1.09141,-0.59531 -0.5457,-0.29766 -1.04179,-0.89297 -0.39688,-0.49609 -0.69454,-1.0914 -0.29765,-0.59532 -0.49609,-1.19063 -0.19844,-0.59531 -0.29766,-1.24023 -0.0992,-0.64493 -0.0992,-1.33946 0.19843,-0.59531 0.29765,-1.19062 0.0992,-0.59531 0.24805,-1.19063 0.14883,-0.59531 0.49609,-1.14101 0.34727,-0.54571 0.74414,-1.0418 1.19063,-0.99219 2.43086,-1.68672 1.24024,-0.69453 2.67891,-0.94258 1.43867,-0.24804 2.92695,-0.39687 1.48828,-0.14883 3.07578,-0.0496 v -0.39688 q -0.0992,-0.69453 -0.29765,-1.33945 -0.19844,-0.64492 -0.44649,-1.33945 -0.24804,-0.69453 -0.79375,-1.19063 -0.5457,-0.49609 -1.04179,-0.99218 -0.79375,-0.39688 -1.48829,-0.89297 -0.69453,-0.4961 -1.5875,-0.64492 -0.89296,-0.14883 -1.83554,-0.19844 -0.94258,-0.0496 -1.83555,-0.0496 -1.68672,0.0992 -3.175,0.5457 -1.48828,0.44649 -3.07578,1.0418 -1.5875,0.59531 -2.97656,1.43867 -1.38907,0.84336 -2.57969,2.03398 l -0.0992,0.0992 v 10.21953 l 0.19844,6.54844 -0.4961,0.99219 q -0.19843,0.0992 -0.39687,0.24805 -0.19844,0.14882 -0.44648,0.19843 -0.24805,0.0496 -0.44649,0.0496 -0.19844,0 -0.49609,0 z m 21.43125,-6.44922 q 0.59531,-0.59531 0.94257,-1.33945 0.34727,-0.74414 0.69454,-1.43867 0.34726,-0.69453 0.39687,-1.53789 0.0496,-0.84336 0.14883,-1.73633 h -3.27422 q -0.69453,0.0992 -1.43867,0.24805 -0.74414,0.14883 -1.43867,0.29765 -0.69453,0.14883 -1.28985,0.54571 -0.59531,0.39687 -1.19062,0.89297 -0.19844,0.29765 -0.34727,0.64492 -0.14883,0.34726 -0.19843,0.69453 -0.0496,0.34726 -0.0992,0.69453 -0.0496,0.34727 -0.0496,0.74414 l 0.59531,1.38906 q 0.39687,0.0992 0.74414,0.34727 0.34727,0.24805 0.74414,0.39687 0.39688,0.14883 0.84336,0.14883 0.44648,0 0.94258,0 0.39687,-0.0992 0.84336,-0.14883 0.44648,-0.0496 0.84336,-0.19843 0.39687,-0.14883 0.79375,-0.29766 0.39687,-0.14883 0.79375,-0.34727 z" />
        <path
           id="path869"
           style="font-style:normal;font-variant:normal;font-weight:normal;font-stretch:normal;font-size:50.79999924px;line-height:14.25;font-family:uzura_font;-inkscape-font-specification:uzura_font;fill:#fa58f4;fill-opacity:1;stroke:#ffffff;stroke-width:1.5;stroke-miterlimit:4;stroke-dasharray:none;stroke-dashoffset:0;stroke-opacity:1"
           d="m 228.34486,253.51383 -0.99218,-0.49609 q -0.0992,-0.19844 -0.24805,-0.39688 -0.14883,-0.19844 -0.19844,-0.44648 -0.0496,-0.24805 -0.0496,-0.4961 0,-0.24804 0,-0.5457 l 0.4961,-0.99219 0.69453,-0.69453 2.38125,-2.28203 q 0.0992,-0.59531 0.29765,-1.19062 0.19844,-0.59532 0.19844,-1.28985 0,-0.69453 0,-1.33945 0,-0.64492 0,-1.33945 -0.19844,-0.29766 -0.24805,-0.59532 -0.0496,-0.29765 -0.24804,-0.5457 -0.19844,-0.24805 -0.34727,-0.49609 -0.14883,-0.24805 -0.44648,-0.44649 -1.09141,-0.69453 -2.33164,-1.14101 -1.24024,-0.44649 -2.6293,-0.4961 -1.38906,-0.0496 -2.82773,-0.0496 -1.43868,0 -2.82774,0 -1.0914,0 -2.18281,0.14883 -1.09141,0.14883 -2.1332,0.39688 -1.0418,0.24804 -2.0836,0.44648 -1.04179,0.19844 -2.1332,0.29766 l -0.99219,-0.4961 q -0.0992,-0.19843 -0.24805,-0.39687 -0.14882,-0.19844 -0.19843,-0.44649 -0.0496,-0.24804 -0.0496,-0.44648 0,-0.19844 0,-0.49609 l 0.49609,-0.99219 q 1.68672,-0.79375 3.52227,-1.19063 1.83554,-0.39687 3.67109,-0.59531 1.83555,-0.19844 3.81992,-0.19844 1.98438,0 3.96875,0 1.09141,0.0992 2.23242,0.29766 1.14102,0.19844 2.13321,0.5457 0.99218,0.34727 1.93476,0.94258 0.94258,0.59531 1.83555,1.38906 0.69453,0.79375 1.24023,1.63711 0.54571,0.84336 0.74414,1.83555 0.19844,0.99219 0.19844,2.03398 0,1.0418 0,2.13321 -0.19844,0.89297 -0.34726,1.78593 -0.14883,0.89297 -0.39688,1.73633 -0.24805,0.84336 -0.94258,1.48828 -0.69453,0.64493 -1.38906,1.33946 l -1.09141,1.0914 -0.49609,0.4961 q -0.19844,0.0992 -0.39687,0.24804 -0.19844,0.14883 -0.44649,0.19844 -0.24805,0.0496 -0.44648,0.0496 -0.19844,0 -0.4961,0 z" />
        <path
           id="path871"
           style="font-style:normal;font-variant:normal;font-weight:normal;font-stretch:normal;font-size:50.79999924px;line-height:14.25;font-family:uzura_font;-inkscape-font-specification:uzura_font;fill:#fa58f4;fill-opacity:1;stroke:#ffffff;stroke-width:1.5;stroke-miterlimit:4;stroke-dasharray:none;stroke-dashoffset:0;stroke-opacity:1"
           d="m 273.29096,254.70446 q -1.09141,-0.19844 -2.23242,-0.29766 -1.14102,-0.0992 -2.08359,-0.49609 -0.94258,-0.39688 -1.83555,-0.99219 -0.89297,-0.59531 -1.68672,-1.38906 -0.79375,-0.89297 -1.28984,-1.88516 -0.4961,-0.99219 -0.74414,-2.08359 -0.24805,-1.09141 -0.44649,-2.23243 -0.19844,-1.14101 -0.19844,-2.33164 0.0992,-1.0914 0.4961,-2.03398 0.39687,-0.94258 0.99218,-1.78594 0.59532,-0.84336 1.24024,-1.68672 0.64492,-0.84336 1.14101,-1.73633 -1.19062,-1.88515 -2.1332,-3.86953 -0.94258,-1.98437 -1.73633,-3.96875 -0.79375,-1.98437 -1.5875,-3.96875 -0.79375,-1.98437 -1.19062,-4.16718 l 0.49609,-0.99219 q 0.19844,-0.0992 0.39688,-0.24805 0.19843,-0.14883 0.44648,-0.19844 0.24805,-0.0496 0.44649,-0.0496 0.19843,0 0.49609,0 l 0.99219,0.4961 q 0.89297,1.68672 1.53789,3.52226 0.64492,1.83555 1.38906,3.62149 0.74414,1.78594 1.53789,3.52226 0.79375,1.73633 1.68672,3.52227 l 0.39687,0.0992 q 1.48829,-1.09141 3.12539,-1.98438 1.63711,-0.89297 3.37344,-1.53789 1.73633,-0.64492 3.47266,-1.24023 1.73633,-0.59531 3.7207,-0.39688 l 0.99219,0.4961 q 0.0992,0.19843 0.24805,0.39687 0.14882,0.19844 0.19843,0.44649 0.0496,0.24804 0.0496,0.44648 0,0.19844 0,0.49609 l -0.49609,0.99219 q -1.78594,0.39688 -3.62149,0.94258 -1.83554,0.5457 -3.57187,1.24023 -1.73633,0.69454 -3.37344,1.73633 -1.63711,1.0418 -3.22461,2.13321 l -0.0992,0.19843 q -0.59531,0.4961 -1.0914,1.14102 -0.4961,0.64492 -0.99219,1.28984 -0.49609,0.64492 -0.89297,1.28985 -0.39687,0.64492 -0.79375,1.33945 l -0.19844,1.5875 q 0.0992,0.69453 0.19844,1.38906 0.0992,0.69453 0.34727,1.33946 0.24804,0.64492 0.5457,1.28984 0.29766,0.64492 0.89297,1.14101 0.89297,0.79375 1.98437,1.14102 1.09141,0.34727 2.38125,0.39687 1.28985,0.0496 2.53008,0.0496 1.24024,0 2.43086,0 0.89297,-0.39687 1.88516,-0.34726 0.99219,0.0496 1.93476,-0.14883 0.94258,-0.19844 1.73633,-0.74414 0.79375,-0.5457 1.88516,-0.44648 l 0.99219,0.49609 q 0.0992,0.19844 0.24804,0.39687 0.14883,0.19844 0.19844,0.44649 0.0496,0.24805 0.0496,0.49609 0,0.24805 0,0.54571 l -0.49609,0.99218 q -1.38907,0.99219 -2.97657,1.38907 -1.5875,0.39687 -3.27422,0.49609 -1.68671,0.0992 -3.37343,0.24805 -1.68672,0.14882 -3.47266,0.0496 z" />
      </g>
      <g
         id="text4677"
         style="font-style:normal;font-variant:normal;font-weight:normal;font-stretch:normal;font-size:25.39999962px;line-height:1.25;font-family:Jiyucho;-inkscape-font-specification:Jiyucho;letter-spacing:0px;word-spacing:0px;fill:#fa58f4;fill-opacity:1;stroke:#ffffff;stroke-width:1.39999998;stroke-miterlimit:4;stroke-dasharray:none;stroke-opacity:1"
         aria-label="kimisaki-fan.net">
        <path
           id="path874"
           style="font-style:normal;font-variant:normal;font-weight:normal;font-stretch:normal;font-size:25.39999962px;font-family:Jiyucho;-inkscape-font-specification:Jiyucho;fill:#fa58f4;fill-opacity:1;stroke:#ffffff;stroke-width:1.39999998;stroke-miterlimit:4;stroke-dasharray:none;stroke-opacity:1"
           d="m 60.223417,289.05779 -1.016992,-0.49609 -2.480469,-6.47402 -0.297656,-0.0992 -0.595313,0.69453 v 5.38262 l -0.297656,0.59531 q -0.892969,0.49609 -1.984375,0.39687 l -0.917774,-0.39687 -0.297656,-0.59531 v -20.53828 l 0.297656,-0.59532 q 0.917774,-0.49609 2.00918,-0.39687 l 0.892969,0.39687 0.297656,0.59532 v 10.0707 h 0.198438 l 0.992187,-1.09141 h 0.198438 l 1.785937,-2.30683 q 0.917774,-0.4961 2.00918,-0.39688 l 0.892968,0.39688 q 0.396875,0.71933 0.297657,1.6123 l -1.488282,2.08359 -1.215429,1.19063 v 0.39687 q 0.818555,2.00918 1.711523,4.192 0.892969,2.18281 1.289844,4.39043 l -0.297656,0.59531 q -0.892969,0.49609 -1.984375,0.39687 z" />
        <path
           id="path876"
           style="font-style:normal;font-variant:normal;font-weight:normal;font-stretch:normal;font-size:25.39999962px;font-family:Jiyucho;-inkscape-font-specification:Jiyucho;fill:#fa58f4;fill-opacity:1;stroke:#ffffff;stroke-width:1.39999998;stroke-miterlimit:4;stroke-dasharray:none;stroke-opacity:1"
           d="m 69.425956,289.05779 -0.892969,-0.39687 q -0.595313,-2.00918 -0.496094,-4.29121 v -9.54981 l 0.297656,-0.59531 q 0.892969,-0.5209 1.984375,-0.42168 l 0.892969,0.42168 0.297656,0.59531 v 8.65684 l 0.198438,4.58887 -0.297656,0.59531 q -0.892969,0.49609 -1.984375,0.39687 z m -0.272852,-17.14003 -0.892969,-0.39688 q -0.396875,-0.69453 -0.297656,-1.5875 l 0.297656,-0.59531 q 0.892969,-0.4961 2.00918,-0.39688 l 0.892969,0.39688 q 0.396875,0.69453 0.297656,1.5875 l -0.297656,0.59531 q -0.892969,0.49609 -2.00918,0.39688 z" />
        <path
           id="path878"
           style="font-style:normal;font-variant:normal;font-weight:normal;font-stretch:normal;font-size:25.39999962px;font-family:Jiyucho;-inkscape-font-specification:Jiyucho;fill:#fa58f4;fill-opacity:1;stroke:#ffffff;stroke-width:1.39999998;stroke-miterlimit:4;stroke-dasharray:none;stroke-opacity:1"
           d="m 78.033182,289.05779 q -0.694531,-0.29765 -0.992187,-0.99218 l -0.198438,-1.31465 v -3.86953 l -0.09922,-0.0992 v -7.56543 l 0.595313,-1.11621 q 0.496094,-0.39688 1.289844,-0.29766 l 1.116211,0.69453 2.282031,-0.69453 1.190625,0.62012 q 1.289843,-0.91777 3.100586,-0.62012 0.992187,0.4961 1.389062,1.51309 0.396875,0.89297 0.496094,1.88515 v 10.86446 q -0.297656,0.69453 -0.992188,0.99218 h -0.79375 q -0.694531,-0.29765 -1.016992,-0.99218 l -0.09922,-0.39688 v -10.0707 q 0,-0.59531 -0.396875,-0.79375 l -0.297656,0.0992 -0.595312,0.89297 v 10.26914 q -0.297657,0.69453 -0.992188,0.99218 h -0.79375 q -0.79375,-0.39687 -1.091406,-1.19062 V 276.9035 h -0.297656 l -1.190625,0.99218 v 4.48965 l 0.09922,0.0992 v 3.77031 l 0.09922,1.81075 q -0.297656,0.69453 -1.016992,0.99218 z" />
        <path
           id="path880"
           style="font-style:normal;font-variant:normal;font-weight:normal;font-stretch:normal;font-size:25.39999962px;font-family:Jiyucho;-inkscape-font-specification:Jiyucho;fill:#fa58f4;fill-opacity:1;stroke:#ffffff;stroke-width:1.39999998;stroke-miterlimit:4;stroke-dasharray:none;stroke-opacity:1"
           d="m 94.825954,289.05779 -0.892968,-0.39687 q -0.595313,-2.00918 -0.496094,-4.29121 v -9.54981 l 0.297656,-0.59531 q 0.892969,-0.5209 1.984375,-0.42168 l 0.892969,0.42168 0.297656,0.59531 v 8.65684 l 0.198438,4.58887 -0.297657,0.59531 q -0.892968,0.49609 -1.984375,0.39687 z m -0.272851,-17.14003 -0.892969,-0.39688 q -0.396875,-0.69453 -0.297656,-1.5875 l 0.297656,-0.59531 q 0.892969,-0.4961 2.00918,-0.39688 l 0.892968,0.39688 q 0.396875,0.69453 0.297657,1.5875 l -0.297657,0.59531 q -0.892968,0.49609 -2.009179,0.39688 z" />
        <path
           id="path882"
           style="font-style:normal;font-variant:normal;font-weight:normal;font-stretch:normal;font-size:25.39999962px;font-family:Jiyucho;-inkscape-font-specification:Jiyucho;fill:#fa58f4;fill-opacity:1;stroke:#ffffff;stroke-width:1.39999998;stroke-miterlimit:4;stroke-dasharray:none;stroke-opacity:1"
           d="m 106.93064,288.95858 q -2.28203,-0.29766 -4.09277,-1.90997 -0.89297,-0.89296 -0.69453,-2.18281 l 0.29765,-0.59531 q 0.89297,-0.49609 2.00918,-0.39688 l 0.99219,0.4961 q 0.4961,0.89297 1.38906,1.38906 l 1.38907,0.29766 1.28984,-0.59532 q 0.39688,-0.49609 0.29766,-1.19062 l -0.79375,-1.38906 q -1.28985,-0.69453 -2.72852,-0.99219 -1.43867,-0.29766 -2.6541,-1.31465 -1.19063,-1.48828 -0.79375,-3.57187 l 1.09141,-1.88516 q 2.00918,-1.6123 4.7873,-1.21543 2.30684,0.39688 4.19199,2.00918 0.39688,0.59531 0.29766,1.48828 l -0.29766,0.59531 q -0.99219,0.59532 -2.18281,0.39688 -1.51309,-1.09141 -3.29902,-1.48828 -0.89297,0.39687 -1.09141,1.28984 1.38906,0.99219 2.97656,1.28984 1.61231,0.29766 2.90215,1.51309 0.79375,0.99219 0.99219,2.28203 0.19844,1.28985 0.0992,2.67891 l -0.89297,1.71152 q -1.09141,0.89297 -2.50527,1.14102 -1.38907,0.24804 -2.97657,0.14883 z" />
        <path
           id="path884"
           style="font-style:normal;font-variant:normal;font-weight:normal;font-stretch:normal;font-size:25.39999962px;font-family:Jiyucho;-inkscape-font-specification:Jiyucho;fill:#fa58f4;fill-opacity:1;stroke:#ffffff;stroke-width:1.39999998;stroke-miterlimit:4;stroke-dasharray:none;stroke-opacity:1"
           d="m 118.63846,289.05779 q -1.61231,-0.29765 -2.90215,-1.38906 -1.19063,-1.6123 -0.89297,-3.79512 0.0992,-2.18281 1.68672,-4.09277 1.21543,-0.89297 2.75332,-0.89297 1.53789,0 3.12539,0 v -0.49609 l -0.4961,-1.28985 -1.48828,-0.39687 q -2.18281,0.49609 -4.48965,0.59531 l -0.89296,-0.39687 q -0.39688,-0.59532 -0.29766,-1.48828 l 0.29766,-0.59532 q 1.68671,-0.62011 3.47265,-0.86816 1.81074,-0.24805 3.79512,-0.14883 1.6123,0.39688 2.90215,1.61231 0.69453,1.19062 0.69453,2.72851 0,1.53789 0,3.05098 l -0.0992,0.0992 v 3.86953 q 0.49609,1.38906 0.69453,2.90215 l -0.29765,0.59531 q -0.89297,0.49609 -2.0836,0.39687 l -0.91777,-0.39687 q -2.0836,0.59531 -4.56406,0.39687 z m 3.27421,-3.29902 0.39688,-0.29766 v -3.37343 q -1.19063,-0.4961 -2.57969,-0.29766 -0.69453,0.39688 -0.99219,1.19063 -0.39687,0.79375 -0.29765,2.18281 l 0.99219,0.89297 1.19062,0.0992 z" />
        <path
           id="path886"
           style="font-style:normal;font-variant:normal;font-weight:normal;font-stretch:normal;font-size:25.39999962px;font-family:Jiyucho;-inkscape-font-specification:Jiyucho;fill:#fa58f4;fill-opacity:1;stroke:#ffffff;stroke-width:1.39999998;stroke-miterlimit:4;stroke-dasharray:none;stroke-opacity:1"
           d="m 136.42341,289.05779 -1.01699,-0.49609 -2.48047,-6.47402 -0.29765,-0.0992 -0.59532,0.69453 v 5.38262 l -0.29765,0.59531 q -0.89297,0.49609 -1.98438,0.39687 l -0.91777,-0.39687 -0.29766,-0.59531 v -20.53828 l 0.29766,-0.59532 q 0.91777,-0.49609 2.00918,-0.39687 l 0.89297,0.39687 0.29765,0.59532 v 10.0707 h 0.19844 l 0.99219,-1.09141 h 0.19844 l 1.78593,-2.30683 q 0.91778,-0.4961 2.00918,-0.39688 l 0.89297,0.39688 q 0.39688,0.71933 0.29766,1.6123 l -1.48828,2.08359 -1.21543,1.19063 v 0.39687 q 0.81855,2.00918 1.71152,4.192 0.89297,2.18281 1.28984,4.39043 l -0.29765,0.59531 q -0.89297,0.49609 -1.98438,0.39687 z" />
        <path
           id="path888"
           style="font-style:normal;font-variant:normal;font-weight:normal;font-stretch:normal;font-size:25.39999962px;font-family:Jiyucho;-inkscape-font-specification:Jiyucho;fill:#fa58f4;fill-opacity:1;stroke:#ffffff;stroke-width:1.39999998;stroke-miterlimit:4;stroke-dasharray:none;stroke-opacity:1"
           d="m 145.62596,289.05779 -0.89297,-0.39687 q -0.59531,-2.00918 -0.4961,-4.29121 v -9.54981 l 0.29766,-0.59531 q 0.89297,-0.5209 1.98438,-0.42168 l 0.89296,0.42168 0.29766,0.59531 v 8.65684 l 0.19844,4.58887 -0.29766,0.59531 q -0.89297,0.49609 -1.98437,0.39687 z m -0.27285,-17.14003 -0.89297,-0.39688 q -0.39688,-0.69453 -0.29766,-1.5875 l 0.29766,-0.59531 q 0.89297,-0.4961 2.00918,-0.39688 l 0.89297,0.39688 q 0.39687,0.69453 0.29765,1.5875 l -0.29765,0.59531 q -0.89297,0.49609 -2.00918,0.39688 z" />
        <path
           id="path890"
           style="font-style:normal;font-variant:normal;font-weight:normal;font-stretch:normal;font-size:25.39999962px;font-family:Jiyucho;-inkscape-font-specification:Jiyucho;fill:#fa58f4;fill-opacity:1;stroke:#ffffff;stroke-width:1.39999998;stroke-miterlimit:4;stroke-dasharray:none;stroke-opacity:1"
           d="m 154.03474,279.18553 -0.89297,-0.39688 q -0.39687,-0.59531 -0.29765,-1.48828 l 0.29765,-0.59531 0.89297,-0.39688 h 7.56543 1.61231 l 0.89297,0.39688 q 0.39687,0.59531 0.29765,1.48828 l -0.39687,0.69453 -1.19063,0.29766 z" />
        <path
           id="path892"
           style="font-style:normal;font-variant:normal;font-weight:normal;font-stretch:normal;font-size:25.39999962px;font-family:Jiyucho;-inkscape-font-specification:Jiyucho;fill:#fa58f4;fill-opacity:1;stroke:#ffffff;stroke-width:1.39999998;stroke-miterlimit:4;stroke-dasharray:none;stroke-opacity:1"
           d="m 170.7283,289.05779 -0.89297,-0.39687 -0.29766,-0.59531 V 276.9035 h -0.89297 l -2.20762,0.0992 -0.89296,-0.39688 q -0.39688,-0.59531 -0.29766,-1.48828 l 0.29766,-0.59531 q 1.78593,-0.59531 3.89433,-0.4961 v -3.69589 q 0.19844,-1.38907 1.09141,-2.50528 1.78594,-1.28984 4.19199,-0.99219 0.99219,0.19844 1.68672,0.99219 0.99219,1.11621 0.79375,2.80293 l -0.29766,0.59531 q -0.89297,0.4961 -1.98437,0.39688 l -0.91778,-0.39688 -0.39687,-1.19062 h -0.19844 q -0.49609,1.09141 -0.49609,2.08359 0,0.99219 0,1.90996 2.20761,-0.22324 4.09277,0.39688 0.39688,0.59531 0.29766,1.48828 l -0.29766,0.59531 q -1.78594,0.59531 -3.99355,0.39688 v 9.74824 l 0.0992,1.21543 -0.39688,0.79375 q -0.89297,0.49609 -1.98437,0.39687 z" />
        <path
           id="path894"
           style="font-style:normal;font-variant:normal;font-weight:normal;font-stretch:normal;font-size:25.39999962px;font-family:Jiyucho;-inkscape-font-specification:Jiyucho;fill:#fa58f4;fill-opacity:1;stroke:#ffffff;stroke-width:1.39999998;stroke-miterlimit:4;stroke-dasharray:none;stroke-opacity:1"
           d="m 182.13846,289.05779 q -1.61231,-0.29765 -2.90215,-1.38906 -1.19063,-1.6123 -0.89297,-3.79512 0.0992,-2.18281 1.68672,-4.09277 1.21543,-0.89297 2.75332,-0.89297 1.53789,0 3.12539,0 v -0.49609 l -0.4961,-1.28985 -1.48828,-0.39687 q -2.18281,0.49609 -4.48965,0.59531 l -0.89296,-0.39687 q -0.39688,-0.59532 -0.29766,-1.48828 l 0.29766,-0.59532 q 1.68671,-0.62011 3.47265,-0.86816 1.81074,-0.24805 3.79512,-0.14883 1.6123,0.39688 2.90215,1.61231 0.69453,1.19062 0.69453,2.72851 0,1.53789 0,3.05098 l -0.0992,0.0992 v 3.86953 q 0.49609,1.38906 0.69453,2.90215 l -0.29765,0.59531 q -0.89297,0.49609 -2.0836,0.39687 l -0.91777,-0.39687 q -2.0836,0.59531 -4.56406,0.39687 z m 3.27421,-3.29902 0.39688,-0.29766 v -3.37343 q -1.19063,-0.4961 -2.57969,-0.29766 -0.69453,0.39688 -0.99219,1.19063 -0.39687,0.79375 -0.29765,2.18281 l 0.99219,0.89297 1.19062,0.0992 z" />
        <path
           id="path896"
           style="font-style:normal;font-variant:normal;font-weight:normal;font-stretch:normal;font-size:25.39999962px;font-family:Jiyucho;-inkscape-font-specification:Jiyucho;fill:#fa58f4;fill-opacity:1;stroke:#ffffff;stroke-width:1.39999998;stroke-miterlimit:4;stroke-dasharray:none;stroke-opacity:1"
           d="m 192.33318,289.05779 -0.89297,-0.39687 -0.29766,-0.59531 v -8.58243 l 0.0992,-0.0992 v -4.58887 l 0.29766,-0.59531 q 0.89297,-0.4961 2.00918,-0.39688 l 0.89297,0.39688 0.0992,0.29765 h 0.19843 q 1.19063,-0.49609 2.53008,-0.64492 1.33946,-0.14883 2.85254,-0.0496 l 1.28984,0.69453 q 0.59532,1.01699 0.89297,2.20762 v 5.87871 l -0.0992,4.06797 0.0992,1.31465 -0.39687,0.69453 q -0.89297,0.49609 -1.98438,0.39687 l -0.91777,-0.39687 -0.29766,-0.59531 v -6.27559 l 0.0992,-0.0992 v -4.09277 l -0.19843,-0.79375 h -0.79375 l -3.07579,0.99219 -0.0992,2.57968 v 7.68946 l -0.29766,0.59531 q -0.89297,0.49609 -2.00918,0.39687 z" />
        <path
           id="path898"
           style="font-style:normal;font-variant:normal;font-weight:normal;font-stretch:normal;font-size:25.39999962px;font-family:Jiyucho;-inkscape-font-specification:Jiyucho;fill:#fa58f4;fill-opacity:1;stroke:#ffffff;stroke-width:1.39999998;stroke-miterlimit:4;stroke-dasharray:none;stroke-opacity:1"
           d="m 205.82693,288.76014 -1.19063,-0.59531 q -0.59531,-0.91778 -0.39687,-2.1084 l 0.39687,-0.69453 q 0.99219,-0.59532 2.30684,-0.39688 l 1.5875,0.59531 q 0.39687,0.79375 0.29765,1.78594 l -0.59531,1.01699 q -0.99219,0.59532 -2.40605,0.39688 z" />
        <path
           id="path900"
           style="font-style:normal;font-variant:normal;font-weight:normal;font-stretch:normal;font-size:25.39999962px;font-family:Jiyucho;-inkscape-font-specification:Jiyucho;fill:#fa58f4;fill-opacity:1;stroke:#ffffff;stroke-width:1.39999998;stroke-miterlimit:4;stroke-dasharray:none;stroke-opacity:1"
           d="m 217.73317,289.05779 -0.89297,-0.39687 -0.29765,-0.59531 v -8.58243 l 0.0992,-0.0992 v -4.58887 l 0.29765,-0.59531 q 0.89297,-0.4961 2.00918,-0.39688 l 0.89297,0.39688 0.0992,0.29765 h 0.19844 q 1.19062,-0.49609 2.53008,-0.64492 1.33945,-0.14883 2.85254,-0.0496 l 1.28984,0.69453 q 0.59531,1.01699 0.89297,2.20762 v 5.87871 l -0.0992,4.06797 0.0992,1.31465 -0.39688,0.69453 q -0.89297,0.49609 -1.98437,0.39687 l -0.91778,-0.39687 -0.29765,-0.59531 v -6.27559 l 0.0992,-0.0992 v -4.09277 l -0.19844,-0.79375 h -0.79375 l -3.07578,0.99219 -0.0992,2.57968 v 7.68946 l -0.29766,0.59531 q -0.89297,0.49609 -2.00918,0.39687 z" />
        <path
           id="path902"
           style="font-style:normal;font-variant:normal;font-weight:normal;font-stretch:normal;font-size:25.39999962px;font-family:Jiyucho;-inkscape-font-specification:Jiyucho;fill:#fa58f4;fill-opacity:1;stroke:#ffffff;stroke-width:1.39999998;stroke-miterlimit:4;stroke-dasharray:none;stroke-opacity:1"
           d="m 234.2283,289.05779 q -1.78593,-0.39687 -3.10058,-1.90996 -1.09141,-1.5875 -1.53789,-3.52226 -0.44649,-1.93477 -0.24805,-4.04317 0.39687,-2.77812 1.78594,-4.56406 1.81074,-1.6123 4.48965,-1.21543 2.08359,0.39688 3.79511,2.00918 1.28985,1.88516 0.89297,5.06016 l -0.29766,0.62011 q -1.5875,0.4961 -3.39824,0.54571 -1.78593,0.0496 -3.47265,0.34726 v 0.69453 q 0.49609,1.5875 1.78593,2.77813 l 0.99219,0.29766 0.99219,-0.59532 q 0.29766,-0.59531 0.89297,-0.89297 l 1.51308,-0.0992 0.89297,0.39687 q 0.39688,0.69453 0.29766,1.68672 -0.39688,0.79375 -1.19063,1.51309 -1.0914,0.69453 -2.40605,0.84335 -1.28984,0.14883 -2.67891,0.0496 z m 2.48047,-9.97148 v -0.79375 q -0.49609,-0.79375 -1.38906,-1.28984 l -0.79375,-0.19844 -0.99219,1.0914 -0.29765,1.38907 h 0.39687 z" />
        <path
           id="path904"
           style="font-style:normal;font-variant:normal;font-weight:normal;font-stretch:normal;font-size:25.39999962px;font-family:Jiyucho;-inkscape-font-specification:Jiyucho;fill:#fa58f4;fill-opacity:1;stroke:#ffffff;stroke-width:1.39999998;stroke-miterlimit:4;stroke-dasharray:none;stroke-opacity:1"
           d="m 246.82908,289.05779 -0.89297,-0.39687 -0.29765,-0.59531 v -5.7795 l -0.0992,-0.0992 v -5.2834 h -0.39688 l -2.50527,0.0992 -0.89297,-0.39688 q -0.39687,-0.59531 -0.29766,-1.48828 l 0.29766,-0.59531 q 1.78594,-0.4961 3.79512,-0.59531 -0.19844,-1.90997 0.39687,-4.09278 0.89297,-0.49609 1.98438,-0.39687 l 0.89297,0.39687 q 0.39687,0.79375 0.29765,1.78594 v 2.20762 q 1.81074,-0.19844 3.39824,0.49609 0.39688,0.59531 0.29766,1.48828 l -0.29766,0.59531 q -0.99218,0.59532 -2.30683,0.39688 l -1.19063,-0.0992 v 4.58887 l 0.0992,0.0992 v 5.35781 l 0.0992,1.11621 -0.39687,0.79375 q -0.89297,0.49609 -1.98438,0.39687 z" />
      </g>
    </g>
    <rect
       style="opacity:0.76200005;fill:#ffffff;fill-opacity:1;stroke:#ffffff;stroke-width:1.05739832;stroke-miterlimit:4;stroke-dasharray:none;stroke-dashoffset:0;stroke-opacity:1"
       id="rect902"
       width="296.34094"
       height="208.65045"
       x="-0.003800842"
       y="87.975365" />
    <g
       aria-label="no image"
       style="font-style:normal;font-variant:normal;font-weight:normal;font-stretch:normal;font-size:13.3049736px;line-height:1.25;font-family:cinecaption;-inkscape-font-specification:cinecaption;letter-spacing:0px;word-spacing:0px;fill:#000000;fill-opacity:1;stroke:none;stroke-width:1.33887839;stroke-miterlimit:4;stroke-dasharray:none"
       id="text2161"
       transform="matrix(0.99,0,0,0.99,1.5111886,1.9315282)">
      <path
         d="m 44.969549,181.05432 q -5.301201,-1.68391 -13.284186,6.86038 v -3.11835 q 0,-2.18285 -2.307581,-2.36995 -2.432316,0 -2.432316,2.43231 v 27.62862 q 0,2.36994 2.432316,2.36994 2.307581,0 2.307581,-2.30758 v -17.64988 q 8.357188,-9.97873 11.849744,-9.29269 1.746278,0.43657 1.746278,7.67115 v 19.14669 q 0,2.30758 2.369948,2.43231 2.494683,0 2.432316,-2.30758 v -19.27142 q 0.06237,-10.54004 -5.1141,-12.22395 z"
         style="font-style:normal;font-variant:normal;font-weight:normal;font-stretch:normal;font-size:63.86388016px;font-family:cinecaption;-inkscape-font-specification:cinecaption;stroke:none;stroke-width:1.33887839;stroke-miterlimit:4;stroke-dasharray:none;stroke-opacity:1"
         id="path2193"
         inkscape:connector-curvature="0" />
      <path
         d="m 58.004267,197.51923 q 0,5.98724 2.868885,11.41317 2.931253,5.42594 9.853997,5.67541 6.735644,-0.31184 9.479795,-5.86251 2.744151,-5.4883 2.744151,-11.22607 0,-4.98937 -2.806518,-10.66477 -2.744151,-5.73777 -9.417428,-6.42381 -6.79801,0.0624 -9.79163,5.98724 -2.931252,5.92487 -2.931252,11.10134 z m 4.739897,0 q 0,-3.36782 1.871013,-7.73352 1.933379,-4.36569 6.111972,-4.61516 4.303328,0.81077 5.862505,4.927 1.621544,4.11622 1.621544,7.42168 0,4.05386 -1.559177,7.98298 -1.559177,3.92913 -5.924872,4.3657 -4.303327,-0.3742 -6.17434,-4.30333 -1.808645,-3.92912 -1.808645,-8.04535 z"
         style="font-style:normal;font-variant:normal;font-weight:normal;font-stretch:normal;font-size:63.86388016px;font-family:cinecaption;-inkscape-font-specification:cinecaption;stroke:none;stroke-width:1.33887839;stroke-miterlimit:4;stroke-dasharray:none;stroke-opacity:1"
         id="path2195"
         inkscape:connector-curvature="0" />
      <path
         d="m 132.03398,173.88211 v 3.61729 q 0.0624,2.43232 2.36995,2.43232 2.36995,0 2.36995,-2.30759 v -3.86675 q 0,-2.30759 -2.36995,-2.30759 -2.36995,-0.0624 -2.36995,2.43232 z m 0,10.7895 v 27.56625 q 0,2.43231 2.30758,2.43231 2.43232,0.0624 2.43232,-2.36995 v -27.75334 q 0,-2.30758 -2.36995,-2.30758 -2.49468,-0.12474 -2.36995,2.43231 z"
         style="font-style:normal;font-variant:normal;font-weight:normal;font-stretch:normal;font-size:63.86388016px;font-family:cinecaption;-inkscape-font-specification:cinecaption;stroke:none;stroke-width:1.33887839;stroke-miterlimit:4;stroke-dasharray:none;stroke-opacity:1"
         id="path2197"
         inkscape:connector-curvature="0" />
      <path
         d="m 175.81566,180.55539 q -3.36782,-0.49894 -5.73777,1.37207 -2.30758,1.87101 -3.24308,3.18072 -0.37421,-2.30758 -3.18073,-3.24309 -2.74415,-0.99787 -7.23458,2.61942 v -1.55918 q 0,-2.43231 -2.36994,-2.36994 -2.36995,-0.0624 -2.36995,2.43231 v 29.25016 q 0,2.30758 2.36995,2.36995 2.36994,-0.0624 2.36994,-2.30759 v -19.70799 q 2.36995,-6.17434 5.67541,-6.04961 1.06024,0.0624 1.06024,6.23671 v 17.71225 q 0,2.43232 2.36995,2.43232 2.43231,0.0624 2.43231,-2.30759 v -17.83698 q 1.30971,-3.05598 2.86889,-5.3012 1.62154,-2.24521 3.55492,-2.36995 1.68391,0.31184 1.68391,7.67115 v 19.45853 q 0,2.30758 2.43232,2.36995 2.36995,0.0624 2.36995,-2.30759 v -19.52089 q 0,-11.10134 -5.05174,-12.22394 z"
         style="font-style:normal;font-variant:normal;font-weight:normal;font-stretch:normal;font-size:63.86388016px;font-family:cinecaption;-inkscape-font-specification:cinecaption;stroke:none;stroke-width:1.33887839;stroke-miterlimit:4;stroke-dasharray:none;stroke-opacity:1"
         id="path2199"
         inkscape:connector-curvature="0" />
      <path
         d="m 213.17354,203.69357 q -0.62367,-2.36995 -2.68179,-1.99575 -2.43231,0.56131 -2.05811,2.74415 0.43657,2.74416 -0.68604,3.92913 -1.12261,1.24734 -1.62154,0.68604 -0.49894,-0.56131 -0.93551,-4.42806 -0.43657,-3.92913 0.12474,-11.35081 0.62367,-7.42168 -1.74628,-10.85187 -2.36995,-3.43019 -7.48405,-3.61729 -5.05173,-0.24947 -7.29695,2.36995 -2.18285,2.55705 -2.43231,5.92487 -0.24947,2.49468 2.12048,2.74415 2.12048,0.1871 2.36995,-1.99575 0.24946,-1.43444 0.99787,-2.99362 0.7484,-1.55917 3.67966,-1.37207 2.99361,0.12473 4.17859,1.87101 1.24734,1.68391 0.99787,4.98937 -4.86463,-0.37421 -8.29482,1.99574 -6.0496,4.42806 -6.54854,12.34868 -0.24947,6.61091 3.55492,8.41956 6.92275,1.80864 12.41105,-2.18285 0.31184,0.87314 1.30971,1.99575 1.06024,1.18497 3.24309,1.55917 2.18284,0.3742 4.80226,-2.74415 2.68178,-3.11835 1.99575,-8.04535 z m -21.39191,5.23883 q -1.06024,-0.0624 -1.18497,-3.86676 0.49893,-5.42593 4.30332,-8.85612 2.36995,-1.68391 5.80014,-1.12261 -0.99787,5.55067 -0.12473,11.03898 -3.99149,2.80651 -8.79376,2.80651 z"
         style="font-style:normal;font-variant:normal;font-weight:normal;font-stretch:normal;font-size:63.86388016px;font-family:cinecaption;-inkscape-font-specification:cinecaption;stroke:none;stroke-width:1.33887839;stroke-miterlimit:4;stroke-dasharray:none;stroke-opacity:1"
         id="path2201"
         inkscape:connector-curvature="0" />
      <path
         d="m 244.85601,178.68437 q -0.31184,-1.18497 -0.93551,-1.80864 -1.68391,-1.49681 -3.18072,0 -0.68604,0.49894 -1.62155,1.62154 -0.87313,1.12261 -1.4968,2.36995 -2.74416,-2.93125 -8.10772,-2.93125 -7.17222,0 -10.16584,4.49043 -1.55917,2.86888 -1.24734,5.55067 0.3742,2.68178 4.5528,5.4883 -3.80439,3.86676 -2.74415,6.92274 -3.18072,2.80652 -2.93126,6.04961 0.43657,4.42806 4.3657,6.36144 3.99149,1.99575 9.10559,1.99575 5.61304,0 9.2927,-1.74628 3.74202,-1.93338 3.86675,-5.6754 0.12474,-3.74203 -2.68178,-6.73565 -3.24309,-3.11835 -11.03897,-3.18072 -3.24309,-0.1871 -5.05173,0.74841 -0.37421,-1.49681 2.49468,-2.99362 8.60665,1.1226 12.09921,-4.5528 1.18497,-2.36995 1.18497,-4.98936 0.62368,-2.05812 1.62155,-3.43019 1.06024,-1.37208 1.74628,-1.99575 0.5613,-0.62367 0.87314,-1.55918 z m -17.71225,22.95109 q 7.04748,-0.24947 10.35293,2.18284 1.87101,1.68391 1.24734,3.05599 -0.5613,1.43444 -2.24521,2.30758 -1.62155,0.87314 -6.04961,0.87314 -3.30545,-0.1871 -5.73777,-0.87314 -2.36995,-0.62367 -2.99362,-2.86888 -0.24947,-1.30971 1.37208,-2.68179 1.68391,-1.43444 4.05386,-1.99574 z m 8.73139,-15.71651 q 0.49893,1.99575 -0.81077,3.49256 -1.30971,1.49681 -4.1786,1.49681 -3.11835,0 -5.36357,-1.24734 -2.18284,-1.30971 -2.68178,-2.30758 -0.49894,-1.06024 0.87314,-3.05599 1.62154,-1.87101 5.92487,-1.62154 4.80226,0.1871 6.23671,3.24308 z"
         style="font-style:normal;font-variant:normal;font-weight:normal;font-stretch:normal;font-size:63.86388016px;font-family:cinecaption;-inkscape-font-specification:cinecaption;stroke:none;stroke-width:1.33887839;stroke-miterlimit:4;stroke-dasharray:none;stroke-opacity:1"
         id="path2203"
         inkscape:connector-curvature="0" />
      <path
         d="m 248.72277,197.64396 q -0.0624,7.54642 3.36782,12.28632 3.43019,4.80226 12.09921,4.49043 8.66903,-0.24947 11.03897,-9.1056 0.43657,-2.43231 -2.05811,-2.68178 -2.30758,-0.43657 -2.68178,2.05811 -0.24947,1.30971 -1.55918,3.24309 -1.24734,1.99575 -6.67328,1.80865 -5.42593,-0.12474 -7.10984,-3.24309 -1.68391,-3.11836 -1.68391,-8.85613 -0.24947,-4.61516 1.74627,-8.85612 2.05812,-4.30333 6.86038,-4.61516 4.80227,-0.31184 6.23671,2.12048 1.43444,2.36995 1.80864,4.49043 H 258.1402 q -2.36995,0 -2.43232,2.36994 0,2.36995 2.30758,2.36995 h 14.84337 q 0.9355,0 1.55917,-0.49893 0.62367,-0.56131 0.74841,-1.80865 -0.24947,-5.1141 -2.93126,-9.47979 -2.61941,-4.3657 -9.91636,-4.11623 -7.29695,0.1871 -10.6024,5.8625 -3.24309,5.67541 -2.99362,12.16158 z"
         style="font-style:normal;font-variant:normal;font-weight:normal;font-stretch:normal;font-size:63.86388016px;font-family:cinecaption;-inkscape-font-specification:cinecaption;stroke:none;stroke-width:1.33887839;stroke-miterlimit:4;stroke-dasharray:none;stroke-opacity:1"
         id="path2205"
         inkscape:connector-curvature="0" />
    </g>
  </g>
</svg>
